<svg xmlns="http://www.w3.org/2000/svg" xmlns:xlink="http://www.w3.org/1999/xlink" zoomAndPan="magnify" preserveAspectRatio="xMidYMid meet" version="1.0" viewBox="100.88 66.33 731.02 255"><defs><g/><clipPath id="b7ac95f845"><path d="M 1.011719 0.273438 L 19 0.273438 L 19 19 L 1.011719 19 Z M 1.011719 0.273438 " clip-rule="nonzero"/></clipPath><clipPath id="2df17a0cf6"><path d="M 23 5 L 34 5 L 34 24.503906 L 23 24.503906 Z M 23 5 " clip-rule="nonzero"/></clipPath><clipPath id="469d791d80"><rect x="0" width="38" y="0" height="25"/></clipPath><clipPath id="7b3ca392c2"><path d="M 1.011719 0.5 L 19 0.5 L 19 20 L 1.011719 20 Z M 1.011719 0.5 " clip-rule="nonzero"/></clipPath><clipPath id="d848350e03"><path d="M 22 5 L 34 5 L 34 24.730469 L 22 24.730469 Z M 22 5 " clip-rule="nonzero"/></clipPath><clipPath id="4092074662"><rect x="0" width="38" y="0" height="25"/></clipPath><clipPath id="63ffc928ff"><path d="M 2 0.171875 L 19 0.171875 L 19 28 L 2 28 Z M 2 0.171875 " clip-rule="nonzero"/></clipPath><clipPath id="18318df3fa"><path d="M 88 9 L 111 9 L 111 35.390625 L 88 35.390625 Z M 88 9 " clip-rule="nonzero"/></clipPath><clipPath id="a84bca59f9"><rect x="0" width="126" y="0" height="36"/></clipPath><clipPath id="a9e08da738"><path d="M 537.070312 85.867188 L 573.820312 85.867188 L 573.820312 122.617188 L 537.070312 122.617188 Z M 537.070312 85.867188 " clip-rule="nonzero"/></clipPath><clipPath id="c6eae9eedb"><path d="M 612.363281 85.867188 L 649.113281 85.867188 L 649.113281 122.617188 L 612.363281 122.617188 Z M 612.363281 85.867188 " clip-rule="nonzero"/></clipPath><clipPath id="334808d8f4"><path d="M 292.992188 70.328125 L 670.667969 70.328125 L 670.667969 138.449219 L 292.992188 138.449219 Z M 292.992188 70.328125 " clip-rule="nonzero"/></clipPath><clipPath id="ecd44cf6b2"><path d="M 386.152344 85.867188 L 422.902344 85.867188 L 422.902344 122.617188 L 386.152344 122.617188 Z M 386.152344 85.867188 " clip-rule="nonzero"/></clipPath><clipPath id="485248961f"><path d="M 310.527344 85.867188 L 347.277344 85.867188 L 347.277344 122.617188 L 310.527344 122.617188 Z M 310.527344 85.867188 " clip-rule="nonzero"/></clipPath><clipPath id="863a474d32"><path d="M 1 0.925781 L 12 0.925781 L 12 10 L 1 10 Z M 1 0.925781 " clip-rule="nonzero"/></clipPath><clipPath id="d95610b705"><path d="M 12 3 L 16 3 L 16 11.851562 L 12 11.851562 Z M 12 3 " clip-rule="nonzero"/></clipPath><clipPath id="40ec13f1f8"><rect x="0" width="18" y="0" height="12"/></clipPath><clipPath id="019ea12fd8"><path d="M 1 0.203125 L 12 0.203125 L 12 9 L 1 9 Z M 1 0.203125 " clip-rule="nonzero"/></clipPath><clipPath id="164690e5f9"><path d="M 11 2 L 16 2 L 16 11.128906 L 11 11.128906 Z M 11 2 " clip-rule="nonzero"/></clipPath><clipPath id="6d23e6d29c"><rect x="0" width="18" y="0" height="12"/></clipPath><clipPath id="3974915175"><path d="M 1 0.324219 L 10 0.324219 L 10 8 L 1 8 Z M 1 0.324219 " clip-rule="nonzero"/></clipPath><clipPath id="4e2068a885"><path d="M 14 3 L 23 3 L 23 10.457031 L 14 10.457031 Z M 14 3 " clip-rule="nonzero"/></clipPath><clipPath id="9565c0fefd"><rect x="0" width="30" y="0" height="11"/></clipPath><clipPath id="47d677d15d"><path d="M 1 0.203125 L 11 0.203125 L 11 8 L 1 8 Z M 1 0.203125 " clip-rule="nonzero"/></clipPath><clipPath id="47159790df"><path d="M 15 2 L 23 2 L 23 10.335938 L 15 10.335938 Z M 15 2 " clip-rule="nonzero"/></clipPath><clipPath id="388d3c7b1a"><rect x="0" width="30" y="0" height="11"/></clipPath><clipPath id="0f37581fe8"><path d="M 1 0.667969 L 11 0.667969 L 11 8 L 1 8 Z M 1 0.667969 " clip-rule="nonzero"/></clipPath><clipPath id="622e2fc936"><path d="M 10 2 L 16 2 L 16 12.109375 L 10 12.109375 Z M 10 2 " clip-rule="nonzero"/></clipPath><clipPath id="854f639e82"><rect x="0" width="31" y="0" height="13"/></clipPath><clipPath id="0281bbf761"><path d="M 1 0.894531 L 10 0.894531 L 10 8 L 1 8 Z M 1 0.894531 " clip-rule="nonzero"/></clipPath><clipPath id="45ecf892a6"><path d="M 9 2 L 15 2 L 15 12.335938 L 9 12.335938 Z M 9 2 " clip-rule="nonzero"/></clipPath><clipPath id="e6fce638b4"><rect x="0" width="30" y="0" height="13"/></clipPath><clipPath id="fa1fb00de9"><path d="M 0.417969 0.324219 L 10 0.324219 L 10 8 L 0.417969 8 Z M 0.417969 0.324219 " clip-rule="nonzero"/></clipPath><clipPath id="bfb3ae03bb"><path d="M 9 2 L 15 2 L 15 11.761719 L 9 11.761719 Z M 9 2 " clip-rule="nonzero"/></clipPath><clipPath id="d67bd8fdb5"><rect x="0" width="16" y="0" height="12"/></clipPath><clipPath id="aa789a3121"><path d="M 292.992188 193.554688 L 670.667969 193.554688 L 670.667969 261.675781 L 292.992188 261.675781 Z M 292.992188 193.554688 " clip-rule="nonzero"/></clipPath><clipPath id="acba490667"><path d="M 1 0.894531 L 10 0.894531 L 10 8 L 1 8 Z M 1 0.894531 " clip-rule="nonzero"/></clipPath><clipPath id="6c402d696e"><path d="M 9 2 L 15 2 L 15 12.335938 L 9 12.335938 Z M 9 2 " clip-rule="nonzero"/></clipPath><clipPath id="8e0fb8ce6b"><rect x="0" width="16" y="0" height="13"/></clipPath><clipPath id="3799cabe6a"><path d="M 234.902344 209.09375 L 271.652344 209.09375 L 271.652344 245.84375 L 234.902344 245.84375 Z M 234.902344 209.09375 " clip-rule="nonzero"/></clipPath><clipPath id="15b5ca4cfc"><path d="M 310.527344 209.09375 L 347.277344 209.09375 L 347.277344 245.84375 L 310.527344 245.84375 Z M 310.527344 209.09375 " clip-rule="nonzero"/></clipPath><clipPath id="1349d47820"><path d="M 159.277344 85.867188 L 196.027344 85.867188 L 196.027344 122.617188 L 159.277344 122.617188 Z M 159.277344 85.867188 " clip-rule="nonzero"/></clipPath><clipPath id="a1506adffc"><path d="M 159.277344 209.09375 L 196.027344 209.09375 L 196.027344 245.84375 L 159.277344 245.84375 Z M 159.277344 209.09375 " clip-rule="nonzero"/></clipPath><clipPath id="188b9c29a8"><path d="M 234.902344 85.867188 L 271.652344 85.867188 L 271.652344 122.617188 L 234.902344 122.617188 Z M 234.902344 85.867188 " clip-rule="nonzero"/></clipPath><clipPath id="e253a2724a"><path d="M 386.152344 209.09375 L 422.902344 209.09375 L 422.902344 245.84375 L 386.152344 245.84375 Z M 386.152344 209.09375 " clip-rule="nonzero"/></clipPath><clipPath id="39ab29f3bb"><path d="M 537.070312 209.09375 L 573.820312 209.09375 L 573.820312 245.84375 L 537.070312 245.84375 Z M 537.070312 209.09375 " clip-rule="nonzero"/></clipPath><clipPath id="b195529e62"><path d="M 612.363281 209.09375 L 649.113281 209.09375 L 649.113281 245.84375 L 612.363281 245.84375 Z M 612.363281 209.09375 " clip-rule="nonzero"/></clipPath><clipPath id="17f9e215ef"><path d="M 687.652344 85.867188 L 724.402344 85.867188 L 724.402344 122.617188 L 687.652344 122.617188 Z M 687.652344 85.867188 " clip-rule="nonzero"/></clipPath><clipPath id="bd7208ae87"><path d="M 687.652344 209.09375 L 724.402344 209.09375 L 724.402344 245.84375 L 687.652344 245.84375 Z M 687.652344 209.09375 " clip-rule="nonzero"/></clipPath><clipPath id="51a7833fbd"><path d="M 762.945312 85.867188 L 799.695312 85.867188 L 799.695312 122.617188 L 762.945312 122.617188 Z M 762.945312 85.867188 " clip-rule="nonzero"/></clipPath><clipPath id="64ae54b8ca"><path d="M 762.945312 209.09375 L 799.695312 209.09375 L 799.695312 245.84375 L 762.945312 245.84375 Z M 762.945312 209.09375 " clip-rule="nonzero"/></clipPath><clipPath id="cc86b2036c"><path d="M 427.546875 141.476562 L 472.546875 141.476562 L 472.546875 190.226562 L 427.546875 190.226562 Z M 427.546875 141.476562 " clip-rule="nonzero"/></clipPath><clipPath id="e852dc69c7"><path d="M 450 190.519531 L 427.546875 166 L 439.808594 166 L 439.808594 141.476562 L 460.191406 141.476562 L 460.191406 166 L 472.449219 166 Z M 450 190.519531 " clip-rule="nonzero"/></clipPath></defs><g transform="matrix(1, 0, 0, 1, 99, 92)"><g clip-path="url(#469d791d80)"><g clip-path="url(#b7ac95f845)"><path fill="#000000" d="M 1.878906 6.617188 C 1.90625 6.535156 1.933594 6.425781 1.960938 6.289062 C 1.988281 6.152344 2.058594 5.855469 2.167969 5.390625 C 2.277344 4.925781 2.414062 4.503906 2.578125 4.121094 C 2.738281 3.738281 2.945312 3.289062 3.191406 2.769531 C 3.4375 2.253906 3.707031 1.84375 4.007812 1.542969 C 4.308594 1.242188 4.664062 0.941406 5.074219 0.640625 C 5.480469 0.34375 5.933594 0.21875 6.421875 0.273438 C 7.214844 0.273438 7.910156 0.4375 8.511719 0.765625 C 9.113281 1.09375 9.535156 1.390625 9.78125 1.664062 C 10.027344 1.9375 10.175781 2.210938 10.230469 2.484375 C 10.285156 2.648438 10.324219 2.730469 10.351562 2.730469 C 10.378906 2.730469 10.488281 2.632812 10.679688 2.441406 C 11.992188 1.023438 13.503906 0.316406 15.222656 0.316406 L 15.347656 0.316406 C 16.65625 0.316406 17.636719 0.875 18.292969 1.992188 C 18.511719 2.511719 18.621094 3.015625 18.621094 3.507812 C 18.621094 4.324219 18.445312 4.980469 18.089844 5.472656 C 17.734375 5.964844 17.378906 6.277344 17.023438 6.414062 C 16.671875 6.550781 16.328125 6.605469 16 6.578125 C 15.457031 6.578125 15.019531 6.425781 14.691406 6.125 C 14.363281 5.828125 14.199219 5.429688 14.199219 4.941406 C 14.199219 3.628906 14.964844 2.757812 16.492188 2.320312 C 15.890625 1.964844 15.402344 1.789062 15.019531 1.789062 C 13.492188 1.789062 12.085938 2.796875 10.804688 4.816406 C 10.53125 5.253906 10.324219 5.703125 10.1875 6.167969 C 10.054688 6.632812 9.589844 8.445312 8.796875 11.613281 C 7.871094 15.429688 7.335938 17.464844 7.203125 17.710938 C 6.847656 18.445312 6.261719 18.816406 5.441406 18.816406 C 5.085938 18.816406 4.800781 18.734375 4.582031 18.570312 C 4.363281 18.40625 4.214844 18.242188 4.132812 18.078125 C 4.050781 17.914062 4.023438 17.777344 4.050781 17.667969 C 4.050781 17.3125 4.59375 14.96875 5.6875 10.628906 C 6.777344 6.289062 7.324219 3.875 7.324219 3.382812 C 7.324219 2.320312 6.96875 1.789062 6.261719 1.789062 C 5.6875 1.789062 5.195312 2.171875 4.785156 2.933594 C 4.378906 3.699219 4.050781 4.53125 3.804688 5.429688 C 3.558594 6.332031 3.410156 6.824219 3.355469 6.90625 C 3.300781 6.960938 3.082031 6.984375 2.699219 6.984375 L 2.125 6.984375 C 1.960938 6.824219 1.878906 6.699219 1.878906 6.617188 Z M 1.878906 6.617188 " fill-opacity="1" fill-rule="nonzero"/></g><g clip-path="url(#2df17a0cf6)"><path fill="#000000" d="M 26.996094 7.777344 L 26.617188 7.921875 C 26.347656 8.019531 25.960938 8.117188 25.460938 8.210938 C 24.960938 8.308594 24.398438 8.375 23.78125 8.414062 L 23.234375 8.414062 L 23.234375 7.082031 L 23.78125 7.082031 C 24.691406 7.046875 25.527344 6.902344 26.300781 6.648438 C 27.070312 6.398438 27.613281 6.167969 27.921875 5.957031 C 28.230469 5.742188 28.5 5.53125 28.730469 5.320312 C 28.769531 5.261719 28.886719 5.230469 29.078125 5.230469 C 29.253906 5.230469 29.417969 5.289062 29.570312 5.40625 L 29.570312 14.058594 L 29.597656 22.738281 C 29.734375 22.875 29.851562 22.960938 29.945312 23 C 30.042969 23.039062 30.273438 23.078125 30.640625 23.117188 C 31.007812 23.152344 31.605469 23.171875 32.433594 23.171875 L 33.1875 23.171875 L 33.1875 24.503906 L 32.871094 24.503906 C 32.464844 24.445312 30.929688 24.417969 28.269531 24.417969 C 25.644531 24.417969 24.128906 24.445312 23.726562 24.503906 L 23.378906 24.503906 L 23.378906 23.171875 L 24.128906 23.171875 C 24.554688 23.171875 24.921875 23.171875 25.230469 23.171875 C 25.539062 23.171875 25.78125 23.164062 25.953125 23.144531 C 26.125 23.125 26.28125 23.097656 26.417969 23.058594 C 26.550781 23.019531 26.628906 23 26.648438 23 C 26.667969 23 26.726562 22.953125 26.820312 22.855469 C 26.917969 22.757812 26.976562 22.71875 26.996094 22.738281 Z M 26.996094 7.777344 " fill-opacity="1" fill-rule="nonzero"/></g></g></g><g transform="matrix(1, 0, 0, 1, 99, 215)"><g clip-path="url(#4092074662)"><g clip-path="url(#7b3ca392c2)"><path fill="#000000" d="M 1.878906 6.84375 C 1.90625 6.761719 1.933594 6.652344 1.960938 6.515625 C 1.988281 6.378906 2.058594 6.082031 2.167969 5.617188 C 2.277344 5.152344 2.414062 4.730469 2.578125 4.347656 C 2.738281 3.964844 2.945312 3.515625 3.191406 2.996094 C 3.4375 2.480469 3.707031 2.070312 4.007812 1.769531 C 4.308594 1.46875 4.664062 1.167969 5.074219 0.867188 C 5.480469 0.570312 5.933594 0.445312 6.421875 0.5 C 7.214844 0.5 7.910156 0.664062 8.511719 0.992188 C 9.113281 1.320312 9.535156 1.621094 9.78125 1.890625 C 10.027344 2.164062 10.175781 2.4375 10.230469 2.710938 C 10.285156 2.875 10.324219 2.957031 10.351562 2.957031 C 10.378906 2.957031 10.488281 2.859375 10.679688 2.667969 C 11.992188 1.25 13.503906 0.542969 15.222656 0.542969 L 15.347656 0.542969 C 16.65625 0.542969 17.636719 1.101562 18.292969 2.21875 C 18.511719 2.738281 18.621094 3.242188 18.621094 3.734375 C 18.621094 4.550781 18.445312 5.207031 18.089844 5.699219 C 17.734375 6.191406 17.378906 6.503906 17.023438 6.640625 C 16.671875 6.777344 16.328125 6.832031 16 6.804688 C 15.457031 6.804688 15.019531 6.652344 14.691406 6.351562 C 14.363281 6.054688 14.199219 5.65625 14.199219 5.167969 C 14.199219 3.855469 14.964844 2.984375 16.492188 2.546875 C 15.890625 2.191406 15.402344 2.015625 15.019531 2.015625 C 13.492188 2.015625 12.085938 3.023438 10.804688 5.042969 C 10.53125 5.480469 10.324219 5.929688 10.1875 6.394531 C 10.054688 6.859375 9.589844 8.671875 8.796875 11.839844 C 7.871094 15.660156 7.335938 17.691406 7.203125 17.9375 C 6.847656 18.671875 6.261719 19.042969 5.441406 19.042969 C 5.085938 19.042969 4.800781 18.960938 4.582031 18.796875 C 4.363281 18.632812 4.214844 18.46875 4.132812 18.304688 C 4.050781 18.140625 4.023438 18.003906 4.050781 17.894531 C 4.050781 17.542969 4.59375 15.195312 5.6875 10.855469 C 6.777344 6.515625 7.324219 4.101562 7.324219 3.609375 C 7.324219 2.546875 6.96875 2.015625 6.261719 2.015625 C 5.6875 2.015625 5.195312 2.398438 4.785156 3.160156 C 4.378906 3.925781 4.050781 4.757812 3.804688 5.65625 C 3.558594 6.558594 3.410156 7.050781 3.355469 7.132812 C 3.300781 7.1875 3.082031 7.214844 2.699219 7.214844 L 2.125 7.214844 C 1.960938 7.050781 1.878906 6.925781 1.878906 6.84375 Z M 1.878906 6.84375 " fill-opacity="1" fill-rule="nonzero"/></g><g clip-path="url(#d848350e03)"><path fill="#000000" d="M 23.984375 12.316406 C 23.464844 12.316406 23.050781 12.144531 22.742188 11.796875 C 22.433594 11.449219 22.277344 11.023438 22.277344 10.523438 C 22.277344 9.152344 22.789062 7.964844 23.8125 6.964844 C 24.835938 5.960938 26.109375 5.457031 27.632812 5.457031 C 29.386719 5.457031 30.851562 6 32.03125 7.078125 C 33.207031 8.160156 33.804688 9.558594 33.824219 11.273438 C 33.824219 12.105469 33.632812 12.894531 33.246094 13.648438 C 32.859375 14.402344 32.398438 15.054688 31.855469 15.617188 C 31.316406 16.175781 30.542969 16.890625 29.542969 17.757812 C 28.847656 18.355469 27.882812 19.242188 26.648438 20.417969 L 24.941406 22.039062 L 27.140625 22.070312 C 30.167969 22.070312 31.78125 22.019531 31.972656 21.925781 C 32.105469 21.886719 32.339844 21.027344 32.667969 19.347656 L 32.667969 19.261719 L 33.824219 19.261719 L 33.824219 19.347656 C 33.804688 19.40625 33.679688 20.285156 33.449219 21.980469 C 33.214844 23.679688 33.070312 24.566406 33.015625 24.644531 L 33.015625 24.730469 L 22.277344 24.730469 L 22.277344 23.835938 C 22.277344 23.699219 22.335938 23.554688 22.453125 23.398438 C 22.566406 23.246094 22.855469 22.90625 23.320312 22.386719 C 23.878906 21.769531 24.363281 21.230469 24.765625 20.765625 C 24.941406 20.574219 25.269531 20.21875 25.75 19.695312 C 26.234375 19.175781 26.5625 18.816406 26.734375 18.625 C 26.90625 18.433594 27.1875 18.113281 27.574219 17.671875 C 27.960938 17.226562 28.230469 16.898438 28.382812 16.6875 C 28.539062 16.472656 28.761719 16.183594 29.050781 15.820312 C 29.339844 15.453125 29.542969 15.144531 29.65625 14.890625 C 29.773438 14.640625 29.917969 14.363281 30.089844 14.054688 C 30.265625 13.746094 30.390625 13.4375 30.46875 13.128906 C 30.542969 12.820312 30.613281 12.527344 30.671875 12.257812 C 30.726562 11.988281 30.757812 11.671875 30.757812 11.304688 C 30.757812 10.089844 30.429688 9.039062 29.773438 8.148438 C 29.117188 7.261719 28.179688 6.820312 26.964844 6.820312 C 26.328125 6.820312 25.769531 6.984375 25.289062 7.3125 C 24.804688 7.636719 24.46875 7.957031 24.273438 8.265625 C 24.082031 8.574219 23.984375 8.757812 23.984375 8.816406 C 23.984375 8.835938 24.035156 8.84375 24.128906 8.84375 C 24.476562 8.84375 24.835938 8.980469 25.199219 9.25 C 25.566406 9.519531 25.75 9.964844 25.75 10.582031 C 25.75 11.0625 25.597656 11.46875 25.289062 11.796875 C 24.980469 12.125 24.542969 12.296875 23.984375 12.316406 Z M 23.984375 12.316406 " fill-opacity="1" fill-rule="nonzero"/></g></g></g><g transform="matrix(1, 0, 0, 1, 387, 286)"><g clip-path="url(#a84bca59f9)"><g clip-path="url(#63ffc928ff)"><path fill="#ff3131" d="M 4.757812 9.902344 C 4.023438 9.902344 3.441406 9.65625 3.003906 9.167969 C 2.570312 8.675781 2.351562 8.078125 2.351562 7.371094 C 2.351562 5.4375 3.070312 3.765625 4.515625 2.347656 C 5.957031 0.933594 7.753906 0.226562 9.902344 0.226562 C 12.378906 0.226562 14.449219 0.988281 16.109375 2.511719 C 17.769531 4.035156 18.613281 6.011719 18.640625 8.433594 C 18.640625 9.601562 18.367188 10.71875 17.824219 11.777344 C 17.277344 12.839844 16.625 13.765625 15.863281 14.554688 C 15.101562 15.34375 14.011719 16.351562 12.597656 17.574219 C 11.617188 18.417969 10.257812 19.671875 8.515625 21.332031 L 6.105469 23.617188 L 9.210938 23.660156 C 13.480469 23.660156 15.753906 23.589844 16.027344 23.453125 C 16.21875 23.398438 16.542969 22.1875 17.007812 19.820312 L 17.007812 19.699219 L 18.640625 19.699219 L 18.640625 19.820312 C 18.613281 19.902344 18.433594 21.140625 18.109375 23.535156 C 17.78125 25.929688 17.578125 27.183594 17.496094 27.292969 L 17.496094 27.414062 L 2.351562 27.414062 L 2.351562 26.148438 C 2.351562 25.957031 2.433594 25.753906 2.597656 25.535156 C 2.757812 25.320312 3.167969 24.84375 3.820312 24.109375 C 4.609375 23.238281 5.289062 22.472656 5.863281 21.820312 C 6.105469 21.550781 6.570312 21.046875 7.25 20.3125 C 7.929688 19.578125 8.394531 19.074219 8.636719 18.800781 C 8.882812 18.527344 9.277344 18.078125 9.820312 17.453125 C 10.367188 16.828125 10.746094 16.363281 10.964844 16.066406 C 11.183594 15.765625 11.496094 15.359375 11.902344 14.839844 C 12.3125 14.324219 12.597656 13.886719 12.761719 13.535156 C 12.925781 13.179688 13.128906 12.785156 13.371094 12.351562 C 13.617188 11.914062 13.792969 11.480469 13.902344 11.042969 C 14.011719 10.609375 14.109375 10.199219 14.1875 9.820312 C 14.269531 9.4375 14.3125 8.988281 14.3125 8.472656 C 14.3125 6.757812 13.847656 5.273438 12.925781 4.023438 C 12 2.769531 10.679688 2.144531 8.964844 2.144531 C 8.066406 2.144531 7.277344 2.375 6.597656 2.839844 C 5.917969 3.300781 5.441406 3.75 5.167969 4.1875 C 4.894531 4.621094 4.757812 4.878906 4.757812 4.960938 C 4.757812 4.988281 4.828125 5.003906 4.964844 5.003906 C 5.453125 5.003906 5.957031 5.191406 6.472656 5.574219 C 6.992188 5.957031 7.25 6.582031 7.25 7.453125 C 7.25 8.132812 7.03125 8.703125 6.597656 9.167969 C 6.160156 9.628906 5.546875 9.875 4.757812 9.902344 Z M 4.757812 9.902344 " fill-opacity="1" fill-rule="nonzero"/></g><path fill="#ff3131" d="M 33.21875 17.738281 C 33.21875 17.738281 33.21875 17.5625 33.21875 17.207031 C 33.21875 16.855469 33.410156 16.582031 33.792969 16.390625 L 57.507812 16.390625 C 57.917969 16.609375 58.121094 16.882812 58.121094 17.207031 C 58.121094 17.535156 57.917969 17.808594 57.507812 18.023438 L 33.792969 18.023438 C 33.410156 17.835938 33.21875 17.5625 33.21875 17.207031 Z M 33.21875 17.738281 " fill-opacity="1" fill-rule="nonzero"/><path fill="#ff3131" d="M 78.828125 27.863281 C 76.785156 27.863281 75.140625 27.195312 73.886719 25.863281 C 72.636719 24.527344 72.007812 22.921875 72.007812 21.046875 C 72.007812 19.277344 72.417969 17.601562 73.234375 16.023438 C 74.050781 14.445312 75.167969 13.070312 76.582031 11.902344 C 78.648438 10.242188 80.757812 9.410156 82.910156 9.410156 C 83.78125 9.410156 84.324219 9.425781 84.542969 9.453125 C 84.894531 9.535156 85.25 9.628906 85.601562 9.738281 C 85.957031 9.847656 86.433594 10.066406 87.03125 10.390625 C 87.628906 10.71875 88.121094 11.125 88.5 11.617188 C 88.882812 12.105469 89.234375 12.773438 89.5625 13.617188 C 89.890625 14.460938 90.050781 15.414062 90.050781 16.472656 C 90.050781 19.386719 88.882812 22.011719 86.542969 24.351562 C 84.203125 26.691406 81.628906 27.863281 78.828125 27.863281 Z M 75.5625 22.515625 C 75.5625 23.875 75.914062 24.855469 76.621094 25.453125 C 77.328125 26.054688 78.132812 26.351562 79.03125 26.351562 C 80.226562 26.351562 81.359375 25.917969 82.417969 25.046875 C 83.480469 24.175781 84.324219 23.03125 84.949219 21.617188 C 85.195312 21.046875 85.507812 20.039062 85.890625 18.597656 C 86.269531 17.152344 86.460938 15.902344 86.460938 14.839844 C 86.460938 13.644531 86.214844 12.730469 85.726562 12.105469 C 85.074219 11.289062 84.203125 10.882812 83.113281 10.882812 C 81.398438 10.882812 79.886719 11.671875 78.582031 13.25 C 77.574219 14.445312 76.828125 16.039062 76.335938 18.023438 C 75.847656 20.011719 75.589844 21.507812 75.5625 22.515625 Z M 75.5625 22.515625 " fill-opacity="1" fill-rule="nonzero"/><g clip-path="url(#18318df3fa)"><path fill="#ff3131" d="M 91.359375 15.699219 C 91.386719 15.617188 91.414062 15.507812 91.441406 15.371094 C 91.46875 15.234375 91.535156 14.9375 91.644531 14.472656 C 91.753906 14.011719 91.890625 13.589844 92.054688 13.207031 C 92.214844 12.828125 92.421875 12.378906 92.664062 11.859375 C 92.910156 11.34375 93.183594 10.9375 93.480469 10.636719 C 93.78125 10.335938 94.132812 10.039062 94.542969 9.738281 C 94.953125 9.4375 95.398438 9.316406 95.890625 9.371094 C 97.929688 9.371094 99.238281 10.242188 99.808594 11.984375 L 100.21875 11.617188 C 101.90625 10.121094 103.511719 9.371094 105.035156 9.371094 C 106.804688 9.371094 108.191406 10.011719 109.199219 11.289062 C 110.203125 12.570312 110.707031 14.121094 110.707031 15.941406 C 110.707031 18.882812 109.675781 21.589844 107.605469 24.066406 C 105.539062 26.542969 103.195312 27.796875 100.585938 27.820312 C 99.984375 27.820312 99.457031 27.742188 98.992188 27.578125 C 98.691406 27.441406 98.378906 27.238281 98.054688 26.964844 C 97.726562 26.691406 97.46875 26.460938 97.277344 26.269531 L 96.992188 25.945312 C 96.964844 25.972656 96.664062 27.15625 96.09375 29.496094 C 95.523438 31.835938 95.238281 33.019531 95.238281 33.046875 C 95.238281 33.210938 95.347656 33.304688 95.5625 33.332031 C 95.78125 33.359375 96.285156 33.402344 97.074219 33.457031 L 98.09375 33.457031 C 98.257812 33.644531 98.339844 33.769531 98.339844 33.824219 C 98.339844 33.878906 98.296875 34.121094 98.21875 34.558594 C 98.136719 34.882812 98.054688 35.089844 97.972656 35.171875 C 97.890625 35.25 97.714844 35.304688 97.441406 35.332031 C 97.386719 35.332031 97.238281 35.332031 96.992188 35.332031 C 96.746094 35.332031 96.285156 35.320312 95.605469 35.292969 C 94.925781 35.265625 94.082031 35.25 93.074219 35.25 C 91.167969 35.25 89.957031 35.277344 89.441406 35.332031 L 89.113281 35.332031 C 88.921875 35.144531 88.828125 34.992188 88.828125 34.882812 C 88.882812 34.148438 89.058594 33.671875 89.359375 33.457031 L 90.175781 33.457031 C 91.101562 33.429688 91.632812 33.265625 91.765625 32.964844 C 91.847656 32.800781 92.679688 29.550781 94.257812 23.210938 C 95.835938 16.867188 96.664062 13.507812 96.746094 13.125 C 96.773438 12.992188 96.789062 12.800781 96.789062 12.554688 C 96.789062 11.4375 96.449219 10.882812 95.769531 10.882812 C 95.167969 10.882812 94.664062 11.261719 94.257812 12.023438 C 93.847656 12.785156 93.535156 13.617188 93.316406 14.515625 C 93.101562 15.414062 92.9375 15.902344 92.828125 15.984375 C 92.773438 16.039062 92.554688 16.066406 92.175781 16.066406 L 91.605469 16.066406 C 91.441406 15.902344 91.359375 15.78125 91.359375 15.699219 Z M 97.6875 23.25 C 98.285156 25.320312 99.292969 26.351562 100.707031 26.351562 C 101.523438 26.351562 102.3125 26.039062 103.074219 25.414062 C 103.835938 24.789062 104.460938 24 104.953125 23.046875 C 105.441406 22.121094 105.933594 20.652344 106.421875 18.636719 C 106.910156 16.625 107.171875 15.125 107.199219 14.148438 L 107.199219 13.902344 C 107.199219 11.886719 106.367188 10.882812 104.707031 10.882812 C 104.410156 10.882812 104.109375 10.921875 103.808594 11.003906 C 103.511719 11.085938 103.210938 11.207031 102.910156 11.371094 C 102.613281 11.535156 102.339844 11.710938 102.09375 11.902344 C 101.851562 12.09375 101.617188 12.296875 101.402344 12.515625 C 101.183594 12.730469 100.980469 12.9375 100.789062 13.125 C 100.597656 13.316406 100.449219 13.507812 100.339844 13.699219 C 100.230469 13.886719 100.121094 14.023438 100.011719 14.105469 L 99.890625 14.269531 C 99.890625 14.296875 99.851562 14.488281 99.769531 14.839844 C 99.6875 15.195312 99.535156 15.792969 99.320312 16.636719 C 99.101562 17.480469 98.910156 18.1875 98.746094 18.761719 C 98.039062 21.644531 97.6875 23.140625 97.6875 23.25 Z M 97.6875 23.25 " fill-opacity="1" fill-rule="nonzero"/></g><path fill="#ff3131" d="M 112.015625 11.699219 C 111.824219 11.507812 111.730469 11.371094 111.730469 11.289062 C 111.730469 11.179688 111.769531 10.960938 111.851562 10.636719 C 111.933594 10.308594 112 10.121094 112.054688 10.066406 C 112.109375 9.929688 112.230469 9.859375 112.421875 9.859375 C 112.613281 9.859375 113.308594 9.847656 114.503906 9.820312 L 116.667969 9.820312 L 117.445312 6.554688 C 117.527344 6.253906 117.621094 5.859375 117.730469 5.371094 C 117.839844 4.878906 117.933594 4.527344 118.015625 4.308594 C 118.097656 4.089844 118.179688 3.820312 118.261719 3.492188 C 118.34375 3.164062 118.449219 2.933594 118.585938 2.796875 C 118.722656 2.664062 118.859375 2.5 118.996094 2.308594 C 119.132812 2.117188 119.320312 1.996094 119.566406 1.941406 C 119.8125 1.886719 120.054688 1.859375 120.300781 1.859375 C 120.792969 1.886719 121.132812 2.035156 121.320312 2.308594 C 121.511719 2.582031 121.609375 2.839844 121.609375 3.085938 C 121.609375 3.273438 121.484375 3.914062 121.242188 5.003906 C 120.996094 6.089844 120.722656 7.167969 120.425781 8.226562 L 120.015625 9.738281 C 120.015625 9.792969 120.695312 9.820312 122.058594 9.820312 L 124.140625 9.820312 C 124.328125 10.011719 124.425781 10.160156 124.425781 10.269531 C 124.425781 10.867188 124.246094 11.34375 123.894531 11.699219 L 119.527344 11.699219 L 118.054688 17.617188 C 116.996094 21.972656 116.464844 24.3125 116.464844 24.636719 C 116.464844 25.78125 116.832031 26.351562 117.566406 26.351562 C 118.519531 26.351562 119.445312 25.890625 120.34375 24.964844 C 121.242188 24.039062 121.960938 22.894531 122.507812 21.535156 C 122.558594 21.371094 122.628906 21.277344 122.710938 21.25 C 122.792969 21.222656 122.996094 21.195312 123.324219 21.167969 L 123.484375 21.167969 C 123.894531 21.167969 124.097656 21.277344 124.097656 21.496094 C 124.097656 21.578125 124.058594 21.738281 123.976562 21.984375 C 123.839844 22.421875 123.59375 22.9375 123.242188 23.535156 C 122.886719 24.132812 122.425781 24.773438 121.851562 25.453125 C 121.28125 26.136719 120.585938 26.707031 119.769531 27.167969 C 118.953125 27.632812 118.125 27.863281 117.28125 27.863281 C 116.464844 27.863281 115.6875 27.660156 114.953125 27.25 C 114.21875 26.84375 113.6875 26.136719 113.363281 25.128906 C 113.308594 24.910156 113.28125 24.542969 113.28125 24.027344 L 113.28125 23.292969 L 114.707031 17.574219 C 115.660156 13.738281 116.152344 11.804688 116.179688 11.777344 C 116.179688 11.726562 115.484375 11.699219 114.097656 11.699219 Z M 112.015625 11.699219 " fill-opacity="1" fill-rule="nonzero"/></g></g><g clip-path="url(#a9e08da738)"><path stroke-linecap="butt" transform="matrix(0.75, 0, 0, 0.75, 537.070104, 85.868198)" fill="none" stroke-linejoin="miter" d="M 0.000278623 -0.00134675 L 49.375279 -0.00134675 L 49.375279 49.373653 L 0.000278623 49.373653 Z M 0.000278623 -0.00134675 " stroke="#000000" stroke-width="8" stroke-opacity="1" stroke-miterlimit="4"/></g><g clip-path="url(#c6eae9eedb)"><path stroke-linecap="butt" transform="matrix(0.75, 0, 0, 0.75, 612.361915, 85.868198)" fill="none" stroke-linejoin="miter" d="M 0.00182222 -0.00134675 L 49.376822 -0.00134675 L 49.376822 49.373653 L 0.00182222 49.373653 Z M 0.00182222 -0.00134675 " stroke="#000000" stroke-width="8" stroke-opacity="1" stroke-miterlimit="4"/></g><g clip-path="url(#334808d8f4)"><path stroke-linecap="butt" transform="matrix(0.75, 0, 0, 0.75, 292.991036, 70.326595)" fill="none" stroke-linejoin="miter" d="M 0.00153485 0.00203949 L 503.569276 0.00203949 L 503.569276 90.83017 L 0.00153485 90.83017 Z M 0.00153485 0.00203949 " stroke="#ff3131" stroke-width="8" stroke-opacity="1" stroke-miterlimit="4"/></g><g clip-path="url(#ecd44cf6b2)"><path stroke-linecap="butt" transform="matrix(0.75, 0, 0, 0.75, 386.153364, 85.868198)" fill="none" stroke-linejoin="miter" d="M -0.00136012 -0.00134675 L 49.37364 -0.00134675 L 49.37364 49.373653 L -0.00136012 49.373653 Z M -0.00136012 -0.00134675 " stroke="#000000" stroke-width="8" stroke-opacity="1" stroke-miterlimit="4"/></g><g clip-path="url(#485248961f)"><path stroke-linecap="butt" transform="matrix(0.75, 0, 0, 0.75, 310.52832, 85.868198)" fill="none" stroke-linejoin="miter" d="M -0.00130168 -0.00134675 L 49.373698 -0.00134675 L 49.373698 49.373653 L -0.00130168 49.373653 Z M -0.00130168 -0.00134675 " stroke="#000000" stroke-width="8" stroke-opacity="1" stroke-miterlimit="4"/></g><g transform="matrix(1, 0, 0, 1, 320, 98)"><g clip-path="url(#40ec13f1f8)"><g clip-path="url(#863a474d32)"><path fill="#000000" d="M 4.132812 9.128906 C 3.292969 9.128906 2.609375 8.847656 2.089844 8.292969 C 1.570312 7.734375 1.304688 7.039062 1.292969 6.195312 C 1.292969 4.960938 1.746094 3.808594 2.648438 2.746094 C 3.550781 1.679688 4.601562 1.082031 5.800781 0.945312 C 5.816406 0.933594 6.679688 0.925781 8.398438 0.925781 L 10.960938 0.925781 C 10.972656 0.9375 10.992188 0.953125 11.015625 0.964844 C 11.039062 0.976562 11.066406 0.988281 11.089844 1 C 11.113281 1.011719 11.132812 1.027344 11.144531 1.039062 C 11.15625 1.050781 11.175781 1.070312 11.203125 1.09375 C 11.226562 1.117188 11.238281 1.132812 11.238281 1.132812 C 11.238281 1.132812 11.25 1.15625 11.277344 1.207031 C 11.300781 1.253906 11.304688 1.28125 11.292969 1.28125 C 11.28125 1.28125 11.289062 1.308594 11.3125 1.371094 C 11.335938 1.433594 11.34375 1.472656 11.332031 1.484375 C 11.332031 2.027344 10.929688 2.300781 10.125 2.300781 C 10.039062 2.300781 9.933594 2.300781 9.808594 2.300781 C 9.6875 2.300781 9.601562 2.292969 9.550781 2.28125 L 8.4375 2.28125 L 8.53125 2.464844 C 8.753906 2.9375 8.863281 3.460938 8.863281 4.042969 C 8.863281 5.40625 8.367188 6.59375 7.378906 7.605469 C 6.390625 8.621094 5.308594 9.128906 4.132812 9.128906 Z M 7.417969 3.765625 C 7.417969 2.777344 6.890625 2.28125 5.839844 2.28125 C 4.304688 2.28125 3.308594 3.355469 2.851562 5.507812 C 2.839844 5.558594 2.832031 5.597656 2.832031 5.621094 C 2.734375 6.078125 2.683594 6.457031 2.683594 6.753906 C 2.683594 7.371094 2.839844 7.804688 3.148438 8.050781 C 3.457031 8.300781 3.8125 8.429688 4.207031 8.441406 C 4.875 8.441406 5.488281 8.152344 6.042969 7.570312 C 6.402344 7.199219 6.691406 6.703125 6.914062 6.085938 C 7.136719 5.464844 7.273438 4.972656 7.324219 4.601562 C 7.375 4.230469 7.402344 3.949219 7.417969 3.765625 Z M 7.417969 3.765625 " fill-opacity="1" fill-rule="nonzero"/></g><g clip-path="url(#d95610b705)"><path fill="#000000" d="M 14.339844 3.835938 C 14.339844 3.625 14.421875 3.441406 14.589844 3.285156 C 14.753906 3.128906 14.945312 3.042969 15.164062 3.035156 C 15.324219 3.035156 15.453125 3.089844 15.558594 3.191406 C 15.664062 3.296875 15.71875 3.429688 15.730469 3.585938 C 15.730469 3.789062 15.640625 3.972656 15.46875 4.136719 C 15.292969 4.304688 15.097656 4.390625 14.890625 4.398438 C 14.757812 4.398438 14.636719 4.355469 14.523438 4.269531 C 14.410156 4.179688 14.347656 4.039062 14.339844 3.835938 Z M 12.199219 7.941406 C 12.199219 7.871094 12.238281 7.738281 12.320312 7.535156 C 12.398438 7.335938 12.503906 7.109375 12.632812 6.867188 C 12.765625 6.621094 12.957031 6.398438 13.210938 6.195312 C 13.464844 5.996094 13.726562 5.898438 13.996094 5.910156 C 14.339844 5.910156 14.621094 6.007812 14.851562 6.210938 C 15.078125 6.410156 15.195312 6.683594 15.203125 7.023438 C 15.203125 7.171875 15.144531 7.417969 15.019531 7.757812 C 14.898438 8.097656 14.722656 8.558594 14.496094 9.136719 C 14.269531 9.710938 14.085938 10.207031 13.945312 10.617188 C 13.902344 10.808594 13.878906 10.949219 13.878906 11.039062 C 13.878906 11.257812 13.953125 11.367188 14.101562 11.367188 C 14.179688 11.367188 14.265625 11.351562 14.351562 11.328125 C 14.4375 11.300781 14.539062 11.238281 14.652344 11.144531 C 14.765625 11.046875 14.886719 10.894531 15.007812 10.683594 C 15.128906 10.472656 15.238281 10.214844 15.335938 9.910156 C 15.363281 9.804688 15.382812 9.742188 15.402344 9.726562 C 15.417969 9.707031 15.492188 9.699219 15.625 9.699219 C 15.800781 9.699219 15.886719 9.742188 15.886719 9.832031 C 15.886719 9.902344 15.847656 10.035156 15.769531 10.238281 C 15.691406 10.4375 15.582031 10.660156 15.441406 10.90625 C 15.300781 11.152344 15.105469 11.371094 14.851562 11.5625 C 14.597656 11.753906 14.324219 11.851562 14.035156 11.851562 C 13.757812 11.851562 13.5 11.757812 13.261719 11.574219 C 13.027344 11.390625 12.90625 11.113281 12.894531 10.734375 C 12.894531 10.585938 12.917969 10.449219 12.960938 10.316406 C 13.003906 10.183594 13.191406 9.6875 13.527344 8.820312 C 13.859375 7.9375 14.050781 7.410156 14.101562 7.234375 C 14.15625 7.058594 14.1875 6.886719 14.195312 6.722656 C 14.195312 6.511719 14.121094 6.40625 13.972656 6.40625 L 13.945312 6.40625 C 13.683594 6.40625 13.441406 6.550781 13.222656 6.839844 C 13.003906 7.128906 12.839844 7.496094 12.726562 7.941406 C 12.714844 7.949219 12.707031 7.964844 12.699219 7.980469 C 12.691406 8 12.6875 8.011719 12.6875 8.019531 C 12.6875 8.03125 12.675781 8.039062 12.660156 8.046875 C 12.640625 8.054688 12.628906 8.058594 12.621094 8.058594 C 12.613281 8.058594 12.59375 8.058594 12.566406 8.058594 C 12.542969 8.058594 12.507812 8.058594 12.464844 8.058594 L 12.277344 8.058594 C 12.226562 8.007812 12.199219 7.96875 12.199219 7.941406 Z M 12.199219 7.941406 " fill-opacity="1" fill-rule="nonzero"/></g></g></g><g transform="matrix(1, 0, 0, 1, 623, 223)"><g clip-path="url(#6d23e6d29c)"><g clip-path="url(#019ea12fd8)"><path fill="#000000" d="M 3.855469 8.40625 C 3.015625 8.40625 2.335938 8.125 1.816406 7.570312 C 1.296875 7.011719 1.03125 6.3125 1.019531 5.472656 C 1.019531 4.234375 1.46875 3.085938 2.371094 2.023438 C 3.277344 0.957031 4.328125 0.359375 5.527344 0.222656 C 5.539062 0.210938 6.40625 0.203125 8.125 0.203125 L 10.683594 0.203125 C 10.699219 0.214844 10.714844 0.226562 10.742188 0.242188 C 10.765625 0.253906 10.789062 0.265625 10.816406 0.277344 C 10.839844 0.289062 10.859375 0.300781 10.871094 0.316406 C 10.882812 0.328125 10.902344 0.347656 10.925781 0.371094 C 10.949219 0.394531 10.964844 0.40625 10.964844 0.40625 C 10.964844 0.40625 10.976562 0.433594 11 0.480469 C 11.023438 0.53125 11.03125 0.554688 11.019531 0.554688 C 11.007812 0.554688 11.011719 0.585938 11.039062 0.648438 C 11.0625 0.710938 11.070312 0.746094 11.054688 0.761719 C 11.054688 1.304688 10.652344 1.578125 9.851562 1.578125 C 9.761719 1.578125 9.660156 1.578125 9.535156 1.578125 C 9.410156 1.578125 9.324219 1.570312 9.273438 1.558594 L 8.160156 1.558594 L 8.253906 1.742188 C 8.476562 2.214844 8.589844 2.738281 8.589844 3.320312 C 8.589844 4.679688 8.09375 5.867188 7.105469 6.882812 C 6.113281 7.898438 5.03125 8.40625 3.855469 8.40625 Z M 7.140625 3.042969 C 7.140625 2.050781 6.617188 1.558594 5.5625 1.558594 C 4.03125 1.558594 3.035156 2.632812 2.578125 4.785156 C 2.566406 4.835938 2.558594 4.871094 2.558594 4.898438 C 2.460938 5.355469 2.410156 5.734375 2.410156 6.03125 C 2.410156 6.648438 2.566406 7.082031 2.875 7.328125 C 3.183594 7.574219 3.535156 7.707031 3.929688 7.71875 C 4.597656 7.71875 5.210938 7.425781 5.769531 6.847656 C 6.125 6.476562 6.417969 5.980469 6.640625 5.363281 C 6.863281 4.742188 7 4.25 7.046875 3.878906 C 7.097656 3.507812 7.128906 3.226562 7.140625 3.042969 Z M 7.140625 3.042969 " fill-opacity="1" fill-rule="nonzero"/></g><g clip-path="url(#164690e5f9)"><path fill="#000000" d="M 14.0625 3.113281 C 14.0625 2.902344 14.148438 2.71875 14.3125 2.5625 C 14.480469 2.40625 14.671875 2.320312 14.890625 2.3125 C 15.046875 2.3125 15.179688 2.363281 15.285156 2.46875 C 15.386719 2.574219 15.445312 2.707031 15.453125 2.863281 C 15.453125 3.066406 15.367188 3.25 15.191406 3.414062 C 15.015625 3.582031 14.824219 3.667969 14.613281 3.675781 C 14.484375 3.675781 14.359375 3.632812 14.246094 3.546875 C 14.132812 3.457031 14.070312 3.3125 14.0625 3.113281 Z M 11.925781 7.21875 C 11.925781 7.148438 11.964844 7.011719 12.042969 6.8125 C 12.121094 6.609375 12.226562 6.386719 12.359375 6.144531 C 12.488281 5.898438 12.683594 5.675781 12.933594 5.472656 C 13.1875 5.273438 13.453125 5.175781 13.722656 5.183594 C 14.0625 5.183594 14.347656 5.285156 14.574219 5.488281 C 14.800781 5.6875 14.921875 5.960938 14.929688 6.300781 C 14.929688 6.449219 14.867188 6.695312 14.746094 7.035156 C 14.625 7.375 14.449219 7.835938 14.222656 8.414062 C 13.992188 8.988281 13.808594 9.484375 13.671875 9.894531 C 13.625 10.085938 13.605469 10.226562 13.605469 10.3125 C 13.605469 10.53125 13.679688 10.640625 13.828125 10.640625 C 13.90625 10.640625 13.988281 10.628906 14.078125 10.601562 C 14.164062 10.578125 14.265625 10.515625 14.378906 10.417969 C 14.492188 10.324219 14.609375 10.171875 14.734375 9.960938 C 14.855469 9.75 14.964844 9.492188 15.058594 9.1875 C 15.085938 9.082031 15.109375 9.019531 15.125 9.003906 C 15.144531 8.984375 15.21875 8.976562 15.347656 8.976562 C 15.523438 8.976562 15.613281 9.019531 15.613281 9.109375 C 15.613281 9.175781 15.570312 9.3125 15.492188 9.515625 C 15.414062 9.714844 15.304688 9.9375 15.164062 10.183594 C 15.027344 10.429688 14.828125 10.648438 14.574219 10.839844 C 14.320312 11.03125 14.050781 11.128906 13.761719 11.128906 C 13.480469 11.128906 13.222656 11.035156 12.988281 10.851562 C 12.75 10.667969 12.628906 10.390625 12.621094 10.011719 C 12.621094 9.863281 12.640625 9.722656 12.6875 9.59375 C 12.730469 9.460938 12.917969 8.964844 13.25 8.097656 C 13.582031 7.214844 13.773438 6.683594 13.828125 6.511719 C 13.878906 6.335938 13.910156 6.164062 13.917969 6 C 13.917969 5.789062 13.84375 5.683594 13.695312 5.683594 L 13.671875 5.683594 C 13.40625 5.683594 13.167969 5.828125 12.949219 6.117188 C 12.730469 6.40625 12.5625 6.773438 12.449219 7.21875 C 12.441406 7.226562 12.433594 7.242188 12.421875 7.257812 C 12.414062 7.277344 12.410156 7.289062 12.410156 7.296875 C 12.410156 7.304688 12.402344 7.316406 12.382812 7.324219 C 12.367188 7.332031 12.355469 7.335938 12.34375 7.335938 C 12.335938 7.335938 12.320312 7.335938 12.292969 7.335938 C 12.265625 7.335938 12.230469 7.335938 12.1875 7.335938 L 12.003906 7.335938 C 11.953125 7.285156 11.925781 7.246094 11.925781 7.21875 Z M 11.925781 7.21875 " fill-opacity="1" fill-rule="nonzero"/></g></g></g><g transform="matrix(1, 0, 0, 1, 390, 99)"><g clip-path="url(#9565c0fefd)"><g clip-path="url(#3974915175)"><path fill="#000000" d="M 3.488281 7.324219 C 2.769531 7.324219 2.191406 7.085938 1.75 6.613281 C 1.308594 6.140625 1.082031 5.542969 1.070312 4.828125 C 1.070312 3.777344 1.457031 2.796875 2.222656 1.894531 C 2.992188 0.988281 3.886719 0.476562 4.90625 0.363281 C 4.917969 0.351562 5.65625 0.347656 7.117188 0.347656 L 9.296875 0.347656 C 9.304688 0.355469 9.320312 0.367188 9.34375 0.378906 C 9.363281 0.386719 9.382812 0.398438 9.40625 0.410156 C 9.425781 0.421875 9.441406 0.429688 9.453125 0.441406 C 9.464844 0.453125 9.480469 0.46875 9.5 0.488281 C 9.519531 0.507812 9.53125 0.519531 9.53125 0.519531 C 9.53125 0.519531 9.542969 0.539062 9.5625 0.582031 C 9.585938 0.625 9.589844 0.644531 9.578125 0.644531 C 9.570312 0.644531 9.574219 0.671875 9.59375 0.726562 C 9.617188 0.777344 9.621094 0.808594 9.609375 0.820312 C 9.609375 1.28125 9.269531 1.515625 8.585938 1.515625 C 8.511719 1.515625 8.421875 1.515625 8.316406 1.515625 C 8.210938 1.515625 8.136719 1.507812 8.09375 1.5 L 7.148438 1.5 L 7.226562 1.65625 C 7.417969 2.054688 7.511719 2.503906 7.511719 2.996094 C 7.511719 4.15625 7.089844 5.164062 6.25 6.027344 C 5.40625 6.890625 4.488281 7.324219 3.488281 7.324219 Z M 6.28125 2.761719 C 6.28125 1.917969 5.832031 1.5 4.9375 1.5 C 3.632812 1.5 2.785156 2.414062 2.398438 4.246094 C 2.386719 4.285156 2.382812 4.320312 2.382812 4.339844 C 2.296875 4.730469 2.253906 5.050781 2.253906 5.300781 C 2.253906 5.828125 2.386719 6.195312 2.648438 6.40625 C 2.914062 6.617188 3.214844 6.726562 3.550781 6.738281 C 4.117188 6.738281 4.640625 6.492188 5.113281 5.996094 C 5.417969 5.679688 5.664062 5.261719 5.855469 4.734375 C 6.042969 4.207031 6.160156 3.785156 6.203125 3.472656 C 6.242188 3.15625 6.269531 2.917969 6.28125 2.761719 Z M 6.28125 2.761719 " fill-opacity="1" fill-rule="nonzero"/></g><path fill="#000000" d="M 12.167969 2.820312 C 12.167969 2.644531 12.238281 2.488281 12.382812 2.351562 C 12.523438 2.21875 12.6875 2.148438 12.871094 2.140625 C 13.007812 2.140625 13.117188 2.183594 13.207031 2.273438 C 13.296875 2.363281 13.34375 2.476562 13.351562 2.609375 C 13.351562 2.78125 13.277344 2.9375 13.128906 3.078125 C 12.980469 3.21875 12.816406 3.292969 12.636719 3.300781 C 12.527344 3.300781 12.421875 3.265625 12.324219 3.1875 C 12.230469 3.113281 12.175781 2.992188 12.167969 2.820312 Z M 10.351562 6.3125 C 10.351562 6.253906 10.382812 6.140625 10.449219 5.96875 C 10.515625 5.796875 10.605469 5.605469 10.71875 5.398438 C 10.828125 5.191406 10.992188 5 11.210938 4.828125 C 11.425781 4.660156 11.648438 4.578125 11.878906 4.585938 C 12.167969 4.585938 12.410156 4.667969 12.605469 4.839844 C 12.796875 5.011719 12.898438 5.242188 12.90625 5.53125 C 12.90625 5.660156 12.851562 5.867188 12.75 6.15625 C 12.644531 6.449219 12.496094 6.839844 12.304688 7.328125 C 12.109375 7.820312 11.953125 8.242188 11.835938 8.589844 C 11.796875 8.753906 11.777344 8.871094 11.777344 8.949219 C 11.777344 9.132812 11.839844 9.226562 11.96875 9.226562 C 12.035156 9.226562 12.105469 9.214844 12.179688 9.191406 C 12.253906 9.171875 12.339844 9.117188 12.4375 9.035156 C 12.535156 8.953125 12.632812 8.824219 12.738281 8.644531 C 12.84375 8.46875 12.933594 8.25 13.015625 7.988281 C 13.039062 7.898438 13.058594 7.847656 13.074219 7.832031 C 13.085938 7.816406 13.152344 7.808594 13.261719 7.808594 C 13.410156 7.808594 13.484375 7.847656 13.484375 7.921875 C 13.484375 7.980469 13.453125 8.09375 13.386719 8.265625 C 13.320312 8.4375 13.226562 8.628906 13.105469 8.835938 C 12.988281 9.042969 12.820312 9.230469 12.605469 9.394531 C 12.386719 9.558594 12.15625 9.640625 11.914062 9.640625 C 11.675781 9.640625 11.453125 9.5625 11.253906 9.40625 C 11.054688 9.25 10.949219 9.011719 10.941406 8.691406 C 10.941406 8.5625 10.960938 8.445312 10.996094 8.332031 C 11.035156 8.222656 11.195312 7.796875 11.476562 7.0625 C 11.761719 6.308594 11.921875 5.859375 11.96875 5.710938 C 12.011719 5.5625 12.039062 5.417969 12.046875 5.277344 C 12.046875 5.097656 11.984375 5.007812 11.855469 5.007812 L 11.835938 5.007812 C 11.609375 5.007812 11.40625 5.132812 11.21875 5.375 C 11.035156 5.621094 10.894531 5.933594 10.796875 6.3125 C 10.789062 6.320312 10.78125 6.332031 10.773438 6.347656 C 10.765625 6.363281 10.761719 6.375 10.761719 6.378906 C 10.761719 6.386719 10.753906 6.394531 10.742188 6.402344 C 10.726562 6.410156 10.714844 6.414062 10.707031 6.414062 C 10.699219 6.414062 10.683594 6.414062 10.664062 6.414062 C 10.640625 6.414062 10.609375 6.414062 10.574219 6.414062 L 10.417969 6.414062 C 10.371094 6.371094 10.351562 6.335938 10.351562 6.3125 Z M 10.351562 6.3125 " fill-opacity="1" fill-rule="nonzero"/><g clip-path="url(#4e2068a885)"><path fill="#000000" d="M 14.589844 6.871094 C 14.589844 6.871094 14.589844 6.824219 14.589844 6.726562 C 14.589844 6.628906 14.644531 6.554688 14.746094 6.503906 L 18.082031 6.503906 L 18.082031 4.828125 L 18.09375 3.15625 C 18.167969 3.058594 18.238281 3.011719 18.304688 3.011719 C 18.402344 3.011719 18.476562 3.066406 18.53125 3.179688 L 18.53125 6.503906 L 21.855469 6.503906 C 21.964844 6.5625 22.023438 6.636719 22.023438 6.726562 C 22.023438 6.816406 21.964844 6.890625 21.855469 6.949219 L 18.53125 6.949219 L 18.53125 10.273438 C 18.46875 10.378906 18.402344 10.429688 18.328125 10.429688 L 18.285156 10.429688 C 18.195312 10.429688 18.128906 10.378906 18.082031 10.273438 L 18.082031 6.949219 L 14.746094 6.949219 C 14.644531 6.898438 14.589844 6.824219 14.589844 6.726562 Z M 14.589844 6.871094 " fill-opacity="1" fill-rule="nonzero"/></g><path fill="#000000" d="M 25.023438 3.066406 L 24.878906 3.121094 C 24.773438 3.160156 24.625 3.195312 24.433594 3.234375 C 24.238281 3.269531 24.023438 3.296875 23.785156 3.3125 L 23.574219 3.3125 L 23.574219 2.796875 L 23.785156 2.796875 C 24.136719 2.785156 24.457031 2.726562 24.757812 2.632812 C 25.054688 2.535156 25.261719 2.445312 25.382812 2.363281 C 25.5 2.28125 25.605469 2.199219 25.695312 2.117188 C 25.707031 2.097656 25.753906 2.085938 25.828125 2.085938 C 25.894531 2.085938 25.957031 2.105469 26.015625 2.152344 L 26.015625 5.488281 L 26.027344 8.835938 C 26.082031 8.886719 26.125 8.921875 26.164062 8.9375 C 26.199219 8.949219 26.289062 8.964844 26.429688 8.980469 C 26.570312 8.996094 26.800781 9.003906 27.121094 9.003906 L 27.410156 9.003906 L 27.410156 9.515625 L 27.289062 9.515625 C 27.132812 9.492188 26.542969 9.484375 25.515625 9.484375 C 24.503906 9.484375 23.917969 9.492188 23.761719 9.515625 L 23.628906 9.515625 L 23.628906 9.003906 L 23.917969 9.003906 C 24.082031 9.003906 24.222656 9.003906 24.34375 9.003906 C 24.460938 9.003906 24.554688 9 24.621094 8.992188 C 24.6875 8.984375 24.75 8.972656 24.800781 8.957031 C 24.851562 8.945312 24.882812 8.9375 24.890625 8.9375 C 24.898438 8.9375 24.917969 8.917969 24.957031 8.878906 C 24.996094 8.84375 25.015625 8.828125 25.023438 8.835938 Z M 25.023438 3.066406 " fill-opacity="1" fill-rule="nonzero"/></g></g><g transform="matrix(1, 0, 0, 1, 541, 223)"><g clip-path="url(#388d3c7b1a)"><g clip-path="url(#47d677d15d)"><path fill="#000000" d="M 3.898438 7.203125 C 3.183594 7.203125 2.605469 6.964844 2.164062 6.492188 C 1.722656 6.019531 1.496094 5.425781 1.484375 4.710938 C 1.484375 3.65625 1.871094 2.679688 2.636719 1.773438 C 3.40625 0.867188 4.300781 0.359375 5.320312 0.242188 C 5.332031 0.230469 6.066406 0.226562 7.53125 0.226562 L 9.707031 0.226562 C 9.71875 0.238281 9.734375 0.246094 9.757812 0.257812 C 9.777344 0.269531 9.796875 0.28125 9.820312 0.289062 C 9.839844 0.300781 9.855469 0.3125 9.867188 0.320312 C 9.878906 0.332031 9.894531 0.347656 9.914062 0.367188 C 9.933594 0.390625 9.945312 0.398438 9.945312 0.398438 C 9.945312 0.398438 9.957031 0.421875 9.976562 0.464844 C 9.996094 0.503906 10.003906 0.527344 9.992188 0.527344 C 9.980469 0.527344 9.988281 0.554688 10.007812 0.605469 C 10.03125 0.65625 10.035156 0.691406 10.023438 0.699219 C 10.023438 1.164062 9.683594 1.394531 9 1.394531 C 8.925781 1.394531 8.835938 1.394531 8.730469 1.394531 C 8.625 1.394531 8.550781 1.390625 8.507812 1.378906 L 7.5625 1.378906 L 7.640625 1.535156 C 7.832031 1.9375 7.925781 2.382812 7.925781 2.878906 C 7.925781 4.035156 7.503906 5.046875 6.664062 5.910156 C 5.820312 6.773438 4.898438 7.203125 3.898438 7.203125 Z M 6.695312 2.640625 C 6.695312 1.800781 6.246094 1.378906 5.351562 1.378906 C 4.046875 1.378906 3.199219 2.292969 2.8125 4.125 C 2.800781 4.167969 2.796875 4.199219 2.796875 4.21875 C 2.710938 4.609375 2.667969 4.929688 2.667969 5.183594 C 2.667969 5.707031 2.800781 6.078125 3.0625 6.289062 C 3.328125 6.496094 3.625 6.609375 3.964844 6.617188 C 4.53125 6.617188 5.050781 6.371094 5.527344 5.878906 C 5.832031 5.5625 6.078125 5.140625 6.269531 4.613281 C 6.457031 4.089844 6.574219 3.667969 6.613281 3.351562 C 6.65625 3.035156 6.683594 2.800781 6.695312 2.640625 Z M 6.695312 2.640625 " fill-opacity="1" fill-rule="nonzero"/></g><path fill="#000000" d="M 12.582031 2.703125 C 12.582031 2.523438 12.652344 2.367188 12.792969 2.234375 C 12.9375 2.097656 13.097656 2.027344 13.285156 2.019531 C 13.417969 2.019531 13.53125 2.066406 13.621094 2.15625 C 13.710938 2.242188 13.757812 2.355469 13.765625 2.488281 C 13.765625 2.660156 13.691406 2.816406 13.542969 2.957031 C 13.394531 3.097656 13.230469 3.175781 13.050781 3.179688 C 12.941406 3.179688 12.835938 3.144531 12.738281 3.070312 C 12.640625 2.996094 12.589844 2.871094 12.582031 2.703125 Z M 10.765625 6.195312 C 10.765625 6.136719 10.796875 6.019531 10.863281 5.847656 C 10.929688 5.675781 11.019531 5.488281 11.132812 5.277344 C 11.242188 5.070312 11.40625 4.882812 11.621094 4.710938 C 11.839844 4.539062 12.0625 4.457031 12.292969 4.464844 C 12.582031 4.464844 12.824219 4.550781 13.019531 4.722656 C 13.210938 4.890625 13.3125 5.125 13.320312 5.414062 C 13.320312 5.539062 13.265625 5.746094 13.164062 6.039062 C 13.058594 6.328125 12.910156 6.71875 12.714844 7.210938 C 12.523438 7.699219 12.367188 8.121094 12.246094 8.472656 C 12.210938 8.632812 12.191406 8.753906 12.191406 8.828125 C 12.191406 9.015625 12.253906 9.105469 12.382812 9.105469 C 12.449219 9.105469 12.519531 9.09375 12.59375 9.074219 C 12.667969 9.050781 12.753906 9 12.851562 8.917969 C 12.945312 8.835938 13.046875 8.703125 13.152344 8.527344 C 13.253906 8.347656 13.347656 8.128906 13.429688 7.867188 C 13.453125 7.777344 13.472656 7.726562 13.488281 7.710938 C 13.5 7.695312 13.566406 7.691406 13.675781 7.691406 C 13.824219 7.691406 13.898438 7.726562 13.898438 7.800781 C 13.898438 7.859375 13.867188 7.976562 13.800781 8.148438 C 13.730469 8.316406 13.640625 8.507812 13.519531 8.714844 C 13.402344 8.925781 13.234375 9.109375 13.019531 9.273438 C 12.800781 9.4375 12.570312 9.519531 12.324219 9.519531 C 12.085938 9.519531 11.867188 9.441406 11.667969 9.285156 C 11.464844 9.128906 11.363281 8.890625 11.355469 8.570312 C 11.355469 8.445312 11.375 8.324219 11.410156 8.214844 C 11.449219 8.101562 11.609375 7.679688 11.890625 6.941406 C 12.171875 6.191406 12.335938 5.742188 12.382812 5.589844 C 12.425781 5.441406 12.453125 5.296875 12.460938 5.15625 C 12.460938 4.976562 12.398438 4.890625 12.269531 4.890625 L 12.246094 4.890625 C 12.023438 4.890625 11.820312 5.011719 11.632812 5.257812 C 11.449219 5.503906 11.308594 5.816406 11.210938 6.195312 C 11.203125 6.203125 11.195312 6.214844 11.1875 6.226562 C 11.179688 6.242188 11.175781 6.253906 11.175781 6.261719 C 11.175781 6.269531 11.167969 6.277344 11.152344 6.285156 C 11.140625 6.292969 11.128906 6.292969 11.121094 6.292969 C 11.113281 6.292969 11.097656 6.292969 11.074219 6.292969 C 11.054688 6.292969 11.023438 6.292969 10.988281 6.292969 L 10.832031 6.292969 C 10.785156 6.25 10.765625 6.214844 10.765625 6.195312 Z M 10.765625 6.195312 " fill-opacity="1" fill-rule="nonzero"/><g clip-path="url(#47159790df)"><path fill="#000000" d="M 15.003906 6.753906 C 15.003906 6.753906 15.003906 6.703125 15.003906 6.605469 C 15.003906 6.511719 15.054688 6.4375 15.160156 6.382812 L 18.496094 6.382812 L 18.496094 4.710938 L 18.507812 3.035156 C 18.582031 2.941406 18.652344 2.890625 18.71875 2.890625 C 18.816406 2.890625 18.890625 2.945312 18.941406 3.058594 L 18.941406 6.382812 L 22.269531 6.382812 C 22.378906 6.445312 22.4375 6.519531 22.4375 6.605469 C 22.4375 6.695312 22.378906 6.769531 22.269531 6.832031 L 18.941406 6.832031 L 18.941406 10.15625 C 18.882812 10.261719 18.816406 10.3125 18.742188 10.3125 L 18.699219 10.3125 C 18.609375 10.3125 18.542969 10.261719 18.496094 10.15625 L 18.496094 6.832031 L 15.160156 6.832031 C 15.054688 6.777344 15.003906 6.703125 15.003906 6.605469 Z M 15.003906 6.753906 " fill-opacity="1" fill-rule="nonzero"/></g><path fill="#000000" d="M 25.4375 2.945312 L 25.292969 3.003906 C 25.1875 3.039062 25.039062 3.078125 24.847656 3.113281 C 24.652344 3.152344 24.4375 3.175781 24.199219 3.191406 L 23.988281 3.191406 L 23.988281 2.679688 L 24.199219 2.679688 C 24.546875 2.664062 24.871094 2.609375 25.167969 2.511719 C 25.46875 2.414062 25.675781 2.324219 25.792969 2.242188 C 25.914062 2.164062 26.019531 2.082031 26.105469 2 C 26.121094 1.976562 26.167969 1.964844 26.242188 1.964844 C 26.308594 1.964844 26.371094 1.988281 26.429688 2.03125 L 26.429688 5.367188 L 26.441406 8.714844 C 26.492188 8.769531 26.539062 8.800781 26.574219 8.816406 C 26.613281 8.832031 26.703125 8.847656 26.84375 8.859375 C 26.984375 8.875 27.214844 8.882812 27.535156 8.882812 L 27.824219 8.882812 L 27.824219 9.398438 L 27.703125 9.398438 C 27.546875 9.375 26.957031 9.363281 25.929688 9.363281 C 24.917969 9.363281 24.332031 9.375 24.175781 9.398438 L 24.042969 9.398438 L 24.042969 8.882812 L 24.332031 8.882812 C 24.496094 8.882812 24.636719 8.882812 24.757812 8.882812 C 24.875 8.882812 24.96875 8.878906 25.035156 8.871094 C 25.101562 8.863281 25.164062 8.855469 25.214844 8.839844 C 25.265625 8.824219 25.296875 8.816406 25.304688 8.816406 C 25.3125 8.816406 25.332031 8.796875 25.371094 8.761719 C 25.40625 8.722656 25.429688 8.707031 25.4375 8.714844 Z M 25.4375 2.945312 " fill-opacity="1" fill-rule="nonzero"/></g></g><g transform="matrix(1, 0, 0, 1, 540, 98)"><g clip-path="url(#854f639e82)"><g clip-path="url(#0f37581fe8)"><path fill="#000000" d="M 3.910156 7.640625 C 3.195312 7.640625 2.617188 7.40625 2.175781 6.933594 C 1.734375 6.457031 1.507812 5.863281 1.496094 5.148438 C 1.496094 4.097656 1.878906 3.121094 2.648438 2.214844 C 3.414062 1.3125 4.308594 0.800781 5.328125 0.683594 C 5.339844 0.675781 6.078125 0.667969 7.539062 0.667969 L 9.714844 0.667969 C 9.726562 0.679688 9.742188 0.691406 9.761719 0.699219 C 9.785156 0.710938 9.804688 0.722656 9.824219 0.734375 C 9.847656 0.742188 9.863281 0.753906 9.871094 0.765625 C 9.882812 0.773438 9.898438 0.789062 9.921875 0.8125 C 9.941406 0.832031 9.953125 0.84375 9.953125 0.84375 C 9.953125 0.84375 9.960938 0.863281 9.984375 0.90625 C 10.003906 0.949219 10.007812 0.96875 10 0.96875 C 9.988281 0.96875 9.992188 0.996094 10.015625 1.046875 C 10.035156 1.101562 10.042969 1.132812 10.03125 1.140625 C 10.03125 1.605469 9.6875 1.835938 9.003906 1.835938 C 8.929688 1.835938 8.84375 1.835938 8.738281 1.835938 C 8.632812 1.835938 8.558594 1.832031 8.515625 1.820312 L 7.570312 1.820312 L 7.648438 1.980469 C 7.835938 2.378906 7.933594 2.824219 7.933594 3.320312 C 7.933594 4.476562 7.511719 5.484375 6.671875 6.347656 C 5.828125 7.210938 4.910156 7.640625 3.910156 7.640625 Z M 6.703125 3.082031 C 6.703125 2.242188 6.253906 1.820312 5.359375 1.820312 C 4.058594 1.820312 3.210938 2.734375 2.820312 4.566406 C 2.8125 4.609375 2.804688 4.640625 2.804688 4.660156 C 2.722656 5.050781 2.679688 5.371094 2.679688 5.621094 C 2.679688 6.148438 2.8125 6.515625 3.074219 6.726562 C 3.335938 6.9375 3.636719 7.046875 3.972656 7.058594 C 4.542969 7.058594 5.0625 6.8125 5.535156 6.316406 C 5.839844 6 6.085938 5.582031 6.277344 5.054688 C 6.464844 4.527344 6.582031 4.109375 6.625 3.792969 C 6.664062 3.476562 6.691406 3.242188 6.703125 3.082031 Z M 6.703125 3.082031 " fill-opacity="1" fill-rule="nonzero"/></g><g clip-path="url(#622e2fc936)"><path fill="#000000" d="M 13.847656 3.1875 C 13.847656 2.957031 13.925781 2.777344 14.082031 2.652344 C 14.238281 2.527344 14.398438 2.460938 14.5625 2.460938 C 14.6875 2.460938 14.792969 2.5 14.875 2.574219 C 14.957031 2.648438 15.007812 2.753906 15.03125 2.886719 C 15.03125 3.09375 14.960938 3.269531 14.816406 3.410156 C 14.675781 3.550781 14.511719 3.621094 14.328125 3.621094 C 14.191406 3.621094 14.082031 3.585938 13.992188 3.511719 C 13.902344 3.4375 13.855469 3.328125 13.847656 3.1875 Z M 13.746094 5.640625 C 13.746094 5.425781 13.652344 5.316406 13.457031 5.316406 C 13.292969 5.316406 13.136719 5.363281 12.988281 5.453125 C 12.839844 5.539062 12.710938 5.65625 12.597656 5.796875 C 12.488281 5.9375 12.398438 6.074219 12.332031 6.210938 C 12.265625 6.34375 12.199219 6.460938 12.140625 6.566406 L 12.0625 6.722656 C 12.046875 6.730469 11.988281 6.734375 11.882812 6.734375 L 11.730469 6.734375 C 11.683594 6.6875 11.660156 6.660156 11.660156 6.644531 C 11.660156 6.628906 11.675781 6.582031 11.707031 6.5 C 11.863281 6.136719 12.082031 5.792969 12.363281 5.472656 C 12.648438 5.152344 12.972656 4.96875 13.347656 4.914062 C 13.351562 4.914062 13.382812 4.914062 13.433594 4.914062 C 13.488281 4.914062 13.53125 4.914062 13.570312 4.90625 C 13.746094 4.914062 13.910156 4.949219 14.058594 5.015625 C 14.246094 5.121094 14.386719 5.234375 14.484375 5.363281 C 14.578125 5.488281 14.628906 5.683594 14.628906 5.953125 L 14.628906 6.132812 L 14.082031 8.351562 C 13.703125 9.839844 13.5 10.609375 13.480469 10.671875 C 13.347656 11.042969 13.085938 11.375 12.699219 11.664062 C 12.3125 11.953125 11.871094 12.101562 11.371094 12.109375 C 11 12.109375 10.746094 12.03125 10.613281 11.875 C 10.480469 11.71875 10.410156 11.546875 10.402344 11.363281 C 10.402344 11.160156 10.472656 10.992188 10.613281 10.847656 C 10.753906 10.707031 10.925781 10.632812 11.125 10.625 C 11.253906 10.625 11.359375 10.664062 11.449219 10.738281 C 11.539062 10.8125 11.585938 10.925781 11.59375 11.082031 C 11.59375 11.351562 11.476562 11.554688 11.238281 11.695312 C 11.28125 11.703125 11.335938 11.707031 11.394531 11.707031 C 11.648438 11.707031 11.878906 11.605469 12.085938 11.394531 C 12.292969 11.1875 12.453125 10.941406 12.566406 10.660156 L 12.6875 10.191406 C 12.769531 9.871094 12.867188 9.484375 12.976562 9.03125 C 13.089844 8.578125 13.207031 8.113281 13.335938 7.636719 C 13.460938 7.160156 13.5625 6.75 13.636719 6.398438 C 13.710938 6.050781 13.75 5.839844 13.757812 5.761719 C 13.757812 5.710938 13.753906 5.671875 13.746094 5.640625 Z M 13.746094 5.640625 " fill-opacity="1" fill-rule="nonzero"/></g><path fill="#000000" d="M 16.066406 7.191406 C 16.066406 7.191406 16.066406 7.144531 16.066406 7.046875 C 16.066406 6.949219 16.117188 6.875 16.222656 6.824219 L 22.703125 6.824219 C 22.8125 6.882812 22.871094 6.957031 22.871094 7.046875 C 22.871094 7.136719 22.8125 7.210938 22.703125 7.269531 L 16.222656 7.269531 C 16.117188 7.21875 16.066406 7.144531 16.066406 7.046875 Z M 16.066406 7.191406 " fill-opacity="1" fill-rule="nonzero"/><path fill="#000000" d="M 26.183594 3.386719 L 26.039062 3.445312 C 25.933594 3.480469 25.785156 3.519531 25.589844 3.554688 C 25.398438 3.59375 25.183594 3.617188 24.945312 3.632812 L 24.730469 3.632812 L 24.730469 3.121094 L 24.945312 3.121094 C 25.292969 3.105469 25.617188 3.050781 25.914062 2.953125 C 26.210938 2.855469 26.421875 2.765625 26.539062 2.683594 C 26.65625 2.605469 26.761719 2.523438 26.851562 2.441406 C 26.867188 2.417969 26.910156 2.40625 26.984375 2.40625 C 27.050781 2.40625 27.113281 2.429688 27.175781 2.472656 L 27.175781 5.808594 L 27.1875 9.152344 C 27.238281 9.207031 27.28125 9.238281 27.320312 9.253906 C 27.355469 9.269531 27.445312 9.285156 27.585938 9.300781 C 27.730469 9.3125 27.960938 9.320312 28.277344 9.320312 L 28.570312 9.320312 L 28.570312 9.835938 L 28.445312 9.835938 C 28.289062 9.8125 27.699219 9.800781 26.671875 9.800781 C 25.660156 9.800781 25.078125 9.8125 24.921875 9.835938 L 24.789062 9.835938 L 24.789062 9.320312 L 25.078125 9.320312 C 25.242188 9.320312 25.382812 9.320312 25.5 9.320312 C 25.621094 9.320312 25.714844 9.316406 25.78125 9.308594 C 25.847656 9.300781 25.90625 9.292969 25.960938 9.277344 C 26.011719 9.261719 26.039062 9.253906 26.046875 9.253906 C 26.054688 9.253906 26.078125 9.234375 26.113281 9.199219 C 26.152344 9.160156 26.175781 9.144531 26.183594 9.152344 Z M 26.183594 3.386719 " fill-opacity="1" fill-rule="nonzero"/></g></g><g transform="matrix(1, 0, 0, 1, 390, 221)"><g clip-path="url(#e6fce638b4)"><g clip-path="url(#0281bbf761)"><path fill="#000000" d="M 3.5 7.867188 C 2.785156 7.867188 2.207031 7.632812 1.765625 7.160156 C 1.324219 6.683594 1.097656 6.089844 1.085938 5.375 C 1.085938 4.324219 1.472656 3.347656 2.238281 2.441406 C 3.007812 1.539062 3.902344 1.027344 4.921875 0.910156 C 4.929688 0.902344 5.667969 0.894531 7.128906 0.894531 L 9.304688 0.894531 C 9.316406 0.90625 9.332031 0.917969 9.351562 0.925781 C 9.375 0.9375 9.394531 0.949219 9.417969 0.960938 C 9.4375 0.96875 9.453125 0.980469 9.464844 0.992188 C 9.472656 1 9.488281 1.015625 9.511719 1.039062 C 9.53125 1.058594 9.542969 1.070312 9.542969 1.070312 C 9.542969 1.070312 9.554688 1.089844 9.574219 1.132812 C 9.59375 1.175781 9.601562 1.195312 9.589844 1.195312 C 9.578125 1.195312 9.585938 1.222656 9.605469 1.273438 C 9.625 1.328125 9.632812 1.359375 9.621094 1.371094 C 9.621094 1.832031 9.28125 2.0625 8.597656 2.0625 C 8.523438 2.0625 8.433594 2.0625 8.328125 2.0625 C 8.222656 2.0625 8.148438 2.058594 8.105469 2.046875 L 7.160156 2.046875 L 7.238281 2.207031 C 7.429688 2.605469 7.523438 3.050781 7.523438 3.546875 C 7.523438 4.703125 7.101562 5.710938 6.261719 6.574219 C 5.421875 7.4375 4.5 7.867188 3.5 7.867188 Z M 6.292969 3.308594 C 6.292969 2.46875 5.847656 2.046875 4.953125 2.046875 C 3.648438 2.046875 2.800781 2.960938 2.414062 4.792969 C 2.402344 4.835938 2.398438 4.867188 2.398438 4.886719 C 2.3125 5.277344 2.269531 5.597656 2.269531 5.847656 C 2.269531 6.375 2.402344 6.742188 2.664062 6.953125 C 2.925781 7.164062 3.226562 7.273438 3.5625 7.285156 C 4.132812 7.285156 4.652344 7.039062 5.125 6.542969 C 5.429688 6.226562 5.675781 5.808594 5.867188 5.28125 C 6.054688 4.753906 6.171875 4.335938 6.214844 4.019531 C 6.257812 3.703125 6.28125 3.46875 6.292969 3.308594 Z M 6.292969 3.308594 " fill-opacity="1" fill-rule="nonzero"/></g><g clip-path="url(#45ecf892a6)"><path fill="#000000" d="M 13.4375 3.414062 C 13.4375 3.183594 13.515625 3.003906 13.671875 2.878906 C 13.828125 2.753906 13.988281 2.6875 14.152344 2.6875 C 14.277344 2.6875 14.382812 2.726562 14.464844 2.800781 C 14.546875 2.875 14.597656 2.980469 14.621094 3.113281 C 14.621094 3.320312 14.550781 3.496094 14.410156 3.636719 C 14.265625 3.777344 14.105469 3.847656 13.917969 3.847656 C 13.785156 3.847656 13.671875 3.8125 13.582031 3.738281 C 13.492188 3.664062 13.445312 3.554688 13.4375 3.414062 Z M 13.335938 5.867188 C 13.335938 5.652344 13.242188 5.542969 13.046875 5.542969 C 12.882812 5.542969 12.726562 5.589844 12.578125 5.679688 C 12.429688 5.765625 12.300781 5.882812 12.1875 6.023438 C 12.078125 6.164062 11.988281 6.300781 11.921875 6.4375 C 11.855469 6.570312 11.792969 6.6875 11.730469 6.792969 L 11.652344 6.949219 C 11.640625 6.957031 11.578125 6.960938 11.476562 6.960938 L 11.320312 6.960938 C 11.273438 6.914062 11.253906 6.886719 11.253906 6.871094 C 11.253906 6.855469 11.265625 6.808594 11.296875 6.726562 C 11.453125 6.363281 11.671875 6.019531 11.953125 5.699219 C 12.238281 5.378906 12.566406 5.195312 12.9375 5.144531 C 12.945312 5.144531 12.972656 5.144531 13.027344 5.144531 C 13.078125 5.144531 13.121094 5.140625 13.160156 5.132812 C 13.335938 5.140625 13.5 5.175781 13.648438 5.242188 C 13.835938 5.347656 13.976562 5.460938 14.074219 5.589844 C 14.171875 5.714844 14.21875 5.914062 14.21875 6.179688 L 14.21875 6.359375 L 13.671875 8.578125 C 13.292969 10.066406 13.09375 10.839844 13.070312 10.898438 C 12.9375 11.269531 12.675781 11.601562 12.289062 11.890625 C 11.902344 12.179688 11.460938 12.328125 10.960938 12.335938 C 10.589844 12.335938 10.335938 12.257812 10.203125 12.101562 C 10.070312 11.945312 10 11.773438 9.992188 11.589844 C 9.992188 11.386719 10.0625 11.21875 10.203125 11.074219 C 10.34375 10.933594 10.515625 10.859375 10.71875 10.851562 C 10.84375 10.851562 10.953125 10.890625 11.039062 10.964844 C 11.128906 11.039062 11.179688 11.152344 11.183594 11.308594 C 11.183594 11.578125 11.066406 11.78125 10.828125 11.921875 C 10.875 11.929688 10.925781 11.933594 10.984375 11.933594 C 11.238281 11.933594 11.46875 11.832031 11.675781 11.621094 C 11.882812 11.414062 12.042969 11.167969 12.15625 10.886719 L 12.277344 10.417969 C 12.359375 10.097656 12.457031 9.710938 12.570312 9.257812 C 12.679688 8.804688 12.800781 8.339844 12.925781 7.863281 C 13.050781 7.386719 13.152344 6.976562 13.226562 6.625 C 13.300781 6.277344 13.339844 6.066406 13.347656 5.992188 C 13.347656 5.9375 13.34375 5.898438 13.335938 5.867188 Z M 13.335938 5.867188 " fill-opacity="1" fill-rule="nonzero"/></g><path fill="#000000" d="M 15.65625 7.417969 C 15.65625 7.417969 15.65625 7.371094 15.65625 7.273438 C 15.65625 7.175781 15.710938 7.101562 15.8125 7.050781 L 22.292969 7.050781 C 22.40625 7.109375 22.460938 7.183594 22.460938 7.273438 C 22.460938 7.363281 22.40625 7.4375 22.292969 7.496094 L 15.8125 7.496094 C 15.710938 7.445312 15.65625 7.371094 15.65625 7.273438 Z M 15.65625 7.417969 " fill-opacity="1" fill-rule="nonzero"/><path fill="#000000" d="M 25.773438 3.613281 L 25.628906 3.671875 C 25.523438 3.707031 25.375 3.746094 25.183594 3.78125 C 24.988281 3.820312 24.773438 3.84375 24.535156 3.859375 L 24.324219 3.859375 L 24.324219 3.347656 L 24.535156 3.347656 C 24.882812 3.332031 25.207031 3.277344 25.503906 3.179688 C 25.800781 3.082031 26.011719 2.992188 26.128906 2.914062 C 26.25 2.832031 26.351562 2.75 26.441406 2.667969 C 26.457031 2.644531 26.5 2.632812 26.574219 2.632812 C 26.644531 2.632812 26.707031 2.65625 26.765625 2.699219 L 26.765625 6.035156 L 26.777344 9.378906 C 26.828125 9.433594 26.875 9.464844 26.910156 9.480469 C 26.949219 9.496094 27.035156 9.511719 27.179688 9.527344 C 27.320312 9.539062 27.550781 9.546875 27.871094 9.546875 L 28.160156 9.546875 L 28.160156 10.0625 L 28.035156 10.0625 C 27.878906 10.039062 27.289062 10.027344 26.261719 10.027344 C 25.253906 10.027344 24.667969 10.039062 24.511719 10.0625 L 24.378906 10.0625 L 24.378906 9.546875 L 24.667969 9.546875 C 24.832031 9.546875 24.972656 9.546875 25.09375 9.546875 C 25.210938 9.546875 25.304688 9.542969 25.371094 9.535156 C 25.4375 9.53125 25.496094 9.519531 25.550781 9.503906 C 25.601562 9.488281 25.632812 9.480469 25.640625 9.480469 C 25.644531 9.480469 25.667969 9.460938 25.707031 9.425781 C 25.742188 9.386719 25.765625 9.375 25.773438 9.378906 Z M 25.773438 3.613281 " fill-opacity="1" fill-rule="nonzero"/></g></g><g transform="matrix(1, 0, 0, 1, 623, 99)"><g clip-path="url(#d67bd8fdb5)"><g clip-path="url(#fa1fb00de9)"><path fill="#000000" d="M 3.328125 7.296875 C 2.613281 7.296875 2.035156 7.058594 1.59375 6.585938 C 1.152344 6.113281 0.925781 5.519531 0.917969 4.804688 C 0.917969 3.75 1.300781 2.773438 2.066406 1.867188 C 2.835938 0.964844 3.730469 0.453125 4.75 0.339844 C 4.757812 0.328125 5.496094 0.324219 6.957031 0.324219 L 9.132812 0.324219 C 9.144531 0.332031 9.160156 0.34375 9.183594 0.355469 C 9.203125 0.363281 9.222656 0.375 9.246094 0.386719 C 9.265625 0.398438 9.28125 0.40625 9.292969 0.417969 C 9.300781 0.429688 9.320312 0.445312 9.339844 0.464844 C 9.359375 0.484375 9.371094 0.496094 9.371094 0.496094 C 9.371094 0.496094 9.382812 0.515625 9.402344 0.558594 C 9.421875 0.601562 9.429688 0.621094 9.417969 0.621094 C 9.40625 0.621094 9.414062 0.648438 9.433594 0.703125 C 9.457031 0.753906 9.460938 0.785156 9.449219 0.796875 C 9.449219 1.257812 9.109375 1.492188 8.425781 1.492188 C 8.351562 1.492188 8.261719 1.492188 8.15625 1.492188 C 8.050781 1.492188 7.976562 1.484375 7.9375 1.472656 L 6.988281 1.472656 L 7.066406 1.632812 C 7.257812 2.03125 7.351562 2.480469 7.351562 2.972656 C 7.351562 4.128906 6.929688 5.140625 6.089844 6 C 5.25 6.863281 4.328125 7.296875 3.328125 7.296875 Z M 6.121094 2.738281 C 6.121094 1.894531 5.675781 1.472656 4.78125 1.472656 C 3.476562 1.472656 2.628906 2.390625 2.242188 4.21875 C 2.230469 4.261719 2.226562 4.292969 2.226562 4.3125 C 2.140625 4.703125 2.097656 5.023438 2.097656 5.277344 C 2.097656 5.800781 2.230469 6.171875 2.492188 6.378906 C 2.757812 6.589844 3.054688 6.699219 3.394531 6.710938 C 3.960938 6.710938 4.480469 6.464844 4.953125 5.96875 C 5.257812 5.65625 5.507812 5.234375 5.695312 4.707031 C 5.886719 4.183594 6 3.761719 6.042969 3.445312 C 6.085938 3.128906 6.109375 2.894531 6.121094 2.738281 Z M 6.121094 2.738281 " fill-opacity="1" fill-rule="nonzero"/></g><g clip-path="url(#bfb3ae03bb)"><path fill="#000000" d="M 13.265625 2.839844 C 13.265625 2.609375 13.34375 2.433594 13.5 2.304688 C 13.65625 2.179688 13.816406 2.117188 13.980469 2.117188 C 14.105469 2.117188 14.210938 2.152344 14.292969 2.226562 C 14.375 2.300781 14.425781 2.40625 14.449219 2.539062 C 14.449219 2.75 14.378906 2.921875 14.238281 3.0625 C 14.097656 3.207031 13.933594 3.277344 13.746094 3.277344 C 13.613281 3.277344 13.5 3.238281 13.410156 3.164062 C 13.324219 3.089844 13.273438 2.980469 13.265625 2.839844 Z M 13.167969 5.292969 C 13.167969 5.078125 13.070312 4.972656 12.875 4.972656 C 12.714844 4.972656 12.558594 5.015625 12.410156 5.105469 C 12.257812 5.195312 12.128906 5.308594 12.019531 5.449219 C 11.90625 5.59375 11.816406 5.730469 11.75 5.863281 C 11.683594 5.996094 11.621094 6.117188 11.5625 6.21875 L 11.484375 6.375 C 11.46875 6.382812 11.410156 6.386719 11.304688 6.386719 L 11.148438 6.386719 C 11.101562 6.34375 11.082031 6.3125 11.082031 6.296875 C 11.082031 6.285156 11.097656 6.234375 11.125 6.152344 C 11.28125 5.789062 11.5 5.445312 11.785156 5.128906 C 12.066406 4.808594 12.394531 4.621094 12.765625 4.570312 C 12.773438 4.570312 12.800781 4.570312 12.855469 4.570312 C 12.90625 4.570312 12.949219 4.566406 12.988281 4.558594 C 13.167969 4.566406 13.332031 4.601562 13.480469 4.671875 C 13.664062 4.773438 13.804688 4.890625 13.902344 5.015625 C 14 5.140625 14.046875 5.339844 14.046875 5.605469 L 14.046875 5.785156 L 13.5 8.003906 C 13.121094 9.492188 12.921875 10.265625 12.898438 10.324219 C 12.765625 10.695312 12.503906 11.027344 12.117188 11.316406 C 11.730469 11.605469 11.289062 11.753906 10.792969 11.761719 C 10.417969 11.761719 10.167969 11.683594 10.03125 11.527344 C 9.898438 11.371094 9.828125 11.203125 9.820312 11.015625 C 9.820312 10.816406 9.890625 10.644531 10.03125 10.503906 C 10.175781 10.363281 10.34375 10.289062 10.546875 10.28125 C 10.671875 10.28125 10.78125 10.316406 10.871094 10.390625 C 10.957031 10.464844 11.007812 10.582031 11.015625 10.738281 C 11.015625 11.003906 10.894531 11.210938 10.65625 11.351562 C 10.703125 11.359375 10.753906 11.363281 10.8125 11.363281 C 11.066406 11.363281 11.296875 11.257812 11.503906 11.050781 C 11.714844 10.839844 11.871094 10.59375 11.984375 10.3125 L 12.105469 9.84375 C 12.1875 9.523438 12.285156 9.136719 12.398438 8.683594 C 12.507812 8.230469 12.628906 7.765625 12.753906 7.289062 C 12.878906 6.816406 12.980469 6.402344 13.054688 6.054688 C 13.128906 5.703125 13.171875 5.492188 13.179688 5.417969 C 13.179688 5.363281 13.175781 5.324219 13.167969 5.292969 Z M 13.167969 5.292969 " fill-opacity="1" fill-rule="nonzero"/></g></g></g><g clip-path="url(#aa789a3121)"><path stroke-linecap="butt" transform="matrix(0.75, 0, 0, 0.75, 292.991036, 193.553337)" fill="none" stroke-linejoin="miter" d="M 0.00153485 0.00180081 L 503.569276 0.00180081 L 503.569276 90.829932 L 0.00153485 90.829932 Z M 0.00153485 0.00180081 " stroke="#ff3131" stroke-width="8" stroke-opacity="1" stroke-miterlimit="4"/></g><g transform="matrix(1, 0, 0, 1, 321, 221)"><g clip-path="url(#8e0fb8ce6b)"><g clip-path="url(#acba490667)"><path fill="#000000" d="M 3.496094 7.867188 C 2.78125 7.867188 2.203125 7.632812 1.761719 7.160156 C 1.320312 6.683594 1.09375 6.089844 1.082031 5.375 C 1.082031 4.324219 1.464844 3.347656 2.234375 2.441406 C 3 1.539062 3.894531 1.027344 4.914062 0.910156 C 4.925781 0.902344 5.664062 0.894531 7.125 0.894531 L 9.300781 0.894531 C 9.3125 0.90625 9.328125 0.917969 9.347656 0.925781 C 9.371094 0.9375 9.390625 0.949219 9.410156 0.960938 C 9.433594 0.96875 9.449219 0.980469 9.457031 0.992188 C 9.46875 1 9.484375 1.015625 9.507812 1.039062 C 9.527344 1.058594 9.539062 1.070312 9.539062 1.070312 C 9.539062 1.070312 9.546875 1.089844 9.570312 1.132812 C 9.589844 1.175781 9.59375 1.195312 9.585938 1.195312 C 9.574219 1.195312 9.578125 1.222656 9.601562 1.273438 C 9.621094 1.328125 9.625 1.359375 9.617188 1.371094 C 9.617188 1.832031 9.273438 2.0625 8.589844 2.0625 C 8.515625 2.0625 8.429688 2.0625 8.324219 2.0625 C 8.21875 2.0625 8.144531 2.058594 8.101562 2.046875 L 7.15625 2.046875 L 7.234375 2.207031 C 7.421875 2.605469 7.519531 3.050781 7.519531 3.546875 C 7.519531 4.703125 7.097656 5.710938 6.257812 6.574219 C 5.414062 7.4375 4.496094 7.867188 3.496094 7.867188 Z M 6.289062 3.308594 C 6.289062 2.46875 5.839844 2.046875 4.945312 2.046875 C 3.644531 2.046875 2.796875 2.960938 2.40625 4.792969 C 2.398438 4.835938 2.390625 4.867188 2.390625 4.886719 C 2.308594 5.277344 2.265625 5.597656 2.265625 5.847656 C 2.265625 6.375 2.398438 6.742188 2.660156 6.953125 C 2.921875 7.164062 3.222656 7.273438 3.558594 7.285156 C 4.125 7.285156 4.648438 7.039062 5.121094 6.542969 C 5.425781 6.226562 5.671875 5.808594 5.863281 5.28125 C 6.050781 4.753906 6.167969 4.335938 6.210938 4.019531 C 6.25 3.703125 6.277344 3.46875 6.289062 3.308594 Z M 6.289062 3.308594 " fill-opacity="1" fill-rule="nonzero"/></g><g clip-path="url(#6c402d696e)"><path fill="#000000" d="M 13.433594 3.414062 C 13.433594 3.183594 13.511719 3.003906 13.667969 2.878906 C 13.824219 2.753906 13.984375 2.6875 14.148438 2.6875 C 14.273438 2.6875 14.378906 2.726562 14.460938 2.800781 C 14.542969 2.875 14.59375 2.980469 14.617188 3.113281 C 14.617188 3.320312 14.546875 3.496094 14.402344 3.636719 C 14.261719 3.777344 14.097656 3.847656 13.914062 3.847656 C 13.777344 3.847656 13.667969 3.8125 13.578125 3.738281 C 13.488281 3.664062 13.441406 3.554688 13.433594 3.414062 Z M 13.332031 5.867188 C 13.332031 5.652344 13.238281 5.542969 13.042969 5.542969 C 12.878906 5.542969 12.722656 5.589844 12.574219 5.679688 C 12.425781 5.765625 12.296875 5.882812 12.183594 6.023438 C 12.074219 6.164062 11.984375 6.300781 11.917969 6.4375 C 11.851562 6.570312 11.785156 6.6875 11.726562 6.792969 L 11.648438 6.949219 C 11.632812 6.957031 11.574219 6.960938 11.46875 6.960938 L 11.316406 6.960938 C 11.269531 6.914062 11.246094 6.886719 11.246094 6.871094 C 11.246094 6.855469 11.261719 6.808594 11.292969 6.726562 C 11.449219 6.363281 11.667969 6.019531 11.949219 5.699219 C 12.234375 5.378906 12.558594 5.195312 12.929688 5.144531 C 12.9375 5.144531 12.96875 5.144531 13.019531 5.144531 C 13.074219 5.144531 13.117188 5.140625 13.15625 5.132812 C 13.332031 5.140625 13.496094 5.175781 13.644531 5.242188 C 13.832031 5.347656 13.972656 5.460938 14.070312 5.589844 C 14.164062 5.714844 14.214844 5.914062 14.214844 6.179688 L 14.214844 6.359375 L 13.667969 8.578125 C 13.289062 10.066406 13.085938 10.839844 13.066406 10.898438 C 12.929688 11.269531 12.671875 11.601562 12.285156 11.890625 C 11.898438 12.179688 11.457031 12.328125 10.957031 12.335938 C 10.585938 12.335938 10.332031 12.257812 10.199219 12.101562 C 10.066406 11.945312 9.996094 11.773438 9.988281 11.589844 C 9.988281 11.386719 10.058594 11.21875 10.199219 11.074219 C 10.339844 10.933594 10.511719 10.859375 10.710938 10.851562 C 10.839844 10.851562 10.945312 10.890625 11.035156 10.964844 C 11.125 11.039062 11.171875 11.152344 11.179688 11.308594 C 11.179688 11.578125 11.0625 11.78125 10.824219 11.921875 C 10.867188 11.929688 10.921875 11.933594 10.980469 11.933594 C 11.234375 11.933594 11.464844 11.832031 11.671875 11.621094 C 11.878906 11.414062 12.039062 11.167969 12.152344 10.886719 L 12.273438 10.417969 C 12.355469 10.097656 12.453125 9.710938 12.5625 9.257812 C 12.675781 8.804688 12.792969 8.339844 12.921875 7.863281 C 13.046875 7.386719 13.148438 6.976562 13.222656 6.625 C 13.296875 6.277344 13.335938 6.066406 13.34375 5.992188 C 13.34375 5.9375 13.339844 5.898438 13.332031 5.867188 Z M 13.332031 5.867188 " fill-opacity="1" fill-rule="nonzero"/></g></g></g><g clip-path="url(#3799cabe6a)"><path stroke-linecap="butt" transform="matrix(0.75, 0, 0, 0.75, 234.903319, 209.094946)" fill="none" stroke-linejoin="miter" d="M -0.00130083 -0.00159503 L 49.373699 -0.00159503 L 49.373699 49.373405 L -0.00130083 49.373405 Z M -0.00130083 -0.00159503 " stroke="#000000" stroke-width="8" stroke-opacity="1" stroke-miterlimit="4"/></g><g clip-path="url(#15b5ca4cfc)"><path stroke-linecap="butt" transform="matrix(0.75, 0, 0, 0.75, 310.52832, 209.094946)" fill="none" stroke-linejoin="miter" d="M -0.00130168 -0.00159503 L 49.373698 -0.00159503 L 49.373698 49.373405 L -0.00130168 49.373405 Z M -0.00130168 -0.00159503 " stroke="#000000" stroke-width="8" stroke-opacity="1" stroke-miterlimit="4"/></g><g clip-path="url(#1349d47820)"><path stroke-linecap="butt" transform="matrix(0.75, 0, 0, 0.75, 159.278321, 85.868198)" fill="none" stroke-linejoin="miter" d="M -0.00130319 -0.00134675 L 49.373697 -0.00134675 L 49.373697 49.373653 L -0.00130319 49.373653 Z M -0.00130319 -0.00134675 " stroke="#000000" stroke-width="8" stroke-opacity="1" stroke-miterlimit="4"/></g><g clip-path="url(#a1506adffc)"><path stroke-linecap="butt" transform="matrix(0.75, 0, 0, 0.75, 159.278321, 209.094946)" fill="none" stroke-linejoin="miter" d="M -0.00130319 -0.00159503 L 49.373697 -0.00159503 L 49.373697 49.373405 L -0.00130319 49.373405 Z M -0.00130319 -0.00159503 " stroke="#000000" stroke-width="8" stroke-opacity="1" stroke-miterlimit="4"/></g><g clip-path="url(#188b9c29a8)"><path stroke-linecap="butt" transform="matrix(0.75, 0, 0, 0.75, 234.903319, 85.868198)" fill="none" stroke-linejoin="miter" d="M -0.00130083 -0.00134675 L 49.373699 -0.00134675 L 49.373699 49.373653 L -0.00130083 49.373653 Z M -0.00130083 -0.00134675 " stroke="#000000" stroke-width="8" stroke-opacity="1" stroke-miterlimit="4"/></g><g clip-path="url(#e253a2724a)"><path stroke-linecap="butt" transform="matrix(0.75, 0, 0, 0.75, 386.153364, 209.094946)" fill="none" stroke-linejoin="miter" d="M -0.00136012 -0.00159503 L 49.37364 -0.00159503 L 49.37364 49.373405 L -0.00136012 49.373405 Z M -0.00136012 -0.00159503 " stroke="#000000" stroke-width="8" stroke-opacity="1" stroke-miterlimit="4"/></g><g clip-path="url(#39ab29f3bb)"><path stroke-linecap="butt" transform="matrix(0.75, 0, 0, 0.75, 537.070104, 209.094946)" fill="none" stroke-linejoin="miter" d="M 0.000278623 -0.00159503 L 49.375279 -0.00159503 L 49.375279 49.373405 L 0.000278623 49.373405 Z M 0.000278623 -0.00159503 " stroke="#000000" stroke-width="8" stroke-opacity="1" stroke-miterlimit="4"/></g><g clip-path="url(#b195529e62)"><path stroke-linecap="butt" transform="matrix(0.75, 0, 0, 0.75, 612.361915, 209.094946)" fill="none" stroke-linejoin="miter" d="M 0.00182222 -0.00159503 L 49.376822 -0.00159503 L 49.376822 49.373405 L 0.00182222 49.373405 Z M 0.00182222 -0.00159503 " stroke="#000000" stroke-width="8" stroke-opacity="1" stroke-miterlimit="4"/></g><g clip-path="url(#17f9e215ef)"><path stroke-linecap="butt" transform="matrix(0.75, 0, 0, 0.75, 687.65363, 85.868198)" fill="none" stroke-linejoin="miter" d="M -0.00171453 -0.00134675 L 49.373286 -0.00134675 L 49.373286 49.373653 L -0.00171453 49.373653 Z M -0.00171453 -0.00134675 " stroke="#000000" stroke-width="8" stroke-opacity="1" stroke-miterlimit="4"/></g><g clip-path="url(#bd7208ae87)"><path stroke-linecap="butt" transform="matrix(0.75, 0, 0, 0.75, 687.65363, 209.094946)" fill="none" stroke-linejoin="miter" d="M -0.00171453 -0.00159503 L 49.373286 -0.00159503 L 49.373286 49.373405 L -0.00171453 49.373405 Z M -0.00171453 -0.00159503 " stroke="#000000" stroke-width="8" stroke-opacity="1" stroke-miterlimit="4"/></g><g clip-path="url(#51a7833fbd)"><path stroke-linecap="butt" transform="matrix(0.75, 0, 0, 0.75, 762.945441, 85.868198)" fill="none" stroke-linejoin="miter" d="M -0.000170933 -0.00134675 L 49.374829 -0.00134675 L 49.374829 49.373653 L -0.000170933 49.373653 Z M -0.000170933 -0.00134675 " stroke="#000000" stroke-width="8" stroke-opacity="1" stroke-miterlimit="4"/></g><g clip-path="url(#64ae54b8ca)"><path stroke-linecap="butt" transform="matrix(0.75, 0, 0, 0.75, 762.945441, 209.094946)" fill="none" stroke-linejoin="miter" d="M -0.000170933 -0.00159503 L 49.374829 -0.00159503 L 49.374829 49.373405 L -0.000170933 49.373405 Z M -0.000170933 -0.00159503 " stroke="#000000" stroke-width="8" stroke-opacity="1" stroke-miterlimit="4"/></g><g fill="#000000" fill-opacity="1"><g transform="translate(468.102244, 110.015273)"><g><path d="M 4.078125 -2.90625 C 4.535156 -2.90625 4.925781 -2.742188 5.25 -2.421875 C 5.570312 -2.109375 5.734375 -1.722656 5.734375 -1.265625 C 5.734375 -0.796875 5.570312 -0.394531 5.25 -0.0625 C 4.925781 0.257812 4.535156 0.421875 4.078125 0.421875 C 3.617188 0.421875 3.222656 0.257812 2.890625 -0.0625 C 2.566406 -0.394531 2.40625 -0.796875 2.40625 -1.265625 C 2.40625 -1.722656 2.566406 -2.109375 2.890625 -2.421875 C 3.222656 -2.742188 3.617188 -2.90625 4.078125 -2.90625 Z M 4.078125 -2.90625 "/></g></g></g><g fill="#000000" fill-opacity="1"><g transform="translate(476.229082, 110.015273)"><g><path d="M 4.078125 -2.90625 C 4.535156 -2.90625 4.925781 -2.742188 5.25 -2.421875 C 5.570312 -2.109375 5.734375 -1.722656 5.734375 -1.265625 C 5.734375 -0.796875 5.570312 -0.394531 5.25 -0.0625 C 4.925781 0.257812 4.535156 0.421875 4.078125 0.421875 C 3.617188 0.421875 3.222656 0.257812 2.890625 -0.0625 C 2.566406 -0.394531 2.40625 -0.796875 2.40625 -1.265625 C 2.40625 -1.722656 2.566406 -2.109375 2.890625 -2.421875 C 3.222656 -2.742188 3.617188 -2.90625 4.078125 -2.90625 Z M 4.078125 -2.90625 "/></g></g></g><g fill="#000000" fill-opacity="1"><g transform="translate(484.35592, 110.015273)"><g><path d="M 4.078125 -2.90625 C 4.535156 -2.90625 4.925781 -2.742188 5.25 -2.421875 C 5.570312 -2.109375 5.734375 -1.722656 5.734375 -1.265625 C 5.734375 -0.796875 5.570312 -0.394531 5.25 -0.0625 C 4.925781 0.257812 4.535156 0.421875 4.078125 0.421875 C 3.617188 0.421875 3.222656 0.257812 2.890625 -0.0625 C 2.566406 -0.394531 2.40625 -0.796875 2.40625 -1.265625 C 2.40625 -1.722656 2.566406 -2.109375 2.890625 -2.421875 C 3.222656 -2.742188 3.617188 -2.90625 4.078125 -2.90625 Z M 4.078125 -2.90625 "/></g></g></g><g fill="#000000" fill-opacity="1"><g transform="translate(809.913006, 110.015273)"><g><path d="M 4.078125 -2.90625 C 4.535156 -2.90625 4.925781 -2.742188 5.25 -2.421875 C 5.570312 -2.109375 5.734375 -1.722656 5.734375 -1.265625 C 5.734375 -0.796875 5.570312 -0.394531 5.25 -0.0625 C 4.925781 0.257812 4.535156 0.421875 4.078125 0.421875 C 3.617188 0.421875 3.222656 0.257812 2.890625 -0.0625 C 2.566406 -0.394531 2.40625 -0.796875 2.40625 -1.265625 C 2.40625 -1.722656 2.566406 -2.109375 2.890625 -2.421875 C 3.222656 -2.742188 3.617188 -2.90625 4.078125 -2.90625 Z M 4.078125 -2.90625 "/></g></g></g><g fill="#000000" fill-opacity="1"><g transform="translate(818.039844, 110.015273)"><g><path d="M 4.078125 -2.90625 C 4.535156 -2.90625 4.925781 -2.742188 5.25 -2.421875 C 5.570312 -2.109375 5.734375 -1.722656 5.734375 -1.265625 C 5.734375 -0.796875 5.570312 -0.394531 5.25 -0.0625 C 4.925781 0.257812 4.535156 0.421875 4.078125 0.421875 C 3.617188 0.421875 3.222656 0.257812 2.890625 -0.0625 C 2.566406 -0.394531 2.40625 -0.796875 2.40625 -1.265625 C 2.40625 -1.722656 2.566406 -2.109375 2.890625 -2.421875 C 3.222656 -2.742188 3.617188 -2.90625 4.078125 -2.90625 Z M 4.078125 -2.90625 "/></g></g></g><g fill="#000000" fill-opacity="1"><g transform="translate(826.166682, 110.015273)"><g><path d="M 4.078125 -2.90625 C 4.535156 -2.90625 4.925781 -2.742188 5.25 -2.421875 C 5.570312 -2.109375 5.734375 -1.722656 5.734375 -1.265625 C 5.734375 -0.796875 5.570312 -0.394531 5.25 -0.0625 C 4.925781 0.257812 4.535156 0.421875 4.078125 0.421875 C 3.617188 0.421875 3.222656 0.257812 2.890625 -0.0625 C 2.566406 -0.394531 2.40625 -0.796875 2.40625 -1.265625 C 2.40625 -1.722656 2.566406 -2.109375 2.890625 -2.421875 C 3.222656 -2.742188 3.617188 -2.90625 4.078125 -2.90625 Z M 4.078125 -2.90625 "/></g></g></g><g fill="#000000" fill-opacity="1"><g transform="translate(809.913006, 233.242045)"><g><path d="M 4.078125 -2.90625 C 4.535156 -2.90625 4.925781 -2.742188 5.25 -2.421875 C 5.570312 -2.109375 5.734375 -1.722656 5.734375 -1.265625 C 5.734375 -0.796875 5.570312 -0.394531 5.25 -0.0625 C 4.925781 0.257812 4.535156 0.421875 4.078125 0.421875 C 3.617188 0.421875 3.222656 0.257812 2.890625 -0.0625 C 2.566406 -0.394531 2.40625 -0.796875 2.40625 -1.265625 C 2.40625 -1.722656 2.566406 -2.109375 2.890625 -2.421875 C 3.222656 -2.742188 3.617188 -2.90625 4.078125 -2.90625 Z M 4.078125 -2.90625 "/></g></g></g><g fill="#000000" fill-opacity="1"><g transform="translate(818.039844, 233.242045)"><g><path d="M 4.078125 -2.90625 C 4.535156 -2.90625 4.925781 -2.742188 5.25 -2.421875 C 5.570312 -2.109375 5.734375 -1.722656 5.734375 -1.265625 C 5.734375 -0.796875 5.570312 -0.394531 5.25 -0.0625 C 4.925781 0.257812 4.535156 0.421875 4.078125 0.421875 C 3.617188 0.421875 3.222656 0.257812 2.890625 -0.0625 C 2.566406 -0.394531 2.40625 -0.796875 2.40625 -1.265625 C 2.40625 -1.722656 2.566406 -2.109375 2.890625 -2.421875 C 3.222656 -2.742188 3.617188 -2.90625 4.078125 -2.90625 Z M 4.078125 -2.90625 "/></g></g></g><g fill="#000000" fill-opacity="1"><g transform="translate(826.166682, 233.242045)"><g><path d="M 4.078125 -2.90625 C 4.535156 -2.90625 4.925781 -2.742188 5.25 -2.421875 C 5.570312 -2.109375 5.734375 -1.722656 5.734375 -1.265625 C 5.734375 -0.796875 5.570312 -0.394531 5.25 -0.0625 C 4.925781 0.257812 4.535156 0.421875 4.078125 0.421875 C 3.617188 0.421875 3.222656 0.257812 2.890625 -0.0625 C 2.566406 -0.394531 2.40625 -0.796875 2.40625 -1.265625 C 2.40625 -1.722656 2.566406 -2.109375 2.890625 -2.421875 C 3.222656 -2.742188 3.617188 -2.90625 4.078125 -2.90625 Z M 4.078125 -2.90625 "/></g></g></g><g fill="#000000" fill-opacity="1"><g transform="translate(468.102244, 233.242045)"><g><path d="M 4.078125 -2.90625 C 4.535156 -2.90625 4.925781 -2.742188 5.25 -2.421875 C 5.570312 -2.109375 5.734375 -1.722656 5.734375 -1.265625 C 5.734375 -0.796875 5.570312 -0.394531 5.25 -0.0625 C 4.925781 0.257812 4.535156 0.421875 4.078125 0.421875 C 3.617188 0.421875 3.222656 0.257812 2.890625 -0.0625 C 2.566406 -0.394531 2.40625 -0.796875 2.40625 -1.265625 C 2.40625 -1.722656 2.566406 -2.109375 2.890625 -2.421875 C 3.222656 -2.742188 3.617188 -2.90625 4.078125 -2.90625 Z M 4.078125 -2.90625 "/></g></g></g><g fill="#000000" fill-opacity="1"><g transform="translate(476.229082, 233.242045)"><g><path d="M 4.078125 -2.90625 C 4.535156 -2.90625 4.925781 -2.742188 5.25 -2.421875 C 5.570312 -2.109375 5.734375 -1.722656 5.734375 -1.265625 C 5.734375 -0.796875 5.570312 -0.394531 5.25 -0.0625 C 4.925781 0.257812 4.535156 0.421875 4.078125 0.421875 C 3.617188 0.421875 3.222656 0.257812 2.890625 -0.0625 C 2.566406 -0.394531 2.40625 -0.796875 2.40625 -1.265625 C 2.40625 -1.722656 2.566406 -2.109375 2.890625 -2.421875 C 3.222656 -2.742188 3.617188 -2.90625 4.078125 -2.90625 Z M 4.078125 -2.90625 "/></g></g></g><g fill="#000000" fill-opacity="1"><g transform="translate(484.35592, 233.242045)"><g><path d="M 4.078125 -2.90625 C 4.535156 -2.90625 4.925781 -2.742188 5.25 -2.421875 C 5.570312 -2.109375 5.734375 -1.722656 5.734375 -1.265625 C 5.734375 -0.796875 5.570312 -0.394531 5.25 -0.0625 C 4.925781 0.257812 4.535156 0.421875 4.078125 0.421875 C 3.617188 0.421875 3.222656 0.257812 2.890625 -0.0625 C 2.566406 -0.394531 2.40625 -0.796875 2.40625 -1.265625 C 2.40625 -1.722656 2.566406 -2.109375 2.890625 -2.421875 C 3.222656 -2.742188 3.617188 -2.90625 4.078125 -2.90625 Z M 4.078125 -2.90625 "/></g></g></g><g clip-path="url(#cc86b2036c)"><g clip-path="url(#e852dc69c7)"><path stroke-linecap="butt" transform="matrix(0.75, 0, 0, 0.75, 427.548439, 141.478263)" fill="none" stroke-linejoin="miter" d="M 29.935417 65.388362 L -0.00208497 32.695652 L 16.346874 32.695652 L 16.346874 -0.00226695 L 43.52396 -0.00226695 L 43.52396 32.695652 L 59.867711 32.695652 Z M 29.935417 65.388362 " stroke="#000000" stroke-width="8" stroke-opacity="1" stroke-miterlimit="4"/></g></g></svg>