<svg xmlns="http://www.w3.org/2000/svg" xmlns:xlink="http://www.w3.org/1999/xlink" preserveAspectRatio="xMidYMid meet" version="1.0" viewBox="197.55 58.95 419.48 262.1" zoomAndPan="magnify"><defs><clipPath id="576c61c5b8"><path d="M 1 0.898438 L 19 0.898438 L 19 20 L 1 20 Z M 1 0.898438" clip-rule="nonzero"/></clipPath><clipPath id="46c76bfc9e"><path d="M 22 5 L 33 5 L 33 25.128906 L 22 25.128906 Z M 22 5" clip-rule="nonzero"/></clipPath><clipPath id="97aae046fe"><rect width="38" height="26" x="0" y="0"/></clipPath><clipPath id="6b337c7211"><path d="M 1 0.125 L 19 0.125 L 19 19 L 1 19 Z M 1 0.125" clip-rule="nonzero"/></clipPath><clipPath id="8dbb765420"><path d="M 21 5 L 34 5 L 34 24.355469 L 21 24.355469 Z M 21 5" clip-rule="nonzero"/></clipPath><clipPath id="08ec3dbdc2"><rect width="38" height="25" x="0" y="0"/></clipPath><clipPath id="bd44407570"><path d="M 89 13 L 111 13 L 111 39.046875 L 89 39.046875 Z M 89 13" clip-rule="nonzero"/></clipPath><clipPath id="900930b16c"><path d="M 128 1.011719 L 140 1.011719 L 140 14 L 128 14 Z M 128 1.011719" clip-rule="nonzero"/></clipPath><clipPath id="756ec843a0"><rect width="144" height="40" x="0" y="0"/></clipPath><clipPath id="fa73c6edda"><path d="M 482.828125 78.492188 L 519.578125 78.492188 L 519.578125 115.242188 L 482.828125 115.242188 Z M 482.828125 78.492188" clip-rule="nonzero"/></clipPath><clipPath id="ab85beee34"><path d="M 407.203125 78.492188 L 443.953125 78.492188 L 443.953125 115.242188 L 407.203125 115.242188 Z M 407.203125 78.492188" clip-rule="nonzero"/></clipPath><clipPath id="b1f8c95e3e"><path d="M 1 0.769531 L 10 0.769531 L 10 21.257812 L 1 21.257812 Z M 1 0.769531" clip-rule="nonzero"/></clipPath><clipPath id="d818ffd4c2"><rect width="12" height="22" x="0" y="0"/></clipPath><clipPath id="e49ded5ae3"><path d="M 331.578125 201.71875 L 368.328125 201.71875 L 368.328125 238.46875 L 331.578125 238.46875 Z M 331.578125 201.71875" clip-rule="nonzero"/></clipPath><clipPath id="6c1e4a449b"><path d="M 1 5 L 10 5 L 10 25.808594 L 1 25.808594 Z M 1 5" clip-rule="nonzero"/></clipPath><clipPath id="16217ae9d2"><path d="M 12 0.671875 L 18 0.671875 L 18 12 L 12 12 Z M 12 0.671875" clip-rule="nonzero"/></clipPath><clipPath id="d1c73721cd"><rect width="20" height="27" x="0" y="0"/></clipPath><clipPath id="3088e601b1"><path d="M 407.203125 201.71875 L 443.953125 201.71875 L 443.953125 238.46875 L 407.203125 238.46875 Z M 407.203125 201.71875" clip-rule="nonzero"/></clipPath><clipPath id="57a064d95f"><path d="M 255.953125 78.492188 L 292.703125 78.492188 L 292.703125 115.242188 L 255.953125 115.242188 Z M 255.953125 78.492188" clip-rule="nonzero"/></clipPath><clipPath id="2e054a5724"><path d="M 255.953125 201.71875 L 292.703125 201.71875 L 292.703125 238.46875 L 255.953125 238.46875 Z M 255.953125 201.71875" clip-rule="nonzero"/></clipPath><clipPath id="046feddac0"><path d="M 331.578125 78.492188 L 368.328125 78.492188 L 368.328125 115.242188 L 331.578125 115.242188 Z M 331.578125 78.492188" clip-rule="nonzero"/></clipPath><clipPath id="747f72483e"><path d="M 482.828125 201.71875 L 519.578125 201.71875 L 519.578125 238.46875 L 482.828125 238.46875 Z M 482.828125 201.71875" clip-rule="nonzero"/></clipPath><clipPath id="876af0a243"><path d="M 558.453125 78.492188 L 595.203125 78.492188 L 595.203125 115.242188 L 558.453125 115.242188 Z M 558.453125 78.492188" clip-rule="nonzero"/></clipPath><clipPath id="e994b490d9"><path d="M 558.453125 201.71875 L 595.203125 201.71875 L 595.203125 238.46875 L 558.453125 238.46875 Z M 558.453125 201.71875" clip-rule="nonzero"/></clipPath><clipPath id="3ed61aed11"><path d="M 389.660156 62.949219 L 613.03125 62.949219 L 613.03125 131.070312 L 389.660156 131.070312 Z M 389.660156 62.949219" clip-rule="nonzero"/></clipPath><clipPath id="71257f7ea8"><path d="M 316.25 186.179688 L 613.027344 186.179688 L 613.027344 254.300781 L 316.25 254.300781 Z M 316.25 186.179688" clip-rule="nonzero"/></clipPath><clipPath id="ec040ba2ef"><path d="M 431 130 L 482 130 L 482 186 L 431 186 Z M 431 130" clip-rule="nonzero"/></clipPath><clipPath id="c4c2523530"><path d="M 469.820312 120.28125 L 492.769531 140.75 L 443.34375 196.160156 L 420.394531 175.691406 Z M 469.820312 120.28125" clip-rule="nonzero"/></clipPath><clipPath id="58f8ce5853"><path d="M 469.816406 120.285156 L 492.582031 140.59375 L 442.882812 196.308594 L 420.117188 176.003906 Z M 469.816406 120.285156" clip-rule="nonzero"/></clipPath><clipPath id="a3076a3dee"><path d="M 431.9375 162.753906 L 431.78125 185.742188 L 454.605469 182.972656 L 448.3125 177.359375 L 474.703125 147.773438 L 480.996094 153.386719 L 481.152344 130.394531 L 458.328125 133.164062 L 464.617188 138.777344 L 438.226562 168.363281 Z M 431.9375 162.753906" clip-rule="nonzero"/></clipPath></defs><g><g clip-path="url(#97aae046fe)" transform="matrix(1, 0, 0, 1, 196, 84)"><g clip-path="url(#576c61c5b8)"><path fill="#000" fill-opacity="1" fill-rule="nonzero" d="M 1.554688 7.242188 C 1.582031 7.160156 1.609375 7.050781 1.636719 6.914062 C 1.664062 6.777344 1.730469 6.476562 1.839844 6.015625 C 1.949219 5.550781 2.085938 5.128906 2.25 4.746094 C 2.414062 4.363281 2.617188 3.914062 2.863281 3.394531 C 3.109375 2.875 3.382812 2.46875 3.683594 2.167969 C 3.980469 1.867188 4.335938 1.566406 4.746094 1.265625 C 5.15625 0.964844 5.605469 0.84375 6.097656 0.898438 C 6.886719 0.898438 7.585938 1.0625 8.183594 1.390625 C 8.785156 1.71875 9.207031 2.015625 9.453125 2.289062 C 9.699219 2.5625 9.847656 2.835938 9.902344 3.109375 C 9.957031 3.273438 10 3.355469 10.027344 3.355469 C 10.054688 3.355469 10.164062 3.257812 10.355469 3.066406 C 11.664062 1.648438 13.179688 0.9375 14.898438 0.9375 L 15.019531 0.9375 C 16.328125 0.9375 17.3125 1.5 17.96875 2.617188 C 18.183594 3.136719 18.292969 3.640625 18.292969 4.132812 C 18.292969 4.949219 18.117188 5.605469 17.761719 6.097656 C 17.40625 6.585938 17.054688 6.902344 16.699219 7.039062 C 16.34375 7.175781 16.003906 7.230469 15.675781 7.203125 C 15.128906 7.203125 14.691406 7.050781 14.363281 6.75 C 14.039062 6.449219 13.875 6.054688 13.875 5.5625 C 13.875 4.253906 14.636719 3.382812 16.164062 2.945312 C 15.566406 2.589844 15.074219 2.414062 14.691406 2.414062 C 13.164062 2.414062 11.757812 3.421875 10.476562 5.441406 C 10.203125 5.878906 10 6.328125 9.863281 6.792969 C 9.726562 7.257812 9.261719 9.070312 8.472656 12.234375 C 7.542969 16.054688 7.011719 18.089844 6.875 18.335938 C 6.519531 19.070312 5.933594 19.441406 5.113281 19.441406 C 4.761719 19.441406 4.472656 19.359375 4.253906 19.195312 C 4.035156 19.03125 3.886719 18.867188 3.804688 18.703125 C 3.722656 18.539062 3.695312 18.402344 3.722656 18.292969 C 3.722656 17.9375 4.269531 15.59375 5.359375 11.253906 C 6.453125 6.914062 6.996094 4.5 6.996094 4.007812 C 6.996094 2.945312 6.644531 2.414062 5.933594 2.414062 C 5.359375 2.414062 4.871094 2.792969 4.460938 3.558594 C 4.050781 4.324219 3.722656 5.15625 3.476562 6.054688 C 3.230469 6.957031 3.082031 7.445312 3.027344 7.527344 C 2.972656 7.582031 2.753906 7.609375 2.371094 7.609375 L 1.800781 7.609375 C 1.636719 7.445312 1.554688 7.324219 1.554688 7.242188 Z M 1.554688 7.242188"/></g><g clip-path="url(#46c76bfc9e)"><path fill="#000" fill-opacity="1" fill-rule="nonzero" d="M 26.667969 8.402344 L 26.292969 8.546875 C 26.023438 8.644531 25.636719 8.742188 25.132812 8.835938 C 24.632812 8.933594 24.074219 9 23.457031 9.039062 L 22.90625 9.039062 L 22.90625 7.707031 L 23.457031 7.707031 C 24.363281 7.667969 25.203125 7.523438 25.972656 7.273438 C 26.746094 7.023438 27.285156 6.792969 27.59375 6.578125 C 27.902344 6.367188 28.171875 6.15625 28.40625 5.941406 C 28.441406 5.886719 28.558594 5.855469 28.75 5.855469 C 28.925781 5.855469 29.089844 5.914062 29.242188 6.03125 L 29.242188 14.683594 L 29.273438 23.363281 C 29.40625 23.5 29.523438 23.585938 29.621094 23.625 C 29.714844 23.664062 29.949219 23.703125 30.3125 23.738281 C 30.679688 23.777344 31.277344 23.796875 32.109375 23.796875 L 32.859375 23.796875 L 32.859375 25.128906 L 32.542969 25.128906 C 32.136719 25.070312 30.605469 25.042969 27.941406 25.042969 C 25.316406 25.042969 23.804688 25.070312 23.398438 25.128906 L 23.050781 25.128906 L 23.050781 23.796875 L 23.804688 23.796875 C 24.226562 23.796875 24.59375 23.796875 24.902344 23.796875 C 25.210938 23.796875 25.453125 23.789062 25.625 23.769531 C 25.800781 23.75 25.953125 23.71875 26.089844 23.683594 C 26.222656 23.644531 26.300781 23.625 26.320312 23.625 C 26.339844 23.625 26.398438 23.574219 26.496094 23.480469 C 26.589844 23.382812 26.648438 23.34375 26.667969 23.363281 Z M 26.667969 8.402344"/></g></g></g><g><g clip-path="url(#08ec3dbdc2)" transform="matrix(1, 0, 0, 1, 196, 208)"><g clip-path="url(#6b337c7211)"><path fill="#000" fill-opacity="1" fill-rule="nonzero" d="M 1.554688 6.46875 C 1.582031 6.386719 1.609375 6.277344 1.636719 6.140625 C 1.664062 6.003906 1.730469 5.707031 1.839844 5.242188 C 1.949219 4.777344 2.085938 4.355469 2.25 3.972656 C 2.414062 3.589844 2.617188 3.140625 2.863281 2.621094 C 3.109375 2.101562 3.382812 1.695312 3.683594 1.394531 C 3.980469 1.09375 4.335938 0.792969 4.746094 0.492188 C 5.15625 0.191406 5.605469 0.0703125 6.097656 0.125 C 6.886719 0.125 7.585938 0.289062 8.183594 0.617188 C 8.785156 0.945312 9.207031 1.242188 9.453125 1.515625 C 9.699219 1.789062 9.847656 2.0625 9.902344 2.335938 C 9.957031 2.5 10 2.582031 10.027344 2.582031 C 10.054688 2.582031 10.164062 2.484375 10.355469 2.292969 C 11.664062 0.875 13.179688 0.164062 14.898438 0.164062 L 15.019531 0.164062 C 16.328125 0.164062 17.3125 0.726562 17.96875 1.84375 C 18.183594 2.363281 18.292969 2.867188 18.292969 3.359375 C 18.292969 4.175781 18.117188 4.832031 17.761719 5.324219 C 17.40625 5.8125 17.054688 6.128906 16.699219 6.265625 C 16.34375 6.402344 16.003906 6.457031 15.675781 6.429688 C 15.128906 6.429688 14.691406 6.277344 14.363281 5.976562 C 14.039062 5.679688 13.875 5.28125 13.875 4.792969 C 13.875 3.480469 14.636719 2.609375 16.164062 2.171875 C 15.566406 1.816406 15.074219 1.640625 14.691406 1.640625 C 13.164062 1.640625 11.757812 2.648438 10.476562 4.667969 C 10.203125 5.105469 10 5.554688 9.863281 6.019531 C 9.726562 6.484375 9.261719 8.296875 8.472656 11.460938 C 7.542969 15.28125 7.011719 17.316406 6.875 17.5625 C 6.519531 18.296875 5.933594 18.667969 5.113281 18.667969 C 4.761719 18.667969 4.472656 18.585938 4.253906 18.421875 C 4.035156 18.257812 3.886719 18.09375 3.804688 17.929688 C 3.722656 17.765625 3.695312 17.628906 3.722656 17.519531 C 3.722656 17.164062 4.269531 14.820312 5.359375 10.480469 C 6.453125 6.140625 6.996094 3.726562 6.996094 3.234375 C 6.996094 2.171875 6.644531 1.640625 5.933594 1.640625 C 5.359375 1.640625 4.871094 2.019531 4.460938 2.785156 C 4.050781 3.550781 3.722656 4.382812 3.476562 5.28125 C 3.230469 6.183594 3.082031 6.675781 3.027344 6.753906 C 2.972656 6.808594 2.753906 6.835938 2.371094 6.835938 L 1.800781 6.835938 C 1.636719 6.675781 1.554688 6.550781 1.554688 6.46875 Z M 1.554688 6.46875"/></g><g clip-path="url(#8dbb765420)"><path fill="#000" fill-opacity="1" fill-rule="nonzero" d="M 23.660156 11.941406 C 23.136719 11.941406 22.722656 11.769531 22.414062 11.421875 C 22.105469 11.074219 21.953125 10.648438 21.953125 10.148438 C 21.953125 8.777344 22.460938 7.589844 23.484375 6.589844 C 24.507812 5.585938 25.78125 5.082031 27.304688 5.082031 C 29.058594 5.082031 30.527344 5.625 31.703125 6.703125 C 32.878906 7.785156 33.476562 9.183594 33.496094 10.898438 C 33.496094 11.730469 33.304688 12.519531 32.917969 13.273438 C 32.53125 14.023438 32.070312 14.679688 31.53125 15.242188 C 30.988281 15.800781 30.21875 16.511719 29.214844 17.382812 C 28.519531 17.980469 27.554688 18.867188 26.320312 20.042969 L 24.613281 21.664062 L 26.8125 21.695312 C 29.839844 21.695312 31.453125 21.644531 31.644531 21.546875 C 31.78125 21.511719 32.011719 20.652344 32.339844 18.972656 L 32.339844 18.886719 L 33.496094 18.886719 L 33.496094 18.972656 C 33.476562 19.03125 33.351562 19.910156 33.121094 21.605469 C 32.890625 23.304688 32.746094 24.191406 32.6875 24.269531 L 32.6875 24.355469 L 21.953125 24.355469 L 21.953125 23.457031 C 21.953125 23.324219 22.007812 23.179688 22.125 23.023438 C 22.242188 22.871094 22.53125 22.53125 22.992188 22.011719 C 23.550781 21.394531 24.035156 20.855469 24.441406 20.390625 C 24.613281 20.199219 24.941406 19.839844 25.425781 19.320312 C 25.90625 18.800781 26.234375 18.441406 26.40625 18.25 C 26.582031 18.058594 26.859375 17.738281 27.246094 17.296875 C 27.632812 16.851562 27.902344 16.523438 28.058594 16.3125 C 28.210938 16.097656 28.433594 15.808594 28.722656 15.441406 C 29.011719 15.078125 29.214844 14.769531 29.332031 14.515625 C 29.445312 14.265625 29.589844 13.988281 29.765625 13.675781 C 29.9375 13.367188 30.0625 13.058594 30.140625 12.75 C 30.21875 12.441406 30.285156 12.152344 30.34375 11.882812 C 30.402344 11.613281 30.429688 11.296875 30.429688 10.929688 C 30.429688 9.714844 30.101562 8.660156 29.445312 7.773438 C 28.789062 6.886719 27.855469 6.441406 26.640625 6.441406 C 26.003906 6.441406 25.441406 6.605469 24.960938 6.933594 C 24.480469 7.261719 24.140625 7.582031 23.949219 7.890625 C 23.753906 8.199219 23.660156 8.382812 23.660156 8.441406 C 23.660156 8.460938 23.707031 8.46875 23.804688 8.46875 C 24.152344 8.46875 24.507812 8.605469 24.875 8.875 C 25.242188 9.144531 25.425781 9.585938 25.425781 10.207031 C 25.425781 10.6875 25.269531 11.09375 24.960938 11.421875 C 24.652344 11.75 24.21875 11.921875 23.660156 11.941406 Z M 23.660156 11.941406"/></g></g></g><g><g clip-path="url(#756ec843a0)" transform="matrix(1, 0, 0, 1, 344, 282)"><path fill="#ff3131" fill-opacity="1" fill-rule="nonzero" d="M 5.382812 13.726562 C 4.652344 13.726562 4.070312 13.480469 3.636719 12.992188 C 3.203125 12.507812 2.988281 11.910156 2.988281 11.207031 C 2.988281 9.28125 3.703125 7.613281 5.140625 6.207031 C 6.578125 4.796875 8.367188 4.09375 10.507812 4.09375 C 12.972656 4.09375 15.03125 4.851562 16.683594 6.367188 C 18.335938 7.886719 19.175781 9.851562 19.203125 12.261719 C 19.203125 13.425781 18.933594 14.539062 18.390625 15.59375 C 17.847656 16.652344 17.199219 17.574219 16.441406 18.359375 C 15.683594 19.144531 14.597656 20.148438 13.1875 21.367188 C 12.214844 22.207031 10.859375 23.453125 9.125 25.105469 L 6.726562 27.382812 L 9.816406 27.421875 C 14.070312 27.421875 16.332031 27.355469 16.601562 27.21875 C 16.792969 27.164062 17.117188 25.960938 17.578125 23.601562 L 17.578125 23.480469 L 19.203125 23.480469 L 19.203125 23.601562 C 19.175781 23.683594 19 24.917969 18.675781 27.300781 C 18.351562 29.6875 18.148438 30.933594 18.066406 31.039062 L 18.066406 31.164062 L 2.988281 31.164062 L 2.988281 29.902344 C 2.988281 29.710938 3.066406 29.507812 3.230469 29.292969 C 3.394531 29.074219 3.800781 28.601562 4.449219 27.871094 C 5.234375 27.003906 5.914062 26.246094 6.480469 25.59375 C 6.726562 25.324219 7.1875 24.820312 7.863281 24.089844 C 8.542969 23.359375 9.003906 22.855469 9.246094 22.585938 C 9.488281 22.316406 9.882812 21.867188 10.425781 21.246094 C 10.964844 20.621094 11.347656 20.160156 11.5625 19.863281 C 11.78125 19.566406 12.089844 19.160156 12.496094 18.644531 C 12.902344 18.128906 13.1875 17.695312 13.351562 17.34375 C 13.515625 16.992188 13.71875 16.597656 13.960938 16.164062 C 14.203125 15.730469 14.382812 15.296875 14.488281 14.863281 C 14.597656 14.429688 14.691406 14.023438 14.773438 13.644531 C 14.855469 13.265625 14.894531 12.816406 14.894531 12.300781 C 14.894531 10.59375 14.433594 9.117188 13.515625 7.871094 C 12.59375 6.625 11.277344 6.003906 9.570312 6.003906 C 8.675781 6.003906 7.890625 6.234375 7.214844 6.695312 C 6.535156 7.152344 6.0625 7.601562 5.792969 8.035156 C 5.519531 8.46875 5.382812 8.726562 5.382812 8.808594 C 5.382812 8.835938 5.453125 8.847656 5.589844 8.847656 C 6.074219 8.847656 6.578125 9.039062 7.09375 9.417969 C 7.605469 9.796875 7.863281 10.417969 7.863281 11.285156 C 7.863281 11.964844 7.648438 12.53125 7.214844 12.992188 C 6.78125 13.453125 6.171875 13.699219 5.382812 13.726562 Z M 5.382812 13.726562"/><path fill="#ff3131" fill-opacity="1" fill-rule="nonzero" d="M 33.722656 21.53125 C 33.722656 21.53125 33.722656 21.351562 33.722656 21 C 33.722656 20.648438 33.914062 20.378906 34.292969 20.1875 L 57.90625 20.1875 C 58.3125 20.40625 58.515625 20.675781 58.515625 21 C 58.515625 21.328125 58.3125 21.597656 57.90625 21.8125 L 34.292969 21.8125 C 33.914062 21.625 33.722656 21.351562 33.722656 21 Z M 33.722656 21.53125"/><path fill="#ff3131" fill-opacity="1" fill-rule="nonzero" d="M 79.132812 31.609375 C 77.101562 31.609375 75.460938 30.945312 74.214844 29.617188 C 72.96875 28.289062 72.34375 26.691406 72.34375 24.820312 C 72.34375 23.058594 72.75 21.394531 73.566406 19.824219 C 74.378906 18.25 75.488281 16.882812 76.898438 15.71875 C 78.957031 14.0625 81.058594 13.238281 83.199219 13.238281 C 84.066406 13.238281 84.605469 13.25 84.824219 13.277344 C 85.175781 13.359375 85.527344 13.453125 85.878906 13.5625 C 86.234375 13.671875 86.707031 13.886719 87.304688 14.214844 C 87.898438 14.539062 88.386719 14.945312 88.765625 15.433594 C 89.144531 15.921875 89.496094 16.585938 89.824219 17.425781 C 90.148438 18.265625 90.3125 19.210938 90.3125 20.269531 C 90.3125 23.167969 89.144531 25.785156 86.816406 28.113281 C 84.484375 30.445312 81.925781 31.609375 79.132812 31.609375 Z M 75.882812 26.285156 C 75.882812 27.640625 76.234375 28.617188 76.9375 29.210938 C 77.644531 29.808594 78.441406 30.105469 79.335938 30.105469 C 80.527344 30.105469 81.652344 29.671875 82.710938 28.804688 C 83.765625 27.9375 84.605469 26.800781 85.230469 25.390625 C 85.472656 24.820312 85.785156 23.820312 86.164062 22.382812 C 86.542969 20.945312 86.734375 19.699219 86.734375 18.644531 C 86.734375 17.453125 86.488281 16.542969 86.003906 15.921875 C 85.351562 15.105469 84.484375 14.699219 83.402344 14.699219 C 81.695312 14.699219 80.191406 15.488281 78.890625 17.058594 C 77.886719 18.25 77.140625 19.835938 76.652344 21.8125 C 76.164062 23.792969 75.910156 25.28125 75.882812 26.285156 Z M 75.882812 26.285156"/><g clip-path="url(#bd44407570)"><path fill="#ff3131" fill-opacity="1" fill-rule="nonzero" d="M 91.613281 19.496094 C 91.636719 19.414062 91.664062 19.308594 91.691406 19.171875 C 91.71875 19.035156 91.789062 18.738281 91.894531 18.277344 C 92.003906 17.816406 92.140625 17.398438 92.300781 17.019531 C 92.464844 16.636719 92.667969 16.191406 92.914062 15.675781 C 93.15625 15.160156 93.425781 14.753906 93.726562 14.457031 C 94.023438 14.160156 94.375 13.859375 94.78125 13.5625 C 95.1875 13.265625 95.636719 13.144531 96.125 13.195312 C 98.15625 13.195312 99.457031 14.0625 100.023438 15.796875 L 100.433594 15.433594 C 102.113281 13.941406 103.710938 13.195312 105.226562 13.195312 C 106.988281 13.195312 108.371094 13.832031 109.375 15.105469 C 110.375 16.382812 110.878906 17.925781 110.878906 19.742188 C 110.878906 22.667969 109.847656 25.363281 107.789062 27.828125 C 105.730469 30.296875 103.398438 31.542969 100.796875 31.570312 C 100.203125 31.570312 99.671875 31.488281 99.210938 31.324219 C 98.914062 31.191406 98.601562 30.988281 98.277344 30.714844 C 97.953125 30.445312 97.695312 30.214844 97.503906 30.023438 L 97.21875 29.699219 C 97.195312 29.726562 96.894531 30.90625 96.328125 33.234375 C 95.757812 35.566406 95.472656 36.746094 95.472656 36.773438 C 95.472656 36.933594 95.582031 37.027344 95.796875 37.054688 C 96.015625 37.082031 96.515625 37.125 97.300781 37.179688 L 98.316406 37.179688 C 98.480469 37.367188 98.5625 37.488281 98.5625 37.542969 C 98.5625 37.597656 98.519531 37.84375 98.441406 38.277344 C 98.359375 38.601562 98.277344 38.804688 98.195312 38.886719 C 98.113281 38.964844 97.9375 39.019531 97.667969 39.046875 C 97.613281 39.046875 97.464844 39.046875 97.21875 39.046875 C 96.976562 39.046875 96.515625 39.035156 95.839844 39.007812 C 95.160156 38.980469 94.320312 38.964844 93.320312 38.964844 C 91.421875 38.964844 90.214844 38.992188 89.699219 39.046875 L 89.375 39.046875 C 89.1875 38.859375 89.089844 38.710938 89.089844 38.601562 C 89.144531 37.871094 89.320312 37.394531 89.621094 37.179688 L 90.433594 37.179688 C 91.355469 37.152344 91.882812 36.988281 92.019531 36.691406 C 92.097656 36.527344 92.925781 33.289062 94.496094 26.976562 C 96.070312 20.664062 96.894531 17.316406 96.976562 16.9375 C 97.003906 16.800781 97.015625 16.609375 97.015625 16.367188 C 97.015625 15.257812 96.679688 14.699219 96 14.699219 C 95.40625 14.699219 94.902344 15.082031 94.496094 15.839844 C 94.089844 16.597656 93.777344 17.425781 93.5625 18.316406 C 93.34375 19.210938 93.183594 19.699219 93.074219 19.78125 C 93.019531 19.835938 92.804688 19.863281 92.425781 19.863281 L 91.855469 19.863281 C 91.691406 19.699219 91.613281 19.578125 91.613281 19.496094 Z M 97.910156 27.015625 C 98.507812 29.074219 99.511719 30.105469 100.917969 30.105469 C 101.730469 30.105469 102.519531 29.792969 103.277344 29.171875 C 104.035156 28.546875 104.660156 27.761719 105.148438 26.8125 C 105.632812 25.890625 106.121094 24.429688 106.609375 22.421875 C 107.097656 20.417969 107.355469 18.929688 107.382812 17.953125 L 107.382812 17.707031 C 107.382812 15.703125 106.554688 14.699219 104.902344 14.699219 C 104.605469 14.699219 104.304688 14.742188 104.007812 14.824219 C 103.710938 14.902344 103.414062 15.027344 103.113281 15.1875 C 102.816406 15.351562 102.546875 15.527344 102.300781 15.71875 C 102.058594 15.90625 101.828125 16.109375 101.609375 16.328125 C 101.394531 16.542969 101.191406 16.746094 101 16.9375 C 100.8125 17.125 100.660156 17.316406 100.554688 17.503906 C 100.445312 17.695312 100.335938 17.832031 100.226562 17.910156 L 100.105469 18.074219 C 100.105469 18.101562 100.066406 18.292969 99.984375 18.644531 C 99.902344 18.996094 99.753906 19.59375 99.539062 20.433594 C 99.320312 21.273438 99.132812 21.976562 98.96875 22.546875 C 98.265625 25.417969 97.910156 26.910156 97.910156 27.015625 Z M 97.910156 27.015625"/></g><path fill="#ff3131" fill-opacity="1" fill-rule="nonzero" d="M 112.179688 15.515625 C 111.988281 15.324219 111.894531 15.1875 111.894531 15.105469 C 111.894531 15 111.933594 14.78125 112.015625 14.457031 C 112.097656 14.132812 112.164062 13.941406 112.21875 13.886719 C 112.273438 13.753906 112.394531 13.683594 112.585938 13.683594 C 112.773438 13.683594 113.464844 13.671875 114.65625 13.644531 L 116.8125 13.644531 L 117.585938 10.390625 C 117.664062 10.09375 117.761719 9.703125 117.867188 9.214844 C 117.976562 8.726562 118.070312 8.375 118.152344 8.15625 C 118.234375 7.941406 118.316406 7.667969 118.398438 7.34375 C 118.480469 7.019531 118.585938 6.789062 118.722656 6.652344 C 118.859375 6.515625 118.992188 6.355469 119.128906 6.164062 C 119.265625 5.976562 119.453125 5.855469 119.699219 5.800781 C 119.941406 5.746094 120.1875 5.71875 120.429688 5.71875 C 120.917969 5.746094 121.257812 5.894531 121.445312 6.164062 C 121.636719 6.4375 121.730469 6.695312 121.730469 6.9375 C 121.730469 7.128906 121.609375 7.765625 121.363281 8.847656 C 121.121094 9.933594 120.847656 11.003906 120.550781 12.058594 L 120.144531 13.5625 C 120.144531 13.617188 120.824219 13.644531 122.175781 13.644531 L 124.25 13.644531 C 124.441406 13.832031 124.535156 13.984375 124.535156 14.089844 C 124.535156 14.6875 124.359375 15.160156 124.007812 15.515625 L 119.65625 15.515625 L 118.195312 21.40625 C 117.136719 25.742188 116.609375 28.074219 116.609375 28.398438 C 116.609375 29.535156 116.976562 30.105469 117.707031 30.105469 C 118.65625 30.105469 119.574219 29.644531 120.46875 28.722656 C 121.363281 27.800781 122.082031 26.664062 122.625 25.308594 C 122.679688 25.148438 122.746094 25.050781 122.828125 25.023438 C 122.910156 24.996094 123.113281 24.972656 123.4375 24.945312 L 123.601562 24.945312 C 124.007812 24.945312 124.210938 25.050781 124.210938 25.269531 C 124.210938 25.351562 124.167969 25.511719 124.085938 25.757812 C 123.953125 26.191406 123.707031 26.703125 123.355469 27.300781 C 123.003906 27.898438 122.542969 28.535156 121.972656 29.210938 C 121.40625 29.890625 120.714844 30.457031 119.902344 30.917969 C 119.089844 31.378906 118.261719 31.609375 117.421875 31.609375 C 116.609375 31.609375 115.835938 31.40625 115.105469 31 C 114.375 30.59375 113.84375 29.890625 113.519531 28.886719 C 113.464844 28.667969 113.4375 28.304688 113.4375 27.789062 L 113.4375 27.058594 L 114.859375 21.367188 C 115.808594 17.546875 116.296875 15.621094 116.324219 15.59375 C 116.324219 15.539062 115.632812 15.515625 114.25 15.515625 Z M 112.179688 15.515625"/><g clip-path="url(#900930b16c)"><path fill="#ff3131" fill-opacity="1" fill-rule="nonzero" d="M 133.71875 6.15625 C 133.46875 3.589844 133.34375 2.152344 133.34375 1.847656 C 133.34375 1.5 133.574219 1.234375 134.03125 1.042969 C 134.050781 1.042969 134.101562 1.042969 134.175781 1.042969 C 134.253906 1.042969 134.3125 1.03125 134.347656 1.011719 C 134.578125 1.03125 134.789062 1.117188 134.980469 1.273438 C 135.171875 1.425781 135.269531 1.617188 135.269531 1.847656 C 135.269531 2.171875 135.210938 2.9375 135.097656 4.144531 C 134.980469 5.351562 134.914062 6.023438 134.894531 6.15625 L 136.5625 4.949219 C 137.632812 4.164062 138.21875 3.742188 138.316406 3.6875 C 138.410156 3.628906 138.507812 3.597656 138.601562 3.597656 C 138.851562 3.597656 139.082031 3.695312 139.292969 3.886719 C 139.503906 4.078125 139.617188 4.335938 139.636719 4.664062 C 139.636719 4.910156 139.539062 5.132812 139.347656 5.324219 C 139.253906 5.382812 138.601562 5.695312 137.394531 6.273438 C 136.1875 6.847656 135.535156 7.152344 135.441406 7.191406 L 137.335938 8.082031 L 139.347656 9.089844 C 139.523438 9.261719 139.609375 9.480469 139.609375 9.75 C 139.609375 10.035156 139.523438 10.277344 139.347656 10.46875 C 139.175781 10.660156 138.945312 10.765625 138.660156 10.785156 C 138.507812 10.785156 138.332031 10.726562 138.140625 10.609375 C 137.949219 10.496094 137.425781 10.113281 136.5625 9.460938 L 134.894531 8.253906 C 135.144531 10.820312 135.269531 12.257812 135.269531 12.566406 C 135.269531 12.757812 135.203125 12.9375 135.066406 13.109375 C 134.933594 13.285156 134.683594 13.371094 134.320312 13.371094 C 133.957031 13.371094 133.707031 13.285156 133.574219 13.109375 C 133.4375 12.9375 133.363281 12.757812 133.34375 12.566406 C 133.34375 12.238281 133.402344 11.472656 133.515625 10.265625 C 133.628906 9.058594 133.699219 8.390625 133.71875 8.253906 L 132.050781 9.460938 C 130.976562 10.246094 130.394531 10.667969 130.296875 10.726562 C 130.21875 10.785156 130.125 10.8125 130.011719 10.8125 C 129.761719 10.8125 129.53125 10.714844 129.320312 10.523438 C 129.109375 10.332031 128.996094 10.074219 128.976562 9.75 C 128.976562 9.652344 128.976562 9.578125 128.976562 9.519531 C 128.976562 9.460938 129.003906 9.402344 129.0625 9.347656 C 129.117188 9.289062 129.167969 9.230469 129.207031 9.175781 C 129.242188 9.117188 129.328125 9.050781 129.464844 8.972656 C 129.597656 8.898438 129.722656 8.828125 129.835938 8.773438 C 129.953125 8.714844 130.132812 8.628906 130.382812 8.511719 C 130.632812 8.398438 130.871094 8.292969 131.101562 8.199219 C 131.332031 8.101562 131.636719 7.957031 132.019531 7.765625 C 132.40625 7.574219 132.789062 7.382812 133.171875 7.191406 L 129.261719 5.324219 C 129.089844 5.152344 129.003906 4.929688 129.003906 4.664062 C 129.003906 4.375 129.089844 4.136719 129.261719 3.945312 C 129.433594 3.753906 129.664062 3.648438 129.953125 3.628906 C 130.105469 3.628906 130.277344 3.6875 130.46875 3.800781 C 130.660156 3.914062 131.1875 4.296875 132.050781 4.949219 Z M 133.71875 6.15625"/></g></g></g><g clip-path="url(#fa73c6edda)"><path fill="none" stroke="#000" stroke-linecap="butt" stroke-linejoin="miter" stroke-miterlimit="4" stroke-opacity="1" stroke-width="8" d="M 0.00199721 -0.000715928 L 49.376997 -0.000715928 L 49.376997 49.374284 L 0.00199721 49.374284 Z M 0.00199721 -0.000715928" transform="matrix(0.75, 0, 0, 0.75, 482.826627, 78.492724)"/></g><g clip-path="url(#ab85beee34)"><path fill="none" stroke="#000" stroke-linecap="butt" stroke-linejoin="miter" stroke-miterlimit="4" stroke-opacity="1" stroke-width="8" d="M 0.00196925 -0.000715928 L 49.376969 -0.000715928 L 49.376969 49.374284 L 0.00196925 49.374284 Z M 0.00196925 -0.000715928" transform="matrix(0.75, 0, 0, 0.75, 407.201648, 78.492724)"/></g><g><g clip-path="url(#d818ffd4c2)" transform="matrix(1, 0, 0, 1, 420, 86)"><g clip-path="url(#b1f8c95e3e)"><path fill="#000" fill-opacity="1" fill-rule="nonzero" d="M 6.074219 2.628906 C 6.074219 2.140625 6.265625 1.714844 6.652344 1.347656 C 7.039062 0.980469 7.484375 0.789062 7.992188 0.769531 C 8.359375 0.769531 8.664062 0.890625 8.910156 1.132812 C 9.152344 1.378906 9.285156 1.683594 9.304688 2.050781 C 9.304688 2.515625 9.101562 2.945312 8.695312 3.328125 C 8.289062 3.714844 7.839844 3.917969 7.355469 3.941406 C 7.050781 3.941406 6.765625 3.839844 6.5 3.636719 C 6.234375 3.429688 6.09375 3.097656 6.074219 2.628906 Z M 1.101562 12.171875 C 1.101562 12.007812 1.195312 11.695312 1.378906 11.226562 C 1.5625 10.757812 1.804688 10.242188 2.109375 9.671875 C 2.414062 9.101562 2.863281 8.585938 3.449219 8.117188 C 4.039062 7.648438 4.648438 7.425781 5.28125 7.445312 C 6.074219 7.445312 6.734375 7.679688 7.261719 8.148438 C 7.789062 8.613281 8.066406 9.246094 8.085938 10.039062 C 8.085938 10.382812 7.941406 10.953125 7.660156 11.746094 C 7.375 12.539062 6.96875 13.605469 6.4375 14.945312 C 5.910156 16.289062 5.484375 17.4375 5.160156 18.390625 C 5.058594 18.839844 5.007812 19.164062 5.007812 19.367188 C 5.007812 19.875 5.179688 20.128906 5.523438 20.128906 C 5.707031 20.128906 5.902344 20.101562 6.105469 20.039062 C 6.308594 19.976562 6.539062 19.835938 6.804688 19.613281 C 7.070312 19.386719 7.34375 19.03125 7.628906 18.542969 C 7.914062 18.058594 8.167969 17.457031 8.390625 16.746094 C 8.453125 16.5 8.503906 16.359375 8.542969 16.320312 C 8.582031 16.277344 8.757812 16.257812 9.0625 16.257812 C 9.46875 16.257812 9.671875 16.359375 9.671875 16.5625 C 9.671875 16.726562 9.578125 17.039062 9.398438 17.507812 C 9.214844 17.976562 8.960938 18.492188 8.632812 19.0625 C 8.308594 19.632812 7.851562 20.140625 7.261719 20.585938 C 6.671875 21.035156 6.042969 21.257812 5.371094 21.257812 C 4.722656 21.257812 4.121094 21.046875 3.574219 20.617188 C 3.023438 20.191406 2.738281 19.539062 2.71875 18.667969 C 2.71875 18.320312 2.769531 17.996094 2.871094 17.691406 C 2.972656 17.386719 3.410156 16.226562 4.183594 14.214844 C 4.957031 12.160156 5.402344 10.933594 5.523438 10.527344 C 5.644531 10.121094 5.71875 9.722656 5.738281 9.335938 C 5.738281 8.847656 5.566406 8.605469 5.21875 8.605469 L 5.160156 8.605469 C 4.546875 8.605469 3.988281 8.941406 3.480469 9.609375 C 2.972656 10.28125 2.585938 11.136719 2.324219 12.171875 C 2.300781 12.191406 2.28125 12.222656 2.261719 12.265625 C 2.242188 12.304688 2.230469 12.335938 2.230469 12.355469 C 2.230469 12.375 2.210938 12.394531 2.171875 12.417969 C 2.128906 12.4375 2.097656 12.445312 2.078125 12.445312 C 2.058594 12.445312 2.019531 12.445312 1.957031 12.445312 C 1.894531 12.445312 1.816406 12.445312 1.714844 12.445312 L 1.285156 12.445312 C 1.164062 12.324219 1.101562 12.234375 1.101562 12.171875 Z M 1.101562 12.171875"/></g></g></g><g clip-path="url(#e49ded5ae3)"><path fill="none" stroke="#000" stroke-linecap="butt" stroke-linejoin="miter" stroke-miterlimit="4" stroke-opacity="1" stroke-width="8" d="M 0.0019925 -0.000964205 L 49.376993 -0.000964205 L 49.376993 49.374036 L 0.0019925 49.374036 Z M 0.0019925 -0.000964205" transform="matrix(0.75, 0, 0, 0.75, 331.576631, 201.719473)"/></g><g><g clip-path="url(#d1c73721cd)" transform="matrix(1, 0, 0, 1, 340, 207)"><g clip-path="url(#6c1e4a449b)"><path fill="#000" fill-opacity="1" fill-rule="nonzero" d="M 6.210938 7.101562 C 6.210938 6.613281 6.40625 6.1875 6.792969 5.820312 C 7.179688 5.453125 7.625 5.257812 8.136719 5.238281 C 8.5 5.238281 8.808594 5.359375 9.050781 5.605469 C 9.296875 5.851562 9.429688 6.15625 9.449219 6.523438 C 9.449219 6.988281 9.246094 7.417969 8.835938 7.804688 C 8.429688 8.191406 7.984375 8.394531 7.492188 8.414062 C 7.1875 8.414062 6.902344 8.3125 6.640625 8.109375 C 6.375 7.90625 6.230469 7.570312 6.210938 7.101562 Z M 1.234375 16.660156 C 1.234375 16.496094 1.324219 16.183594 1.507812 15.714844 C 1.691406 15.246094 1.9375 14.726562 2.242188 14.15625 C 2.546875 13.585938 2.996094 13.066406 3.585938 12.597656 C 4.175781 12.128906 4.785156 11.90625 5.417969 11.925781 C 6.210938 11.925781 6.871094 12.160156 7.402344 12.628906 C 7.933594 13.097656 8.207031 13.730469 8.226562 14.523438 C 8.226562 14.871094 8.085938 15.4375 7.800781 16.234375 C 7.515625 17.027344 7.105469 18.097656 6.578125 19.441406 C 6.046875 20.785156 5.621094 21.933594 5.296875 22.890625 C 5.191406 23.339844 5.140625 23.664062 5.140625 23.867188 C 5.140625 24.378906 5.316406 24.632812 5.660156 24.632812 C 5.84375 24.632812 6.039062 24.601562 6.242188 24.539062 C 6.445312 24.480469 6.679688 24.335938 6.945312 24.113281 C 7.207031 23.886719 7.484375 23.53125 7.769531 23.042969 C 8.054688 22.554688 8.308594 21.953125 8.53125 21.242188 C 8.59375 20.996094 8.644531 20.855469 8.683594 20.8125 C 8.726562 20.773438 8.898438 20.753906 9.203125 20.753906 C 9.613281 20.753906 9.816406 20.855469 9.816406 21.058594 C 9.816406 21.222656 9.722656 21.535156 9.539062 22.003906 C 9.355469 22.472656 9.101562 22.992188 8.777344 23.5625 C 8.449219 24.132812 7.992188 24.640625 7.402344 25.089844 C 6.8125 25.539062 6.179688 25.761719 5.507812 25.761719 C 4.855469 25.761719 4.257812 25.546875 3.707031 25.121094 C 3.15625 24.691406 2.871094 24.042969 2.851562 23.164062 C 2.851562 22.820312 2.902344 22.492188 3.003906 22.1875 C 3.105469 21.882812 3.542969 20.722656 4.316406 18.707031 C 5.089844 16.652344 5.539062 15.417969 5.660156 15.011719 C 5.785156 14.605469 5.855469 14.207031 5.875 13.820312 C 5.875 13.332031 5.703125 13.085938 5.355469 13.085938 L 5.296875 13.085938 C 4.683594 13.085938 4.125 13.421875 3.617188 14.09375 C 3.105469 14.765625 2.71875 15.621094 2.453125 16.660156 C 2.433594 16.679688 2.414062 16.710938 2.394531 16.753906 C 2.375 16.792969 2.363281 16.824219 2.363281 16.84375 C 2.363281 16.863281 2.34375 16.886719 2.300781 16.90625 C 2.261719 16.925781 2.230469 16.9375 2.210938 16.9375 C 2.191406 16.9375 2.148438 16.9375 2.089844 16.9375 C 2.027344 16.9375 1.945312 16.9375 1.84375 16.9375 L 1.417969 16.9375 C 1.292969 16.8125 1.234375 16.722656 1.234375 16.660156 Z M 1.234375 16.660156"/></g><g clip-path="url(#16217ae9d2)"><path fill="#000" fill-opacity="1" fill-rule="nonzero" d="M 13.84375 11.882812 C 13.753906 11.882812 13.5625 11.839844 13.257812 11.753906 C 12.957031 11.667969 12.796875 11.582031 12.785156 11.496094 C 12.785156 11.394531 13.179688 9.726562 13.972656 6.488281 C 14.761719 3.246094 15.203125 1.554688 15.289062 1.414062 C 15.503906 0.953125 15.878906 0.722656 16.410156 0.722656 C 16.699219 0.722656 17 0.828125 17.316406 1.046875 C 17.632812 1.261719 17.792969 1.578125 17.792969 1.996094 C 17.792969 2.066406 17.777344 2.175781 17.75 2.320312 C 17.734375 2.421875 17.109375 4.023438 15.871094 7.132812 C 14.632812 10.242188 13.992188 11.8125 13.949219 11.839844 C 13.90625 11.871094 13.871094 11.882812 13.84375 11.882812 Z M 13.84375 11.882812"/></g></g></g><g clip-path="url(#3088e601b1)"><path fill="none" stroke="#000" stroke-linecap="butt" stroke-linejoin="miter" stroke-miterlimit="4" stroke-opacity="1" stroke-width="8" d="M 0.00196925 -0.000964205 L 49.376969 -0.000964205 L 49.376969 49.374036 L 0.00196925 49.374036 Z M 0.00196925 -0.000964205" transform="matrix(0.75, 0, 0, 0.75, 407.201648, 201.719473)"/></g><g clip-path="url(#57a064d95f)"><path fill="none" stroke="#000" stroke-linecap="butt" stroke-linejoin="miter" stroke-miterlimit="4" stroke-opacity="1" stroke-width="8" d="M 0.00197414 -0.000715928 L 49.376974 -0.000715928 L 49.376974 49.374284 L 0.00197414 49.374284 Z M 0.00197414 -0.000715928" transform="matrix(0.75, 0, 0, 0.75, 255.951644, 78.492724)"/></g><g clip-path="url(#2e054a5724)"><path fill="none" stroke="#000" stroke-linecap="butt" stroke-linejoin="miter" stroke-miterlimit="4" stroke-opacity="1" stroke-width="8" d="M 0.00197414 -0.000964205 L 49.376974 -0.000964205 L 49.376974 49.374036 L 0.00197414 49.374036 Z M 0.00197414 -0.000964205" transform="matrix(0.75, 0, 0, 0.75, 255.951644, 201.719473)"/></g><g clip-path="url(#046feddac0)"><path fill="none" stroke="#000" stroke-linecap="butt" stroke-linejoin="miter" stroke-miterlimit="4" stroke-opacity="1" stroke-width="8" d="M 0.0019925 -0.000715928 L 49.376993 -0.000715928 L 49.376993 49.374284 L 0.0019925 49.374284 Z M 0.0019925 -0.000715928" transform="matrix(0.75, 0, 0, 0.75, 331.576631, 78.492724)"/></g><g clip-path="url(#747f72483e)"><path fill="none" stroke="#000" stroke-linecap="butt" stroke-linejoin="miter" stroke-miterlimit="4" stroke-opacity="1" stroke-width="8" d="M 0.00199721 -0.000964205 L 49.376997 -0.000964205 L 49.376997 49.374036 L 0.00199721 49.374036 Z M 0.00199721 -0.000964205" transform="matrix(0.75, 0, 0, 0.75, 482.826627, 201.719473)"/></g><g clip-path="url(#876af0a243)"><path fill="none" stroke="#000" stroke-linecap="butt" stroke-linejoin="miter" stroke-miterlimit="4" stroke-opacity="1" stroke-width="8" d="M 0.00192916 -0.000715928 L 49.376929 -0.000715928 L 49.376929 49.374284 L 0.00192916 49.374284 Z M 0.00192916 -0.000715928" transform="matrix(0.75, 0, 0, 0.75, 558.451678, 78.492724)"/></g><g clip-path="url(#e994b490d9)"><path fill="none" stroke="#000" stroke-linecap="butt" stroke-linejoin="miter" stroke-miterlimit="4" stroke-opacity="1" stroke-width="8" d="M 0.00192916 -0.000964205 L 49.376929 -0.000964205 L 49.376929 49.374036 L 0.00192916 49.374036 Z M 0.00192916 -0.000964205" transform="matrix(0.75, 0, 0, 0.75, 558.451678, 201.719473)"/></g><g clip-path="url(#3ed61aed11)"><path fill="none" stroke="#ff3131" stroke-linecap="butt" stroke-linejoin="miter" stroke-miterlimit="4" stroke-opacity="1" stroke-width="8" d="M 0.0000595169 -0.00253802 L 297.828204 -0.00253802 L 297.828204 90.825593 L 0.0000595169 90.825593 Z M 0.0000595169 -0.00253802" transform="matrix(0.75, 0, 0, 0.75, 389.660112, 62.951122)"/></g><g clip-path="url(#71257f7ea8)"><path fill="none" stroke="#ff3131" stroke-linecap="butt" stroke-linejoin="miter" stroke-miterlimit="4" stroke-opacity="1" stroke-width="8" d="M 0.00257756 0.00241243 L 395.705729 0.00241243 L 395.705729 90.830543 L 0.00257756 90.830543 Z M 0.00257756 0.00241243" transform="matrix(0.75, 0, 0, 0.75, 316.248067, 186.177878)"/></g><g clip-path="url(#ec040ba2ef)"><g clip-path="url(#c4c2523530)"><g clip-path="url(#58f8ce5853)"><g clip-path="url(#a3076a3dee)"><path fill="none" stroke="#ff3131" stroke-linecap="butt" stroke-linejoin="miter" stroke-miterlimit="4" stroke-opacity="1" stroke-width="8" d="M 0.00246446 75.876343 L 20.249945 98.88872 L 40.502338 75.875653 L 29.258741 75.875593 L 29.259208 23.014464 L 40.502806 23.014524 L 20.251858 -0.00173986 L -0.000534827 23.011328 L 11.239176 23.014854 L 11.238708 75.875983 Z M 0.00246446 75.876343" transform="matrix(0.559696, 0.499239, -0.499239, 0.559696, 469.816588, 120.284978)"/></g></g></g></g></svg>