<svg xmlns="http://www.w3.org/2000/svg" xmlns:xlink="http://www.w3.org/1999/xlink" zoomAndPan="magnify" preserveAspectRatio="xMidYMid meet" version="1.0" viewBox="3.28 13.52 901.93 342.68"><defs><g/><clipPath id="1a4bbf44b0"><path d="M 3 0.390625 L 71 0.390625 L 71 64.402344 L 3 64.402344 Z M 3 0.390625 " clip-rule="nonzero"/></clipPath><clipPath id="ec1a36a2ac"><rect x="0" width="72" y="0" height="65"/></clipPath><clipPath id="c68ed6e3ef"><path d="M 4 0.351562 L 66 0.351562 L 66 64.359375 L 4 64.359375 Z M 4 0.351562 " clip-rule="nonzero"/></clipPath><clipPath id="eed3ecbf89"><rect x="0" width="69" y="0" height="65"/></clipPath><clipPath id="6334015aee"><path d="M 29.421875 29.792969 L 104.617188 29.792969 L 104.617188 104.988281 L 29.421875 104.988281 Z M 29.421875 29.792969 " clip-rule="nonzero"/></clipPath><clipPath id="9760f5a720"><path d="M 169.296875 29.792969 L 244.492188 29.792969 L 244.492188 104.988281 L 169.296875 104.988281 Z M 169.296875 29.792969 " clip-rule="nonzero"/></clipPath><clipPath id="bc89f8a4f8"><path d="M 309.171875 29.792969 L 384.363281 29.792969 L 384.363281 104.988281 L 309.171875 104.988281 Z M 309.171875 29.792969 " clip-rule="nonzero"/></clipPath><clipPath id="9e71bbce00"><path d="M 449.042969 29.792969 L 524.238281 29.792969 L 524.238281 104.988281 L 449.042969 104.988281 Z M 449.042969 29.792969 " clip-rule="nonzero"/></clipPath><clipPath id="d08c853a65"><path d="M 588.917969 29.792969 L 664.113281 29.792969 L 664.113281 104.988281 L 588.917969 104.988281 Z M 588.917969 29.792969 " clip-rule="nonzero"/></clipPath><clipPath id="8a965c5ed8"><path d="M 728.792969 29.792969 L 803.988281 29.792969 L 803.988281 104.988281 L 728.792969 104.988281 Z M 728.792969 29.792969 " clip-rule="nonzero"/></clipPath><clipPath id="e45113c207"><rect x="0" width="804" y="0" height="135"/></clipPath><clipPath id="04916506cd"><path d="M 29.421875 18.75 L 104.617188 18.75 L 104.617188 93.945312 L 29.421875 93.945312 Z M 29.421875 18.75 " clip-rule="nonzero"/></clipPath><clipPath id="5be5b79153"><path d="M 169.296875 18.75 L 244.492188 18.75 L 244.492188 93.945312 L 169.296875 93.945312 Z M 169.296875 18.75 " clip-rule="nonzero"/></clipPath><clipPath id="9bcf2e5630"><path d="M 309.171875 18.75 L 384.363281 18.75 L 384.363281 93.945312 L 309.171875 93.945312 Z M 309.171875 18.75 " clip-rule="nonzero"/></clipPath><clipPath id="a8f862eb0e"><path d="M 449.042969 18.75 L 524.238281 18.75 L 524.238281 93.945312 L 449.042969 93.945312 Z M 449.042969 18.75 " clip-rule="nonzero"/></clipPath><clipPath id="f5fd7d6dc2"><path d="M 588.917969 18.75 L 664.113281 18.75 L 664.113281 93.945312 L 588.917969 93.945312 Z M 588.917969 18.75 " clip-rule="nonzero"/></clipPath><clipPath id="cb40fc4461"><path d="M 728.792969 18.75 L 803.988281 18.75 L 803.988281 93.945312 L 728.792969 93.945312 Z M 728.792969 18.75 " clip-rule="nonzero"/></clipPath><clipPath id="cd48d68cd7"><rect x="0" width="804" y="0" height="124"/></clipPath><clipPath id="e0a363533a"><path d="M 28 0.25 L 40 0.25 L 40 46.25 L 28 46.25 Z M 28 0.25 " clip-rule="nonzero"/></clipPath><clipPath id="4055e999ed"><path d="M 134 0.25 L 146 0.25 L 146 46.25 L 134 46.25 Z M 134 0.25 " clip-rule="nonzero"/></clipPath><clipPath id="65a1b6a54b"><rect x="0" width="234" y="0" height="47"/></clipPath></defs><g transform="matrix(1, 0, 0, 1, 0, 184)"><g clip-path="url(#ec1a36a2ac)"><g clip-path="url(#1a4bbf44b0)"><path fill="#000000" d="M 21.644531 4.707031 C 19.960938 4.707031 18.960938 4.675781 18.648438 4.613281 C 18.335938 4.550781 18.179688 4.207031 18.179688 3.582031 C 18.179688 1.894531 18.523438 0.863281 19.210938 0.488281 C 19.273438 0.425781 23.332031 0.394531 31.390625 0.394531 C 47.570312 0.394531 56.097656 0.457031 56.972656 0.582031 C 60.90625 1.207031 64.1875 2.613281 66.8125 4.800781 C 69.433594 6.984375 70.777344 9.859375 70.839844 13.421875 C 70.839844 17.417969 69.027344 21.011719 65.40625 24.195312 C 61.78125 27.382812 57.628906 29.539062 52.941406 30.664062 L 52.007812 30.945312 C 56.003906 31.503906 59.285156 32.941406 61.84375 35.253906 C 64.40625 37.566406 65.71875 40.4375 65.78125 43.875 C 65.78125 48.433594 63.53125 52.839844 59.035156 57.085938 C 54.535156 61.335938 49.007812 63.738281 42.449219 64.300781 C 42.011719 64.363281 35.421875 64.394531 22.675781 64.394531 C 10.183594 64.394531 3.84375 64.332031 3.65625 64.207031 C 3.40625 64.019531 3.28125 63.769531 3.28125 63.457031 C 3.28125 63.023438 3.34375 62.585938 3.46875 62.148438 C 3.78125 60.960938 4.089844 60.304688 4.402344 60.179688 C 4.652344 60.117188 5.121094 60.085938 5.808594 60.085938 L 6.371094 60.085938 C 8.058594 60.085938 9.933594 59.992188 11.996094 59.804688 C 12.867188 59.617188 13.460938 59.242188 13.773438 58.679688 C 13.960938 58.429688 16.210938 49.746094 20.519531 32.628906 C 24.832031 15.511719 26.988281 6.488281 26.988281 5.550781 C 26.988281 5.113281 25.207031 4.832031 21.644531 4.707031 Z M 60.8125 13.421875 C 60.8125 11.546875 60.347656 9.796875 59.410156 8.171875 C 58.472656 6.550781 56.941406 5.488281 54.816406 4.988281 C 54.378906 4.863281 51.507812 4.769531 46.195312 4.707031 C 44.945312 4.707031 43.636719 4.707031 42.261719 4.707031 C 40.886719 4.707031 39.792969 4.738281 38.980469 4.800781 L 37.761719 4.800781 C 36.824219 4.863281 36.234375 5.175781 35.984375 5.738281 C 35.859375 5.988281 34.859375 9.734375 32.984375 16.980469 C 32.984375 17.167969 32.953125 17.355469 32.890625 17.542969 L 29.984375 29.351562 L 37.574219 29.351562 C 42.636719 29.351562 45.539062 29.289062 46.289062 29.164062 C 50.039062 28.539062 53.378906 26.726562 56.316406 23.726562 C 59.253906 20.730469 60.75 17.292969 60.8125 13.421875 Z M 55.753906 42.9375 C 55.753906 40.1875 55.035156 37.910156 53.597656 36.097656 C 52.164062 34.285156 50.289062 33.222656 47.976562 32.910156 C 47.601562 32.847656 45.007812 32.816406 40.199219 32.816406 C 32.828125 32.816406 29.109375 32.847656 29.046875 32.910156 C 29.046875 33.035156 28.515625 35.316406 27.457031 39.75 C 26.394531 44.1875 25.300781 48.589844 24.175781 52.964844 L 22.488281 59.523438 C 22.488281 59.773438 22.863281 59.898438 23.613281 59.898438 C 24.363281 59.898438 26.894531 59.960938 31.203125 60.085938 C 36.761719 60.085938 39.761719 60.054688 40.199219 59.992188 C 44.074219 59.554688 47.632812 57.742188 50.882812 54.558594 C 54.128906 51.371094 55.753906 47.496094 55.753906 42.9375 Z M 55.753906 42.9375 " fill-opacity="1" fill-rule="nonzero"/></g></g></g><g transform="matrix(1, 0, 0, 1, 1, 24)"><g clip-path="url(#eed3ecbf89)"><g clip-path="url(#c68ed6e3ef)"><path fill="#000000" d="M 19.632812 57.746094 C 19.632812 59.175781 21.003906 60.007812 23.742188 60.246094 C 24.816406 60.246094 25.351562 60.574219 25.351562 61.230469 C 25.351562 61.289062 25.292969 61.679688 25.175781 62.394531 C 24.996094 63.226562 24.816406 63.765625 24.636719 64.003906 C 24.457031 64.242188 24.070312 64.359375 23.476562 64.359375 C 23.355469 64.359375 23 64.359375 22.402344 64.359375 C 21.808594 64.359375 20.792969 64.332031 19.363281 64.269531 C 17.933594 64.210938 16.027344 64.179688 13.640625 64.179688 C 9.410156 64.179688 6.699219 64.242188 5.507812 64.359375 L 4.792969 64.359375 C 4.375 63.941406 4.164062 63.617188 4.164062 63.375 C 4.285156 61.769531 4.671875 60.726562 5.328125 60.246094 L 6.578125 60.246094 C 10.75 60.070312 13.789062 58.578125 15.699219 55.777344 C 16.054688 55.421875 21.449219 46.332031 31.878906 28.511719 C 42.308594 10.691406 47.613281 1.660156 47.792969 1.421875 C 48.210938 0.707031 48.925781 0.351562 49.9375 0.351562 L 52.171875 0.351562 C 52.53125 0.886719 52.707031 1.183594 52.707031 1.246094 L 55.210938 30.121094 C 56.878906 49.371094 57.773438 59.085938 57.894531 59.265625 C 58.191406 59.921875 60.128906 60.246094 63.703125 60.246094 C 65.195312 60.246094 65.941406 60.546875 65.941406 61.140625 C 65.941406 61.261719 65.851562 61.679688 65.671875 62.394531 C 65.492188 63.289062 65.34375 63.824219 65.226562 64.003906 C 65.105469 64.179688 64.6875 64.300781 63.972656 64.359375 C 63.792969 64.359375 63.378906 64.359375 62.722656 64.359375 C 62.066406 64.359375 60.902344 64.332031 59.234375 64.269531 C 57.566406 64.210938 55.390625 64.179688 52.707031 64.179688 C 47.105469 64.179688 43.441406 64.242188 41.710938 64.359375 L 40.640625 64.359375 C 40.28125 64.003906 40.105469 63.734375 40.105469 63.554688 C 40.105469 63.375 40.164062 62.839844 40.28125 61.945312 C 40.519531 61.171875 40.699219 60.695312 40.820312 60.515625 L 41.175781 60.246094 L 42.964844 60.246094 C 46.183594 60.070312 48.089844 59.5625 48.6875 58.726562 L 47.613281 45.320312 L 26.335938 45.320312 L 23.296875 50.503906 C 20.851562 54.617188 19.632812 57.03125 19.632812 57.746094 Z M 47.167969 41.117188 C 47.167969 40.460938 46.808594 35.8125 46.09375 27.171875 C 45.378906 18.527344 44.960938 14.179688 44.839844 14.117188 L 42.429688 17.960938 C 41.472656 19.570312 39.597656 22.761719 36.796875 27.527344 L 28.75 41.117188 L 37.957031 41.207031 C 44.097656 41.207031 47.167969 41.175781 47.167969 41.117188 Z M 47.167969 41.117188 " fill-opacity="1" fill-rule="nonzero"/></g></g></g><g transform="matrix(1, 0, 0, 1, 96, 149)"><g clip-path="url(#e45113c207)"><g clip-path="url(#6334015aee)"><path stroke-linecap="butt" transform="matrix(1.148012, 0, 0, 1.148012, 29.422224, 29.791888)" fill="none" stroke-linejoin="miter" d="M -0.000304147 0.000941602 L 65.500146 0.000941602 L 65.500146 65.501391 L -0.000304147 65.501391 Z M -0.000304147 0.000941602 " stroke="#457a00" stroke-width="10.452851" stroke-opacity="1" stroke-miterlimit="4"/></g><g fill="#000000" fill-opacity="1"><g transform="translate(59.252599, 74.564357)"><g><path d="M 11.5625 -16.34375 L 11.5625 -6.21875 C 12.101562 -6.21875 12.503906 -6.097656 12.765625 -5.859375 C 13.035156 -5.617188 13.171875 -5.304688 13.171875 -4.921875 C 13.171875 -4.546875 13.035156 -4.234375 12.765625 -3.984375 C 12.503906 -3.742188 12.101562 -3.625 11.5625 -3.625 L 11.5625 -2.59375 C 12.101562 -2.59375 12.503906 -2.46875 12.765625 -2.21875 C 13.035156 -1.976562 13.171875 -1.664062 13.171875 -1.28125 C 13.171875 -0.90625 13.035156 -0.597656 12.765625 -0.359375 C 12.503906 -0.117188 12.0625 0 11.4375 0 L 7.953125 0 C 7.335938 0 6.894531 -0.117188 6.625 -0.359375 C 6.363281 -0.597656 6.234375 -0.910156 6.234375 -1.296875 C 6.234375 -1.679688 6.363281 -1.992188 6.625 -2.234375 C 6.894531 -2.472656 7.335938 -2.59375 7.953125 -2.59375 L 8.96875 -2.59375 L 8.96875 -3.625 L 1.9375 -3.625 L 1.9375 -5.78125 L 8.140625 -16.34375 Z M 8.96875 -6.21875 L 8.96875 -12.578125 L 5.21875 -6.21875 Z M 8.96875 -6.21875 "/></g></g></g><g clip-path="url(#9760f5a720)"><path stroke-linecap="butt" transform="matrix(1.148012, 0, 0, 1.148012, 169.296176, 29.791888)" fill="none" stroke-linejoin="miter" d="M 0.000609071 0.000941602 L 65.501059 0.000941602 L 65.501059 65.501391 L 0.000609071 65.501391 Z M 0.000609071 0.000941602 " stroke="#000000" stroke-width="10.452851" stroke-opacity="1" stroke-miterlimit="4"/></g><g fill="#000000" fill-opacity="1"><g transform="translate(199.12658, 74.564357)"><g><path d="M 5.578125 -13.765625 L 5.578125 -10.671875 C 6.546875 -10.972656 7.421875 -11.125 8.203125 -11.125 C 9.796875 -11.125 11.117188 -10.582031 12.171875 -9.5 C 13.222656 -8.414062 13.75 -7.015625 13.75 -5.296875 C 13.75 -3.523438 13.210938 -2.132812 12.140625 -1.125 C 11.078125 -0.125 9.445312 0.375 7.25 0.375 C 5.3125 0.375 3.78125 0.0078125 2.65625 -0.71875 C 2 -1.144531 1.671875 -1.628906 1.671875 -2.171875 C 1.671875 -2.515625 1.796875 -2.816406 2.046875 -3.078125 C 2.304688 -3.335938 2.613281 -3.46875 2.96875 -3.46875 C 3.257812 -3.46875 3.578125 -3.320312 3.921875 -3.03125 C 4.273438 -2.75 4.640625 -2.554688 5.015625 -2.453125 C 5.554688 -2.296875 6.25 -2.21875 7.09375 -2.21875 C 8.65625 -2.21875 9.722656 -2.46875 10.296875 -2.96875 C 10.867188 -3.46875 11.15625 -4.234375 11.15625 -5.265625 C 11.15625 -6.285156 10.878906 -7.085938 10.328125 -7.671875 C 9.773438 -8.253906 9.066406 -8.546875 8.203125 -8.546875 C 7.265625 -8.546875 6.195312 -8.238281 5 -7.625 C 4.726562 -7.488281 4.492188 -7.421875 4.296875 -7.421875 C 3.921875 -7.421875 3.609375 -7.550781 3.359375 -7.8125 C 3.117188 -8.082031 3 -8.4375 3 -8.875 L 3 -16.34375 L 10.921875 -16.34375 C 11.535156 -16.34375 11.972656 -16.222656 12.234375 -15.984375 C 12.503906 -15.742188 12.640625 -15.429688 12.640625 -15.046875 C 12.640625 -14.671875 12.503906 -14.363281 12.234375 -14.125 C 11.972656 -13.882812 11.535156 -13.765625 10.921875 -13.765625 Z M 5.578125 -13.765625 "/></g></g></g><g clip-path="url(#bc89f8a4f8)"><path stroke-linecap="butt" transform="matrix(1.148012, 0, 0, 1.148012, 309.170199, 29.791888)" fill="none" stroke-linejoin="miter" d="M 0.00145957 0.000941602 L 65.498507 0.000941602 L 65.498507 65.501391 L 0.00145957 65.501391 Z M 0.00145957 0.000941602 " stroke="#000000" stroke-width="10.452851" stroke-opacity="1" stroke-miterlimit="4"/></g><g fill="#000000" fill-opacity="1"><g transform="translate(339.000575, 74.564357)"><g><path d="M 5.328125 -8.84375 C 5.953125 -9.363281 6.546875 -9.742188 7.109375 -9.984375 C 7.671875 -10.222656 8.273438 -10.34375 8.921875 -10.34375 C 10.273438 -10.34375 11.460938 -9.800781 12.484375 -8.71875 C 13.503906 -7.644531 14.015625 -6.296875 14.015625 -4.671875 C 14.015625 -3.160156 13.539062 -1.941406 12.59375 -1.015625 C 11.644531 -0.0859375 10.359375 0.375 8.734375 0.375 C 7.378906 0.375 6.257812 0.0625 5.375 -0.5625 C 4.5 -1.195312 3.835938 -2.171875 3.390625 -3.484375 C 2.953125 -4.796875 2.734375 -6.265625 2.734375 -7.890625 C 2.734375 -9.828125 3.171875 -11.4375 4.046875 -12.71875 C 4.929688 -14 5.972656 -14.992188 7.171875 -15.703125 C 8.367188 -16.410156 9.632812 -16.765625 10.96875 -16.765625 C 12.019531 -16.765625 12.835938 -16.554688 13.421875 -16.140625 C 13.796875 -15.867188 13.984375 -15.515625 13.984375 -15.078125 C 13.984375 -14.703125 13.859375 -14.382812 13.609375 -14.125 C 13.359375 -13.875 13.054688 -13.75 12.703125 -13.75 C 12.492188 -13.75 12.203125 -13.847656 11.828125 -14.046875 C 11.597656 -14.160156 11.378906 -14.21875 11.171875 -14.21875 C 10.347656 -14.21875 9.492188 -13.984375 8.609375 -13.515625 C 7.722656 -13.054688 6.953125 -12.34375 6.296875 -11.375 C 5.859375 -10.695312 5.535156 -9.851562 5.328125 -8.84375 Z M 5.703125 -4.84375 C 5.972656 -3.832031 6.335938 -3.140625 6.796875 -2.765625 C 7.253906 -2.398438 7.910156 -2.21875 8.765625 -2.21875 C 9.617188 -2.21875 10.273438 -2.4375 10.734375 -2.875 C 11.191406 -3.320312 11.421875 -3.929688 11.421875 -4.703125 C 11.421875 -5.578125 11.15625 -6.300781 10.625 -6.875 C 10.101562 -7.457031 9.515625 -7.75 8.859375 -7.75 C 8.335938 -7.75 7.78125 -7.492188 7.1875 -6.984375 C 6.59375 -6.472656 6.097656 -5.757812 5.703125 -4.84375 Z M 5.703125 -4.84375 "/></g></g></g><g clip-path="url(#9e71bbce00)"><path stroke-linecap="butt" transform="matrix(1.148012, 0, 0, 1.148012, 449.044199, 29.791888)" fill="none" stroke-linejoin="miter" d="M -0.00107164 0.000941602 L 65.499378 0.000941602 L 65.499378 65.501391 L -0.00107164 65.501391 Z M -0.00107164 0.000941602 " stroke="#ff5757" stroke-width="10.452851" stroke-opacity="1" stroke-miterlimit="4"/></g><g fill="#000000" fill-opacity="1"><g transform="translate(478.874574, 74.564357)"><g><path d="M 5.34375 -2.59375 L 11.015625 -2.59375 C 11.328125 -2.84375 11.625 -2.96875 11.90625 -2.96875 C 12.300781 -2.96875 12.613281 -2.835938 12.84375 -2.578125 C 13.070312 -2.316406 13.1875 -1.867188 13.1875 -1.234375 L 13.1875 0 L 1.390625 0 L 1.390625 -2.734375 C 6.054688 -6.585938 8.875 -9.066406 9.84375 -10.171875 C 10.332031 -10.734375 10.578125 -11.269531 10.578125 -11.78125 C 10.578125 -12.40625 10.300781 -12.957031 9.75 -13.4375 C 9.195312 -13.925781 8.460938 -14.171875 7.546875 -14.171875 C 6.617188 -14.171875 5.847656 -13.898438 5.234375 -13.359375 C 4.910156 -13.078125 4.648438 -12.65625 4.453125 -12.09375 C 4.335938 -11.738281 4.175781 -11.484375 3.96875 -11.328125 C 3.757812 -11.179688 3.503906 -11.109375 3.203125 -11.109375 C 2.847656 -11.109375 2.539062 -11.234375 2.28125 -11.484375 C 2.03125 -11.734375 1.90625 -12.03125 1.90625 -12.375 C 1.90625 -12.875 2.140625 -13.503906 2.609375 -14.265625 C 3.078125 -15.023438 3.757812 -15.628906 4.65625 -16.078125 C 5.550781 -16.535156 6.523438 -16.765625 7.578125 -16.765625 C 9.210938 -16.765625 10.550781 -16.269531 11.59375 -15.28125 C 12.644531 -14.289062 13.171875 -13.09375 13.171875 -11.6875 C 13.171875 -10.96875 13.019531 -10.300781 12.71875 -9.6875 C 12.414062 -9.082031 11.695312 -8.238281 10.5625 -7.15625 C 9.664062 -6.3125 7.925781 -4.789062 5.34375 -2.59375 Z M 5.34375 -2.59375 "/></g></g></g><g clip-path="url(#d08c853a65)"><path stroke-linecap="butt" transform="matrix(1.148012, 0, 0, 1.148012, 588.918134, 29.791888)" fill="none" stroke-linejoin="miter" d="M -0.000143791 0.000941602 L 65.500306 0.000941602 L 65.500306 65.501391 L -0.000143791 65.501391 Z M -0.000143791 0.000941602 " stroke="#457a00" stroke-width="10.452851" stroke-opacity="1" stroke-miterlimit="4"/></g><g fill="#000000" fill-opacity="1"><g transform="translate(618.748509, 74.564357)"><g><path d="M 11.453125 -8.65625 C 12.222656 -8.132812 12.796875 -7.53125 13.171875 -6.84375 C 13.554688 -6.15625 13.75 -5.382812 13.75 -4.53125 C 13.75 -3.613281 13.5 -2.765625 13 -1.984375 C 12.5 -1.210938 11.769531 -0.625 10.8125 -0.21875 C 9.863281 0.175781 8.617188 0.375 7.078125 0.375 C 5.066406 0.375 3.554688 0.0625 2.546875 -0.5625 C 1.984375 -0.914062 1.703125 -1.332031 1.703125 -1.8125 C 1.703125 -2.1875 1.828125 -2.5 2.078125 -2.75 C 2.328125 -3.007812 2.628906 -3.140625 2.984375 -3.140625 C 3.222656 -3.140625 3.472656 -3.054688 3.734375 -2.890625 C 4.109375 -2.640625 4.457031 -2.472656 4.78125 -2.390625 C 5.289062 -2.273438 5.988281 -2.21875 6.875 -2.21875 C 8.382812 -2.21875 9.472656 -2.410156 10.140625 -2.796875 C 10.816406 -3.191406 11.15625 -3.742188 11.15625 -4.453125 C 11.15625 -4.984375 10.957031 -5.492188 10.5625 -5.984375 C 10.175781 -6.484375 9.65625 -6.867188 9 -7.140625 C 8.613281 -7.285156 7.972656 -7.390625 7.078125 -7.453125 C 6.648438 -7.472656 6.316406 -7.601562 6.078125 -7.84375 C 5.847656 -8.09375 5.734375 -8.394531 5.734375 -8.75 C 5.734375 -9.113281 5.859375 -9.421875 6.109375 -9.671875 C 6.367188 -9.929688 6.691406 -10.0625 7.078125 -10.0625 C 7.929688 -10.0625 8.390625 -10.0625 8.453125 -10.0625 C 8.785156 -10.101562 9.117188 -10.210938 9.453125 -10.390625 C 9.796875 -10.578125 10.070312 -10.832031 10.28125 -11.15625 C 10.488281 -11.488281 10.59375 -11.828125 10.59375 -12.171875 C 10.59375 -12.710938 10.347656 -13.179688 9.859375 -13.578125 C 9.378906 -13.984375 8.65625 -14.1875 7.6875 -14.1875 C 6.4375 -14.1875 5.484375 -13.828125 4.828125 -13.109375 C 4.628906 -12.890625 4.472656 -12.753906 4.359375 -12.703125 C 4.179688 -12.609375 3.984375 -12.5625 3.765625 -12.5625 C 3.410156 -12.5625 3.101562 -12.6875 2.84375 -12.9375 C 2.59375 -13.1875 2.46875 -13.5 2.46875 -13.875 C 2.46875 -14.457031 2.859375 -15.019531 3.640625 -15.5625 C 4.765625 -16.363281 6.175781 -16.765625 7.875 -16.765625 C 9.46875 -16.765625 10.75 -16.304688 11.71875 -15.390625 C 12.6875 -14.484375 13.171875 -13.390625 13.171875 -12.109375 C 13.171875 -11.453125 13.023438 -10.832031 12.734375 -10.25 C 12.453125 -9.675781 12.023438 -9.144531 11.453125 -8.65625 Z M 11.453125 -8.65625 "/></g></g></g><g clip-path="url(#8a965c5ed8)"><path stroke-linecap="butt" transform="matrix(1.148012, 0, 0, 1.148012, 728.792117, 29.791888)" fill="none" stroke-linejoin="miter" d="M 0.000742249 0.000941602 L 65.501192 0.000941602 L 65.501192 65.501391 L 0.000742249 65.501391 Z M 0.000742249 0.000941602 " stroke="#ff5757" stroke-width="10.452851" stroke-opacity="1" stroke-miterlimit="4"/></g><g fill="#000000" fill-opacity="1"><g transform="translate(758.622444, 74.564357)"><g><path d="M 9.078125 -16.765625 L 9.078125 -2.59375 L 11.703125 -2.59375 C 12.328125 -2.59375 12.769531 -2.472656 13.03125 -2.234375 C 13.300781 -1.992188 13.4375 -1.675781 13.4375 -1.28125 C 13.4375 -0.90625 13.300781 -0.597656 13.03125 -0.359375 C 12.769531 -0.117188 12.328125 0 11.703125 0 L 3.875 0 C 3.25 0 2.800781 -0.117188 2.53125 -0.359375 C 2.269531 -0.597656 2.140625 -0.910156 2.140625 -1.296875 C 2.140625 -1.679688 2.269531 -1.992188 2.53125 -2.234375 C 2.800781 -2.472656 3.25 -2.59375 3.875 -2.59375 L 6.5 -2.59375 L 6.5 -13.390625 L 4.1875 -12.78125 C 3.8125 -12.6875 3.53125 -12.640625 3.34375 -12.640625 C 3.019531 -12.640625 2.738281 -12.769531 2.5 -13.03125 C 2.257812 -13.289062 2.140625 -13.609375 2.140625 -13.984375 C 2.140625 -14.328125 2.226562 -14.597656 2.40625 -14.796875 C 2.582031 -14.992188 2.953125 -15.171875 3.515625 -15.328125 Z M 9.078125 -16.765625 "/></g></g></g></g></g><g transform="matrix(1, 0, 0, 1, 96, 0)"><g clip-path="url(#cd48d68cd7)"><g clip-path="url(#04916506cd)"><path stroke-linecap="butt" transform="matrix(1.148012, 0, 0, 1.148012, 29.422224, 18.751603)" fill="none" stroke-linejoin="miter" d="M -0.000304147 -0.00139606 L 65.500146 -0.00139606 L 65.500146 65.499054 L -0.000304147 65.499054 Z M -0.000304147 -0.00139606 " stroke="#ff5757" stroke-width="10.452851" stroke-opacity="1" stroke-miterlimit="4"/></g><g fill="#000000" fill-opacity="1"><g transform="translate(59.252599, 63.52407)"><g><path d="M 9.078125 -16.765625 L 9.078125 -2.59375 L 11.703125 -2.59375 C 12.328125 -2.59375 12.769531 -2.472656 13.03125 -2.234375 C 13.300781 -1.992188 13.4375 -1.675781 13.4375 -1.28125 C 13.4375 -0.90625 13.300781 -0.597656 13.03125 -0.359375 C 12.769531 -0.117188 12.328125 0 11.703125 0 L 3.875 0 C 3.25 0 2.800781 -0.117188 2.53125 -0.359375 C 2.269531 -0.597656 2.140625 -0.910156 2.140625 -1.296875 C 2.140625 -1.679688 2.269531 -1.992188 2.53125 -2.234375 C 2.800781 -2.472656 3.25 -2.59375 3.875 -2.59375 L 6.5 -2.59375 L 6.5 -13.390625 L 4.1875 -12.78125 C 3.8125 -12.6875 3.53125 -12.640625 3.34375 -12.640625 C 3.019531 -12.640625 2.738281 -12.769531 2.5 -13.03125 C 2.257812 -13.289062 2.140625 -13.609375 2.140625 -13.984375 C 2.140625 -14.328125 2.226562 -14.597656 2.40625 -14.796875 C 2.582031 -14.992188 2.953125 -15.171875 3.515625 -15.328125 Z M 9.078125 -16.765625 "/></g></g></g><g clip-path="url(#5be5b79153)"><path stroke-linecap="butt" transform="matrix(1.148012, 0, 0, 1.148012, 169.296176, 18.751603)" fill="none" stroke-linejoin="miter" d="M 0.000609071 -0.00139606 L 65.501059 -0.00139606 L 65.501059 65.499054 L 0.000609071 65.499054 Z M 0.000609071 -0.00139606 " stroke="#ff5757" stroke-width="10.452851" stroke-opacity="1" stroke-miterlimit="4"/></g><g fill="#000000" fill-opacity="1"><g transform="translate(199.12658, 63.52407)"><g><path d="M 5.34375 -2.59375 L 11.015625 -2.59375 C 11.328125 -2.84375 11.625 -2.96875 11.90625 -2.96875 C 12.300781 -2.96875 12.613281 -2.835938 12.84375 -2.578125 C 13.070312 -2.316406 13.1875 -1.867188 13.1875 -1.234375 L 13.1875 0 L 1.390625 0 L 1.390625 -2.734375 C 6.054688 -6.585938 8.875 -9.066406 9.84375 -10.171875 C 10.332031 -10.734375 10.578125 -11.269531 10.578125 -11.78125 C 10.578125 -12.40625 10.300781 -12.957031 9.75 -13.4375 C 9.195312 -13.925781 8.460938 -14.171875 7.546875 -14.171875 C 6.617188 -14.171875 5.847656 -13.898438 5.234375 -13.359375 C 4.910156 -13.078125 4.648438 -12.65625 4.453125 -12.09375 C 4.335938 -11.738281 4.175781 -11.484375 3.96875 -11.328125 C 3.757812 -11.179688 3.503906 -11.109375 3.203125 -11.109375 C 2.847656 -11.109375 2.539062 -11.234375 2.28125 -11.484375 C 2.03125 -11.734375 1.90625 -12.03125 1.90625 -12.375 C 1.90625 -12.875 2.140625 -13.503906 2.609375 -14.265625 C 3.078125 -15.023438 3.757812 -15.628906 4.65625 -16.078125 C 5.550781 -16.535156 6.523438 -16.765625 7.578125 -16.765625 C 9.210938 -16.765625 10.550781 -16.269531 11.59375 -15.28125 C 12.644531 -14.289062 13.171875 -13.09375 13.171875 -11.6875 C 13.171875 -10.96875 13.019531 -10.300781 12.71875 -9.6875 C 12.414062 -9.082031 11.695312 -8.238281 10.5625 -7.15625 C 9.664062 -6.3125 7.925781 -4.789062 5.34375 -2.59375 Z M 5.34375 -2.59375 "/></g></g></g><g clip-path="url(#9bcf2e5630)"><path stroke-linecap="butt" transform="matrix(1.148012, 0, 0, 1.148012, 309.170199, 18.751603)" fill="none" stroke-linejoin="miter" d="M 0.00145957 -0.00139606 L 65.498507 -0.00139606 L 65.498507 65.499054 L 0.00145957 65.499054 Z M 0.00145957 -0.00139606 " stroke="#457a00" stroke-width="10.452851" stroke-opacity="1" stroke-miterlimit="4"/></g><g fill="#000000" fill-opacity="1"><g transform="translate(339.000575, 63.52407)"><g><path d="M 11.453125 -8.65625 C 12.222656 -8.132812 12.796875 -7.53125 13.171875 -6.84375 C 13.554688 -6.15625 13.75 -5.382812 13.75 -4.53125 C 13.75 -3.613281 13.5 -2.765625 13 -1.984375 C 12.5 -1.210938 11.769531 -0.625 10.8125 -0.21875 C 9.863281 0.175781 8.617188 0.375 7.078125 0.375 C 5.066406 0.375 3.554688 0.0625 2.546875 -0.5625 C 1.984375 -0.914062 1.703125 -1.332031 1.703125 -1.8125 C 1.703125 -2.1875 1.828125 -2.5 2.078125 -2.75 C 2.328125 -3.007812 2.628906 -3.140625 2.984375 -3.140625 C 3.222656 -3.140625 3.472656 -3.054688 3.734375 -2.890625 C 4.109375 -2.640625 4.457031 -2.472656 4.78125 -2.390625 C 5.289062 -2.273438 5.988281 -2.21875 6.875 -2.21875 C 8.382812 -2.21875 9.472656 -2.410156 10.140625 -2.796875 C 10.816406 -3.191406 11.15625 -3.742188 11.15625 -4.453125 C 11.15625 -4.984375 10.957031 -5.492188 10.5625 -5.984375 C 10.175781 -6.484375 9.65625 -6.867188 9 -7.140625 C 8.613281 -7.285156 7.972656 -7.390625 7.078125 -7.453125 C 6.648438 -7.472656 6.316406 -7.601562 6.078125 -7.84375 C 5.847656 -8.09375 5.734375 -8.394531 5.734375 -8.75 C 5.734375 -9.113281 5.859375 -9.421875 6.109375 -9.671875 C 6.367188 -9.929688 6.691406 -10.0625 7.078125 -10.0625 C 7.929688 -10.0625 8.390625 -10.0625 8.453125 -10.0625 C 8.785156 -10.101562 9.117188 -10.210938 9.453125 -10.390625 C 9.796875 -10.578125 10.070312 -10.832031 10.28125 -11.15625 C 10.488281 -11.488281 10.59375 -11.828125 10.59375 -12.171875 C 10.59375 -12.710938 10.347656 -13.179688 9.859375 -13.578125 C 9.378906 -13.984375 8.65625 -14.1875 7.6875 -14.1875 C 6.4375 -14.1875 5.484375 -13.828125 4.828125 -13.109375 C 4.628906 -12.890625 4.472656 -12.753906 4.359375 -12.703125 C 4.179688 -12.609375 3.984375 -12.5625 3.765625 -12.5625 C 3.410156 -12.5625 3.101562 -12.6875 2.84375 -12.9375 C 2.59375 -13.1875 2.46875 -13.5 2.46875 -13.875 C 2.46875 -14.457031 2.859375 -15.019531 3.640625 -15.5625 C 4.765625 -16.363281 6.175781 -16.765625 7.875 -16.765625 C 9.46875 -16.765625 10.75 -16.304688 11.71875 -15.390625 C 12.6875 -14.484375 13.171875 -13.390625 13.171875 -12.109375 C 13.171875 -11.453125 13.023438 -10.832031 12.734375 -10.25 C 12.453125 -9.675781 12.023438 -9.144531 11.453125 -8.65625 Z M 11.453125 -8.65625 "/></g></g></g><g clip-path="url(#a8f862eb0e)"><path stroke-linecap="butt" transform="matrix(1.148012, 0, 0, 1.148012, 449.044199, 18.751603)" fill="none" stroke-linejoin="miter" d="M -0.00107164 -0.00139606 L 65.499378 -0.00139606 L 65.499378 65.499054 L -0.00107164 65.499054 Z M -0.00107164 -0.00139606 " stroke="#457a00" stroke-width="10.452851" stroke-opacity="1" stroke-miterlimit="4"/></g><g fill="#000000" fill-opacity="1"><g transform="translate(478.874574, 63.52407)"><g><path d="M 11.5625 -16.34375 L 11.5625 -6.21875 C 12.101562 -6.21875 12.503906 -6.097656 12.765625 -5.859375 C 13.035156 -5.617188 13.171875 -5.304688 13.171875 -4.921875 C 13.171875 -4.546875 13.035156 -4.234375 12.765625 -3.984375 C 12.503906 -3.742188 12.101562 -3.625 11.5625 -3.625 L 11.5625 -2.59375 C 12.101562 -2.59375 12.503906 -2.46875 12.765625 -2.21875 C 13.035156 -1.976562 13.171875 -1.664062 13.171875 -1.28125 C 13.171875 -0.90625 13.035156 -0.597656 12.765625 -0.359375 C 12.503906 -0.117188 12.0625 0 11.4375 0 L 7.953125 0 C 7.335938 0 6.894531 -0.117188 6.625 -0.359375 C 6.363281 -0.597656 6.234375 -0.910156 6.234375 -1.296875 C 6.234375 -1.679688 6.363281 -1.992188 6.625 -2.234375 C 6.894531 -2.472656 7.335938 -2.59375 7.953125 -2.59375 L 8.96875 -2.59375 L 8.96875 -3.625 L 1.9375 -3.625 L 1.9375 -5.78125 L 8.140625 -16.34375 Z M 8.96875 -6.21875 L 8.96875 -12.578125 L 5.21875 -6.21875 Z M 8.96875 -6.21875 "/></g></g></g><g clip-path="url(#f5fd7d6dc2)"><path stroke-linecap="butt" transform="matrix(1.148012, 0, 0, 1.148012, 588.918134, 18.751603)" fill="none" stroke-linejoin="miter" d="M -0.000143791 -0.00139606 L 65.500306 -0.00139606 L 65.500306 65.499054 L -0.000143791 65.499054 Z M -0.000143791 -0.00139606 " stroke="#000000" stroke-width="10.452851" stroke-opacity="1" stroke-miterlimit="4"/></g><g fill="#000000" fill-opacity="1"><g transform="translate(618.748509, 63.52407)"><g><path d="M 5.578125 -13.765625 L 5.578125 -10.671875 C 6.546875 -10.972656 7.421875 -11.125 8.203125 -11.125 C 9.796875 -11.125 11.117188 -10.582031 12.171875 -9.5 C 13.222656 -8.414062 13.75 -7.015625 13.75 -5.296875 C 13.75 -3.523438 13.210938 -2.132812 12.140625 -1.125 C 11.078125 -0.125 9.445312 0.375 7.25 0.375 C 5.3125 0.375 3.78125 0.0078125 2.65625 -0.71875 C 2 -1.144531 1.671875 -1.628906 1.671875 -2.171875 C 1.671875 -2.515625 1.796875 -2.816406 2.046875 -3.078125 C 2.304688 -3.335938 2.613281 -3.46875 2.96875 -3.46875 C 3.257812 -3.46875 3.578125 -3.320312 3.921875 -3.03125 C 4.273438 -2.75 4.640625 -2.554688 5.015625 -2.453125 C 5.554688 -2.296875 6.25 -2.21875 7.09375 -2.21875 C 8.65625 -2.21875 9.722656 -2.46875 10.296875 -2.96875 C 10.867188 -3.46875 11.15625 -4.234375 11.15625 -5.265625 C 11.15625 -6.285156 10.878906 -7.085938 10.328125 -7.671875 C 9.773438 -8.253906 9.066406 -8.546875 8.203125 -8.546875 C 7.265625 -8.546875 6.195312 -8.238281 5 -7.625 C 4.726562 -7.488281 4.492188 -7.421875 4.296875 -7.421875 C 3.921875 -7.421875 3.609375 -7.550781 3.359375 -7.8125 C 3.117188 -8.082031 3 -8.4375 3 -8.875 L 3 -16.34375 L 10.921875 -16.34375 C 11.535156 -16.34375 11.972656 -16.222656 12.234375 -15.984375 C 12.503906 -15.742188 12.640625 -15.429688 12.640625 -15.046875 C 12.640625 -14.671875 12.503906 -14.363281 12.234375 -14.125 C 11.972656 -13.882812 11.535156 -13.765625 10.921875 -13.765625 Z M 5.578125 -13.765625 "/></g></g></g><g clip-path="url(#cb40fc4461)"><path stroke-linecap="butt" transform="matrix(1.148012, 0, 0, 1.148012, 728.792117, 18.751603)" fill="none" stroke-linejoin="miter" d="M 0.000742249 -0.00139606 L 65.501192 -0.00139606 L 65.501192 65.499054 L 0.000742249 65.499054 Z M 0.000742249 -0.00139606 " stroke="#000000" stroke-width="10.452851" stroke-opacity="1" stroke-miterlimit="4"/></g><g fill="#000000" fill-opacity="1"><g transform="translate(758.622444, 63.52407)"><g><path d="M 5.328125 -8.84375 C 5.953125 -9.363281 6.546875 -9.742188 7.109375 -9.984375 C 7.671875 -10.222656 8.273438 -10.34375 8.921875 -10.34375 C 10.273438 -10.34375 11.460938 -9.800781 12.484375 -8.71875 C 13.503906 -7.644531 14.015625 -6.296875 14.015625 -4.671875 C 14.015625 -3.160156 13.539062 -1.941406 12.59375 -1.015625 C 11.644531 -0.0859375 10.359375 0.375 8.734375 0.375 C 7.378906 0.375 6.257812 0.0625 5.375 -0.5625 C 4.5 -1.195312 3.835938 -2.171875 3.390625 -3.484375 C 2.953125 -4.796875 2.734375 -6.265625 2.734375 -7.890625 C 2.734375 -9.828125 3.171875 -11.4375 4.046875 -12.71875 C 4.929688 -14 5.972656 -14.992188 7.171875 -15.703125 C 8.367188 -16.410156 9.632812 -16.765625 10.96875 -16.765625 C 12.019531 -16.765625 12.835938 -16.554688 13.421875 -16.140625 C 13.796875 -15.867188 13.984375 -15.515625 13.984375 -15.078125 C 13.984375 -14.703125 13.859375 -14.382812 13.609375 -14.125 C 13.359375 -13.875 13.054688 -13.75 12.703125 -13.75 C 12.492188 -13.75 12.203125 -13.847656 11.828125 -14.046875 C 11.597656 -14.160156 11.378906 -14.21875 11.171875 -14.21875 C 10.347656 -14.21875 9.492188 -13.984375 8.609375 -13.515625 C 7.722656 -13.054688 6.953125 -12.34375 6.296875 -11.375 C 5.859375 -10.695312 5.535156 -9.851562 5.328125 -8.84375 Z M 5.703125 -4.84375 C 5.972656 -3.832031 6.335938 -3.140625 6.796875 -2.765625 C 7.253906 -2.398438 7.910156 -2.21875 8.765625 -2.21875 C 9.617188 -2.21875 10.273438 -2.4375 10.734375 -2.875 C 11.191406 -3.320312 11.421875 -3.929688 11.421875 -4.703125 C 11.421875 -5.578125 11.15625 -6.300781 10.625 -6.875 C 10.101562 -7.457031 9.515625 -7.75 8.859375 -7.75 C 8.335938 -7.75 7.78125 -7.492188 7.1875 -6.984375 C 6.59375 -6.472656 6.097656 -5.757812 5.703125 -4.84375 Z M 5.703125 -4.84375 "/></g></g></g></g></g><g transform="matrix(1, 0, 0, 1, 333, 310)"><g clip-path="url(#65a1b6a54b)"><path fill="#000000" d="M 17.066406 3.371094 C 17.097656 3.371094 18.199219 3.292969 20.371094 3.140625 C 22.542969 2.988281 23.660156 2.894531 23.722656 2.863281 C 24.089844 2.863281 24.273438 2.988281 24.273438 3.230469 C 24.273438 3.445312 23.15625 8.066406 20.921875 17.097656 C 18.6875 26.125 17.539062 30.734375 17.480469 30.917969 C 17.417969 31.101562 17.402344 31.332031 17.433594 31.605469 C 17.433594 32.890625 17.863281 33.535156 18.71875 33.535156 C 18.996094 33.503906 19.300781 33.367188 19.636719 33.121094 C 20.28125 32.507812 20.90625 31.039062 21.519531 28.714844 C 21.703125 28.101562 21.855469 27.78125 21.980469 27.75 C 22.039062 27.71875 22.191406 27.703125 22.4375 27.703125 L 22.804688 27.703125 C 23.265625 27.703125 23.492188 27.824219 23.492188 28.070312 C 23.492188 28.222656 23.449219 28.46875 23.355469 28.804688 C 22.957031 30.335938 22.5 31.574219 21.980469 32.523438 C 21.457031 33.472656 21.03125 34.085938 20.691406 34.359375 C 20.355469 34.636719 19.929688 34.882812 19.40625 35.09375 C 19.164062 35.15625 18.796875 35.1875 18.304688 35.1875 C 17.265625 35.1875 16.390625 34.957031 15.6875 34.5 C 14.984375 34.039062 14.523438 33.566406 14.3125 33.074219 L 14.035156 32.386719 C 14.003906 32.355469 13.945312 32.371094 13.851562 32.433594 C 13.789062 32.492188 13.730469 32.554688 13.667969 32.617188 C 11.863281 34.328125 10.027344 35.1875 8.160156 35.1875 C 6.476562 35.1875 4.992188 34.574219 3.707031 33.351562 C 2.417969 32.125 1.777344 30.183594 1.777344 27.519531 C 1.777344 26.050781 2.082031 24.550781 2.695312 23.019531 C 3.308594 21.488281 4.042969 20.171875 4.898438 19.070312 C 6.335938 17.328125 7.777344 16.117188 9.214844 15.445312 C 10.652344 14.769531 11.953125 14.433594 13.117188 14.433594 C 14.832031 14.433594 16.117188 15.078125 16.972656 16.363281 C 17.128906 16.546875 17.203125 16.609375 17.203125 16.546875 C 17.234375 16.425781 17.648438 14.753906 18.441406 11.542969 C 19.238281 8.328125 19.667969 6.628906 19.730469 6.445312 C 19.730469 6.046875 19.621094 5.804688 19.40625 5.710938 C 19.191406 5.617188 18.597656 5.542969 17.617188 5.480469 L 16.652344 5.480469 C 16.46875 5.296875 16.378906 5.175781 16.378906 5.113281 C 16.378906 5.054688 16.40625 4.761719 16.46875 4.242188 C 16.621094 3.660156 16.820312 3.371094 17.066406 3.371094 Z M 16.421875 19.761719 C 15.71875 17.34375 14.570312 16.132812 12.980469 16.132812 C 11.910156 16.132812 10.882812 16.609375 9.902344 17.554688 C 8.925781 18.503906 8.160156 19.746094 7.609375 21.277344 C 6.71875 23.695312 6.09375 26.203125 5.726562 28.804688 C 5.726562 28.898438 5.726562 29.066406 5.726562 29.308594 C 5.726562 29.554688 5.710938 29.738281 5.679688 29.859375 C 5.679688 31.238281 5.953125 32.1875 6.507812 32.707031 C 7.058594 33.226562 7.714844 33.503906 8.480469 33.535156 C 10.132812 33.535156 11.832031 32.433594 13.578125 30.226562 L 13.945312 29.722656 Z M 16.421875 19.761719 " fill-opacity="1" fill-rule="nonzero"/><g clip-path="url(#e0a363533a)"><path fill="#000000" d="M 28.453125 23.25 C 28.453125 21.136719 28.605469 19.132812 28.910156 17.234375 C 29.21875 15.335938 29.570312 13.699219 29.96875 12.324219 C 30.367188 10.945312 30.929688 9.597656 31.667969 8.28125 C 32.402344 6.964844 32.980469 5.941406 33.410156 5.207031 C 33.839844 4.472656 34.480469 3.675781 35.339844 2.820312 C 36.195312 1.960938 36.703125 1.441406 36.855469 1.257812 C 37.007812 1.074219 37.390625 0.753906 38.003906 0.292969 L 38.78125 0.292969 C 39.210938 0.292969 39.425781 0.429688 39.425781 0.707031 C 39.425781 0.796875 39.164062 1.121094 38.644531 1.671875 C 38.125 2.222656 37.496094 3.03125 36.761719 4.105469 C 36.027344 5.175781 35.277344 6.492188 34.511719 8.050781 C 33.746094 9.613281 33.105469 11.726562 32.585938 14.386719 C 32.0625 17.050781 31.804688 20.003906 31.804688 23.25 C 31.804688 26.496094 32.0625 29.433594 32.585938 32.066406 C 33.105469 34.699219 33.730469 36.824219 34.46875 38.445312 C 35.203125 40.070312 35.953125 41.386719 36.714844 42.394531 C 37.480469 43.40625 38.125 44.214844 38.644531 44.828125 C 39.164062 45.441406 39.425781 45.761719 39.425781 45.792969 C 39.425781 46.070312 39.195312 46.207031 38.738281 46.207031 L 38.003906 46.207031 L 36.714844 45.105469 C 33.839844 42.503906 31.742188 39.257812 30.425781 35.371094 C 29.109375 31.484375 28.453125 27.441406 28.453125 23.25 Z M 28.453125 23.25 " fill-opacity="1" fill-rule="nonzero"/></g><path fill="#000000" d="M 51.546875 31.332031 C 51.546875 32.066406 52.25 32.492188 53.660156 32.617188 C 54.210938 32.617188 54.484375 32.785156 54.484375 33.121094 C 54.484375 33.152344 54.453125 33.351562 54.394531 33.71875 C 54.300781 34.144531 54.210938 34.421875 54.117188 34.542969 C 54.027344 34.667969 53.828125 34.726562 53.519531 34.726562 C 53.460938 34.726562 53.277344 34.726562 52.96875 34.726562 C 52.664062 34.726562 52.144531 34.710938 51.410156 34.683594 C 50.675781 34.652344 49.695312 34.636719 48.46875 34.636719 C 46.296875 34.636719 44.90625 34.667969 44.292969 34.726562 L 43.925781 34.726562 C 43.710938 34.511719 43.605469 34.34375 43.605469 34.222656 C 43.664062 33.394531 43.863281 32.859375 44.199219 32.617188 L 44.84375 32.617188 C 46.984375 32.523438 48.546875 31.757812 49.527344 30.320312 C 49.710938 30.136719 52.480469 25.46875 57.835938 16.316406 C 63.191406 7.164062 65.917969 2.527344 66.007812 2.40625 C 66.222656 2.039062 66.589844 1.855469 67.109375 1.855469 L 68.257812 1.855469 C 68.441406 2.128906 68.535156 2.28125 68.535156 2.3125 L 69.820312 17.144531 C 70.675781 27.03125 71.136719 32.019531 71.195312 32.109375 C 71.351562 32.449219 72.34375 32.617188 74.179688 32.617188 C 74.945312 32.617188 75.328125 32.769531 75.328125 33.074219 C 75.328125 33.136719 75.285156 33.351562 75.191406 33.71875 C 75.101562 34.175781 75.023438 34.453125 74.960938 34.542969 C 74.902344 34.636719 74.6875 34.699219 74.320312 34.726562 C 74.226562 34.726562 74.011719 34.726562 73.675781 34.726562 C 73.339844 34.726562 72.742188 34.710938 71.886719 34.683594 C 71.027344 34.652344 69.910156 34.636719 68.535156 34.636719 C 65.65625 34.636719 63.773438 34.667969 62.886719 34.726562 L 62.335938 34.726562 C 62.152344 34.542969 62.058594 34.40625 62.058594 34.316406 C 62.058594 34.222656 62.089844 33.949219 62.152344 33.488281 C 62.273438 33.089844 62.367188 32.84375 62.429688 32.753906 L 62.613281 32.617188 L 63.53125 32.617188 C 65.183594 32.523438 66.160156 32.265625 66.46875 31.835938 L 65.917969 24.949219 L 54.988281 24.949219 L 53.429688 27.613281 C 52.175781 29.722656 51.546875 30.964844 51.546875 31.332031 Z M 65.6875 22.789062 C 65.6875 22.453125 65.503906 20.066406 65.136719 15.628906 C 64.769531 11.191406 64.554688 8.957031 64.492188 8.925781 L 63.253906 10.898438 C 62.765625 11.726562 61.800781 13.363281 60.363281 15.8125 L 56.230469 22.789062 L 60.957031 22.835938 C 64.109375 22.835938 65.6875 22.820312 65.6875 22.789062 Z M 65.6875 22.789062 " fill-opacity="1" fill-rule="nonzero"/><path fill="#000000" d="M 80.011719 33.121094 C 80.011719 33.121094 80.011719 32.738281 80.011719 31.972656 C 80.011719 31.207031 80.257812 30.550781 80.746094 30 C 81.238281 29.449219 81.894531 29.171875 82.722656 29.171875 C 83.578125 29.171875 84.34375 29.554688 85.015625 30.320312 C 85.691406 31.085938 86.042969 32.433594 86.074219 34.359375 C 86.074219 35.433594 85.933594 36.472656 85.660156 37.484375 C 85.382812 38.492188 85.0625 39.363281 84.695312 40.101562 C 84.328125 40.835938 83.929688 41.460938 83.5 41.980469 C 83.074219 42.503906 82.707031 42.914062 82.398438 43.222656 C 82.09375 43.527344 81.894531 43.664062 81.804688 43.636719 C 81.679688 43.636719 81.480469 43.496094 81.207031 43.222656 C 80.929688 42.945312 80.792969 42.746094 80.792969 42.625 C 80.792969 42.503906 80.960938 42.257812 81.296875 41.890625 C 81.636719 41.523438 82.015625 41.0625 82.445312 40.511719 C 82.875 39.960938 83.273438 39.195312 83.640625 38.21875 C 84.007812 37.238281 84.25 36.121094 84.375 34.867188 L 84.375 34.316406 L 84.328125 34.359375 C 84.265625 34.390625 84.191406 34.421875 84.097656 34.453125 C 84.007812 34.484375 83.914062 34.527344 83.824219 34.589844 C 83.730469 34.652344 83.59375 34.683594 83.410156 34.683594 C 83.226562 34.683594 83.042969 34.699219 82.859375 34.726562 C 82.03125 34.726562 81.359375 34.46875 80.839844 33.949219 Z M 80.011719 33.121094 " fill-opacity="1" fill-rule="nonzero"/><path fill="#000000" d="M 107.453125 5.480469 C 106.628906 5.480469 106.136719 5.464844 105.984375 5.433594 C 105.832031 5.40625 105.757812 5.238281 105.757812 4.929688 C 105.757812 4.105469 105.925781 3.597656 106.261719 3.414062 C 106.292969 3.382812 108.28125 3.371094 112.230469 3.371094 C 120.15625 3.371094 124.335938 3.398438 124.765625 3.460938 C 126.691406 3.765625 128.300781 4.457031 129.585938 5.527344 C 130.871094 6.597656 131.527344 8.007812 131.558594 9.75 C 131.558594 11.710938 130.671875 13.46875 128.894531 15.03125 C 127.121094 16.59375 125.085938 17.648438 122.789062 18.199219 L 122.332031 18.335938 C 124.289062 18.613281 125.894531 19.316406 127.152344 20.449219 C 128.40625 21.582031 129.050781 22.988281 129.078125 24.671875 C 129.078125 26.90625 127.976562 29.066406 125.773438 31.148438 C 123.570312 33.226562 120.859375 34.40625 117.648438 34.683594 C 117.433594 34.710938 114.203125 34.726562 107.960938 34.726562 C 101.839844 34.726562 98.730469 34.699219 98.640625 34.636719 C 98.515625 34.542969 98.457031 34.421875 98.457031 34.269531 C 98.457031 34.054688 98.488281 33.839844 98.546875 33.625 C 98.699219 33.042969 98.855469 32.722656 99.007812 32.660156 C 99.128906 32.632812 99.359375 32.617188 99.695312 32.617188 L 99.972656 32.617188 C 100.796875 32.617188 101.714844 32.570312 102.726562 32.476562 C 103.152344 32.386719 103.445312 32.203125 103.597656 31.925781 C 103.691406 31.804688 104.792969 27.550781 106.902344 19.164062 C 109.015625 10.777344 110.070312 6.355469 110.070312 5.894531 C 110.070312 5.679688 109.199219 5.542969 107.453125 5.480469 Z M 126.644531 9.75 C 126.644531 8.832031 126.417969 7.976562 125.957031 7.179688 C 125.5 6.382812 124.75 5.863281 123.707031 5.617188 C 123.492188 5.558594 122.085938 5.511719 119.484375 5.480469 C 118.871094 5.480469 118.230469 5.480469 117.554688 5.480469 C 116.882812 5.480469 116.347656 5.496094 115.949219 5.527344 L 115.351562 5.527344 C 114.890625 5.558594 114.601562 5.710938 114.480469 5.988281 C 114.417969 6.109375 113.929688 7.945312 113.011719 11.496094 C 113.011719 11.585938 112.996094 11.679688 112.964844 11.769531 L 111.539062 17.554688 L 115.261719 17.554688 C 117.738281 17.554688 119.164062 17.527344 119.53125 17.464844 C 121.367188 17.160156 123.003906 16.269531 124.441406 14.800781 C 125.882812 13.332031 126.617188 11.648438 126.644531 9.75 Z M 124.167969 24.214844 C 124.167969 22.867188 123.816406 21.75 123.109375 20.863281 C 122.40625 19.972656 121.488281 19.453125 120.355469 19.300781 C 120.171875 19.269531 118.902344 19.253906 116.546875 19.253906 C 112.933594 19.253906 111.113281 19.269531 111.082031 19.300781 C 111.082031 19.363281 110.820312 20.480469 110.300781 22.652344 C 109.78125 24.824219 109.246094 26.984375 108.695312 29.125 L 107.867188 32.339844 C 107.867188 32.460938 108.050781 32.523438 108.417969 32.523438 C 108.785156 32.523438 110.027344 32.554688 112.136719 32.617188 C 114.863281 32.617188 116.332031 32.601562 116.546875 32.570312 C 118.441406 32.355469 120.1875 31.46875 121.78125 29.90625 C 123.371094 28.347656 124.167969 26.449219 124.167969 24.214844 Z M 124.167969 24.214844 " fill-opacity="1" fill-rule="nonzero"/><g clip-path="url(#4055e999ed)"><path fill="#000000" d="M 134.453125 0.339844 L 134.636719 0.292969 C 134.789062 0.292969 134.941406 0.292969 135.09375 0.292969 L 135.644531 0.292969 L 136.929688 1.394531 C 139.808594 3.996094 141.90625 7.242188 143.222656 11.128906 C 144.535156 15.015625 145.195312 19.054688 145.195312 23.25 C 145.195312 25.332031 145.042969 27.335938 144.734375 29.265625 C 144.429688 31.191406 144.078125 32.832031 143.679688 34.175781 C 143.28125 35.523438 142.714844 36.871094 141.980469 38.21875 C 141.246094 39.5625 140.664062 40.589844 140.238281 41.292969 C 139.808594 41.996094 139.179688 42.777344 138.355469 43.636719 C 137.527344 44.492188 137.039062 44.996094 136.886719 45.148438 C 136.730469 45.304688 136.378906 45.59375 135.828125 46.023438 C 135.738281 46.113281 135.675781 46.175781 135.644531 46.207031 L 135.09375 46.207031 C 134.847656 46.207031 134.679688 46.207031 134.589844 46.207031 C 134.496094 46.207031 134.421875 46.160156 134.359375 46.070312 C 134.296875 45.976562 134.253906 45.839844 134.222656 45.65625 C 134.253906 45.625 134.421875 45.425781 134.726562 45.058594 C 139.472656 40.128906 141.84375 32.859375 141.84375 23.25 C 141.84375 13.636719 139.472656 6.367188 134.726562 1.441406 C 134.421875 1.074219 134.253906 0.875 134.222656 0.84375 C 134.222656 0.597656 134.296875 0.429688 134.453125 0.339844 Z M 134.453125 0.339844 " fill-opacity="1" fill-rule="nonzero"/></g><path fill="#000000" d="M 164.878906 18.796875 C 164.878906 18.398438 165.09375 18.09375 165.519531 17.878906 L 194.765625 17.878906 C 195.226562 18.121094 195.457031 18.429688 195.457031 18.796875 C 195.457031 19.132812 195.242188 19.421875 194.8125 19.667969 L 180.214844 19.714844 L 165.613281 19.714844 C 165.121094 19.5625 164.878906 19.253906 164.878906 18.796875 Z M 164.878906 27.703125 C 164.878906 27.242188 165.121094 26.9375 165.613281 26.785156 L 194.8125 26.785156 C 195.242188 27.089844 195.457031 27.398438 195.457031 27.703125 C 195.457031 28.101562 195.226562 28.40625 194.765625 28.621094 L 165.519531 28.621094 C 165.09375 28.40625 164.878906 28.101562 164.878906 27.703125 Z M 164.878906 27.703125 " fill-opacity="1" fill-rule="nonzero"/><path fill="#000000" d="M 215.785156 15.03125 C 214.960938 15.03125 214.300781 14.753906 213.8125 14.203125 C 213.320312 13.652344 213.078125 12.980469 213.078125 12.183594 C 213.078125 10.011719 213.886719 8.128906 215.511719 6.539062 C 217.132812 4.945312 219.152344 4.148438 221.570312 4.148438 C 224.355469 4.148438 226.683594 5.007812 228.550781 6.722656 C 230.417969 8.433594 231.367188 10.652344 231.398438 13.378906 C 231.398438 14.695312 231.089844 15.949219 230.476562 17.144531 C 229.867188 18.335938 229.132812 19.378906 228.273438 20.265625 C 227.417969 21.152344 226.191406 22.285156 224.601562 23.664062 C 223.5 24.613281 221.96875 26.019531 220.011719 27.886719 L 217.300781 30.457031 L 220.789062 30.503906 C 225.597656 30.503906 228.152344 30.425781 228.457031 30.273438 C 228.671875 30.214844 229.039062 28.851562 229.558594 26.1875 L 229.558594 26.050781 L 231.398438 26.050781 L 231.398438 26.1875 C 231.367188 26.28125 231.167969 27.671875 230.800781 30.367188 C 230.433594 33.058594 230.203125 34.46875 230.109375 34.589844 L 230.109375 34.726562 L 213.078125 34.726562 L 213.078125 33.304688 C 213.078125 33.089844 213.167969 32.859375 213.351562 32.617188 C 213.535156 32.371094 213.996094 31.835938 214.730469 31.007812 C 215.617188 30.03125 216.382812 29.171875 217.027344 28.4375 C 217.300781 28.132812 217.820312 27.566406 218.585938 26.738281 C 219.351562 25.914062 219.871094 25.347656 220.148438 25.039062 C 220.421875 24.734375 220.867188 24.230469 221.480469 23.523438 C 222.089844 22.820312 222.519531 22.300781 222.765625 21.964844 C 223.011719 21.628906 223.363281 21.167969 223.820312 20.585938 C 224.28125 20.003906 224.601562 19.515625 224.785156 19.117188 C 224.96875 18.71875 225.199219 18.277344 225.472656 17.785156 C 225.75 17.296875 225.949219 16.804688 226.070312 16.316406 C 226.191406 15.828125 226.300781 15.367188 226.390625 14.9375 C 226.484375 14.511719 226.53125 14.003906 226.53125 13.425781 C 226.53125 11.496094 226.007812 9.828125 224.96875 8.417969 C 223.929688 7.011719 222.445312 6.308594 220.515625 6.308594 C 219.503906 6.308594 218.617188 6.566406 217.851562 7.089844 C 217.085938 7.609375 216.550781 8.113281 216.246094 8.601562 C 215.9375 9.09375 215.785156 9.382812 215.785156 9.476562 C 215.785156 9.507812 215.863281 9.523438 216.015625 9.523438 C 216.566406 9.523438 217.132812 9.734375 217.714844 10.164062 C 218.296875 10.59375 218.585938 11.296875 218.585938 12.277344 C 218.585938 13.042969 218.34375 13.683594 217.851562 14.203125 C 217.363281 14.726562 216.675781 15 215.785156 15.03125 Z M 215.785156 15.03125 " fill-opacity="1" fill-rule="nonzero"/></g></g></svg>